<svg width="58" height="58" viewBox="0 0 58 58" fill="none" xmlns="http://www.w3.org/2000/svg">
<path d="M35.8351 31.0096C34.8481 30.0227 33.2423 30.0227 32.2554 31.0096C32.0415 31.2235 31.7547 31.3414 31.4482 31.3414C31.1417 31.3413 30.8551 31.2235 30.6411 31.0096L26.9911 27.3596C26.7772 27.1456 26.6593 26.859 26.6593 26.5524C26.6593 26.246 26.7771 25.9593 26.9911 25.7452C27.9779 24.7583 27.9779 23.1524 26.9911 22.1655L24.8503 20.0246C23.8634 19.0376 22.2576 19.0378 21.2705 20.0246C18.6195 22.6758 18.6195 26.9896 21.2705 29.6408L23.0254 31.3957L24.2187 30.2025L22.4638 28.4476C20.4705 26.4544 20.4705 23.2112 22.4637 21.218C22.7929 20.8888 23.3283 20.8891 23.6569 21.218L25.7977 23.3589C26.1267 23.6878 26.1267 24.2232 25.7979 24.5521C25.2651 25.0849 24.9715 25.7953 24.9717 26.5526C24.9717 27.3099 25.2651 28.0202 25.7977 28.5529L29.4477 32.2028C29.9804 32.7355 30.6908 33.0289 31.4481 33.029H31.4482C32.2054 33.029 32.9158 32.7356 33.4485 32.203C33.6063 32.0451 33.8182 31.9583 34.0451 31.9583C34.272 31.9583 34.4839 32.0451 34.6417 32.203L36.7826 34.3438C37.1116 34.6728 37.1116 35.2082 36.7826 35.5371C34.7894 37.5303 31.5462 37.5302 29.553 35.5371L27.7982 33.7823L26.6049 34.9755L28.3597 36.7303C29.6855 38.0561 31.4265 38.7187 33.1678 38.7187C34.9089 38.7187 36.6504 38.0558 37.9759 36.7304C38.9627 35.7436 38.9627 34.1376 37.9759 33.1507L35.8351 31.0096Z" fill="#32c36c"/>
<path d="M24.2129 32.5862L25.406 31.3931L26.599 32.5862L25.406 33.7792L24.2129 32.5862Z" fill="#32c36c"/>
<path d="M53.5814 24.7812C51.5441 24.7812 49.8396 26.2329 49.4476 28.1562H45.0093C44.8121 24.3706 43.295 20.9288 40.9112 18.2822L45.1885 14.0049L43.9952 12.8118L39.718 17.089C37.0714 14.7053 33.6296 13.1883 29.8439 12.9911V8.55251C31.7672 8.16056 33.2189 6.45608 33.2189 4.4187C33.2189 2.09243 31.3265 0.199951 29.0002 0.199951C26.6739 0.199951 24.7814 2.09243 24.7814 4.4187C24.7814 6.45608 26.2331 8.16056 28.1564 8.55251V12.9909C24.3708 13.1881 20.929 14.705 18.2824 17.0888L14.0052 12.8115L12.8119 14.0047L17.0891 18.282C14.7054 20.9285 13.1884 24.3703 12.9911 28.156H8.55276C8.16081 26.2327 6.45632 24.781 4.41895 24.781C2.09267 24.7812 0.200195 26.6737 0.200195 29C0.200195 31.3262 2.09267 33.2187 4.41895 33.2187C6.45632 33.2187 8.16081 31.767 8.55276 29.8437H12.9911C13.1883 33.6293 14.7054 37.0712 17.0891 39.7177L12.8119 43.995L14.0052 45.1881L18.2824 40.9109C20.929 43.2947 24.3708 44.8116 28.1564 45.0088V49.4472C26.2331 49.8391 24.7814 51.5436 24.7814 53.581C24.7814 55.9072 26.6739 57.7997 29.0002 57.7997C31.3265 57.7997 33.2189 55.9072 33.2189 53.581C33.2189 51.5436 31.7672 49.8391 29.8439 49.4472V45.0088C33.6296 44.8116 37.0714 43.2947 39.718 40.9109L43.9952 45.1881L45.1885 43.995L40.9112 39.7177C43.295 37.0712 44.812 33.6293 45.0093 29.8437H49.4476C49.8396 31.767 51.5441 33.2187 53.5814 33.2187C55.9077 33.2187 57.8002 31.3262 57.8002 29C57.8002 26.6737 55.9077 24.7812 53.5814 24.7812ZM4.41895 31.5312C3.02327 31.5312 1.8877 30.3957 1.8877 29C1.8877 27.6042 3.02327 26.4687 4.41895 26.4687C5.81462 26.4687 6.9502 27.6042 6.9502 29C6.9502 30.3957 5.81462 31.5312 4.41895 31.5312ZM26.4689 4.4187C26.4689 3.02291 27.6045 1.88745 29.0002 1.88745C30.3959 1.88745 31.5314 3.02291 31.5314 4.4187C31.5314 5.81449 30.3959 6.94995 29.0002 6.94995C27.6045 6.94995 26.4689 5.81449 26.4689 4.4187ZM31.5314 53.5812C31.5314 54.977 30.3959 56.1124 29.0002 56.1124C27.6045 56.1124 26.4689 54.977 26.4689 53.5812C26.4689 52.1854 27.6045 51.0499 29.0002 51.0499C30.3959 51.0499 31.5314 52.1854 31.5314 53.5812ZM29.0002 43.3437C21.091 43.3437 14.6564 36.9091 14.6564 29C14.6564 21.0907 21.091 14.6562 29.0002 14.6562C36.9094 14.6562 43.3439 21.0909 43.3439 29C43.3439 36.909 36.9094 43.3437 29.0002 43.3437ZM53.5814 31.5312C52.1858 31.5312 51.0502 30.3957 51.0502 29C51.0502 27.6042 52.1858 26.4687 53.5814 26.4687C54.9771 26.4687 56.1127 27.6042 56.1127 29C56.1127 30.3957 54.9771 31.5312 53.5814 31.5312Z" fill="#32c36c"/>
<path d="M48.7686 44.5491C47.6415 44.5491 46.5822 44.9879 45.7854 45.7848C44.9887 46.5816 44.5498 47.641 44.5498 48.7679C44.5498 49.8948 44.9887 50.9543 45.7854 51.751C46.5822 52.5478 47.6415 52.9867 48.7686 52.9867C49.8955 52.9867 50.9549 52.5478 51.7516 51.7511C52.5484 50.9543 52.9873 49.8948 52.9873 48.7679C52.9873 47.641 52.5484 46.5816 51.7517 45.7848C50.9548 44.9879 49.8954 44.5491 48.7686 44.5491ZM50.5583 50.5577C50.0803 51.0358 49.4447 51.2991 48.7686 51.2991C48.0924 51.2991 47.4568 51.0358 46.9788 50.5577C46.5007 50.0796 46.2373 49.4439 46.2373 48.7678C46.2373 48.0917 46.5007 47.4561 46.9788 46.9779C47.4568 46.4998 48.0924 46.2366 48.7686 46.2366C49.4447 46.2366 50.0803 46.4998 50.5583 46.9779C51.0364 47.4561 51.2998 48.0917 51.2998 48.7678C51.2998 49.4441 51.0364 50.0797 50.5583 50.5577Z" fill="#32c36c"/>
<path d="M9.23242 13.4507C10.3594 13.4507 11.4189 13.0118 12.2156 12.215C13.0123 11.4181 13.4512 10.3587 13.4512 9.23193C13.4512 8.10513 13.0123 7.04561 12.2156 6.24888C11.4187 5.45205 10.3594 5.01318 9.23242 5.01318C8.10551 5.01318 7.0461 5.45205 6.24937 6.24877C5.45253 7.04561 5.01367 8.10502 5.01367 9.23193C5.01367 10.3588 5.45253 11.4183 6.24926 12.215C7.04621 13.0118 8.10562 13.4507 9.23242 13.4507ZM7.44255 7.44217C7.92067 6.96405 8.5563 6.7008 9.23242 6.7008C9.90855 6.7008 10.5442 6.96405 11.0222 7.44217C11.5003 7.9203 11.7637 8.55592 11.7637 9.23205C11.7637 9.90817 11.5003 10.5438 11.0222 11.0219C10.5442 11.5 9.90855 11.7633 9.23242 11.7633C8.5563 11.7633 7.92067 11.5 7.44255 11.0218C6.96453 10.5438 6.70117 9.90817 6.70117 9.23205C6.70117 8.55592 6.96453 7.92018 7.44255 7.44217Z" fill="#32c36c"/>
<path d="M48.7686 13.4505C49.8955 13.4505 50.9549 13.0117 51.7516 12.2148C52.5484 11.418 52.9873 10.3586 52.9873 9.2318C52.9873 8.105 52.5484 7.04548 51.7516 6.24864H51.7517C50.9549 5.4518 49.8955 5.01294 48.7686 5.01294C47.6415 5.01294 46.5822 5.4518 45.7854 6.24853C44.9887 7.04536 44.5498 8.10478 44.5498 9.23169C44.5498 10.3586 44.9887 11.418 45.7854 12.2147C46.5821 13.0117 47.6415 13.4505 48.7686 13.4505ZM46.9788 7.44204C47.4568 6.96391 48.0924 6.70066 48.7686 6.70066C49.4447 6.70066 50.0803 6.96391 50.5583 7.44204H50.5584C51.0364 7.92016 51.2998 8.55579 51.2998 9.23191C51.2998 9.90804 51.0364 10.5437 50.5583 11.0218C50.0803 11.4999 49.4447 11.7632 48.7686 11.7632C48.0924 11.7632 47.4568 11.4999 46.9788 11.0217C46.5007 10.5437 46.2373 9.90804 46.2373 9.23191C46.2373 8.55579 46.5007 7.92005 46.9788 7.44204Z" fill="#32c36c"/>
<path d="M9.23242 44.5491C8.10551 44.5491 7.0461 44.9879 6.24926 45.7848C5.45253 46.5816 5.01367 47.641 5.01367 48.7679C5.01367 49.8948 5.45253 50.9543 6.24926 51.751C7.0461 52.5478 8.10551 52.9867 9.23242 52.9867C10.3594 52.9867 11.4187 52.5478 12.2156 51.7511C13.0123 50.9543 13.4512 49.8948 13.4512 48.7679C13.4512 47.641 13.0123 46.5816 12.2156 45.7848C11.4187 44.9879 10.3594 44.5491 9.23242 44.5491ZM11.0222 50.5577C10.5442 51.0358 9.90855 51.2991 9.23242 51.2991C8.5563 51.2991 7.92067 51.0358 7.44255 50.5577C6.96453 50.0796 6.70117 49.4439 6.70117 48.7678C6.70117 48.0917 6.96453 47.4561 7.44266 46.9779C7.92067 46.4998 8.5563 46.2366 9.23242 46.2366C9.90855 46.2366 10.5442 46.4998 11.0222 46.9779C11.5003 47.4561 11.7637 48.0917 11.7637 48.7678C11.7637 49.4441 11.5003 50.0797 11.0222 50.5577Z" fill="#32c36c"/>
<path d="M31.5312 17.1875H33.2188V18.875H31.5312V17.1875Z" fill="#32c36c"/>
<path d="M34.9062 18.875H36.5938V20.5625H34.9062V18.875Z" fill="#32c36c"/>
</svg>
