<svg width="64" height="60" viewBox="0 0 64 60" fill="none" xmlns="http://www.w3.org/2000/svg">
<path d="M58.5006 35.8497C58.0786 35.5481 57.4922 35.6458 57.1908 36.0678C56.8893 36.4897 56.9869 37.0762 57.4087 37.3777C60.36 39.4866 62.122 42.9079 62.122 46.5299C62.122 49.2322 61.1632 51.7146 59.5685 53.6554C58.2535 51.1289 56.4166 49.5048 54.9771 48.5362C55.7579 47.5914 56.2009 46.3926 56.2009 45.1453C56.2009 42.2122 53.8146 39.8258 50.8815 39.8258C47.9484 39.8258 45.562 42.2121 45.562 45.1453C45.562 46.3926 46.0051 47.5914 46.7858 48.5362C45.3464 49.5048 43.5095 51.1291 42.1945 53.6554C40.5998 51.7146 39.641 49.2322 39.641 46.5301C39.641 40.3321 44.6835 35.2896 50.8815 35.2896C52.0734 35.2896 53.2465 35.4751 54.3684 35.8407C54.861 36.0011 55.3914 35.7319 55.5521 35.2389C55.7129 34.7458 55.4434 34.2159 54.9504 34.0552C53.6403 33.6282 52.2713 33.4116 50.8815 33.4116C46.6038 33.4116 42.798 35.4699 40.4019 38.6479L32.9515 33.8389V26.5547C39.7484 26.0716 45.131 20.3879 45.131 13.4703C45.131 6.23681 39.2461 0.351807 32.0126 0.351807C29.3305 0.351807 26.7512 1.15606 24.5536 2.67743C24.1273 2.97256 24.0209 3.55743 24.3161 3.98393C24.6113 4.41006 25.1961 4.51668 25.6226 4.22131C27.5048 2.91843 29.7144 2.22968 32.0126 2.22968C38.2106 2.22968 43.2531 7.27218 43.2531 13.4702C43.2531 16.1724 42.2945 18.6548 40.6996 20.5956C39.3846 18.0692 37.5477 16.4449 36.1082 15.4763C36.889 14.5316 37.332 13.3327 37.332 12.0853C37.332 9.15231 34.9458 6.76593 32.0126 6.76593C29.0795 6.76593 26.6933 9.15218 26.6933 12.0853C26.6933 13.3327 27.1362 14.5317 27.917 15.4763C26.4775 16.4449 24.6407 18.0692 23.3256 20.5956C21.7307 18.6548 20.7721 16.1724 20.7721 13.4702C20.7721 10.9658 21.5776 8.59618 23.1016 6.61743C23.418 6.20668 23.3415 5.61706 22.9307 5.30068C22.5199 4.98406 21.9303 5.06068 21.6139 5.47156C19.8346 7.78156 18.8943 10.5474 18.8943 13.4701C18.8943 20.3878 24.2768 26.0714 31.0736 26.5544V33.8387L23.5935 38.6669C21.197 35.4923 17.3935 33.4366 13.1185 33.4366C5.88487 33.4367 0 39.3217 0 46.5552C0 49.5597 1.04163 52.4959 2.93313 54.8233C4.79712 57.1171 7.40438 58.7297 10.2744 59.3643C10.7806 59.4759 11.2819 59.1564 11.3939 58.6502C11.5057 58.1439 11.1861 57.6427 10.6798 57.5307C8.89338 57.1357 7.227 56.2959 5.8355 55.1128C7.27237 51.9422 9.6795 50.2609 11.0335 49.5246C11.6318 49.2219 11.6895 48.3139 11.1341 47.9381C10.2374 47.2913 9.702 46.2472 9.702 45.1452C9.702 43.2476 11.2459 41.7037 13.1435 41.7037C15.0411 41.7037 16.585 43.2476 16.585 45.1452C16.585 46.2472 16.0496 47.2913 15.153 47.9381C14.5976 48.3139 14.6555 49.2219 15.2536 49.5246C16.6034 50.2586 18.9996 51.9313 20.4382 55.0824C18.6735 56.5997 16.4851 57.5366 14.1508 57.7491C13.6343 57.7961 13.2537 58.2528 13.3006 58.7692C13.345 59.2567 13.7545 59.6232 14.2346 59.6232C14.2631 59.6232 14.2919 59.6218 14.3208 59.6192C17.5664 59.3241 20.5721 57.8342 22.7845 55.4243C25.0106 52.9992 26.2367 49.8494 26.2367 46.5553C26.2367 44.2686 25.648 42.1169 24.6151 40.2431L32.0126 35.4682L39.3811 40.2244C38.3505 42.0968 37.7631 44.2459 37.7631 46.5301C37.7631 53.7636 43.648 59.6486 50.8815 59.6486C58.115 59.6486 64 53.7634 64 46.5299C64 42.3029 61.9441 38.3103 58.5006 35.8497ZM21.8305 53.6551C20.5155 51.1288 18.6787 49.5048 17.2394 48.5362C18.02 47.5914 18.4631 46.3926 18.4631 45.1453C18.4631 42.2122 16.0769 39.8258 13.1438 39.8258C10.2106 39.8258 7.82438 42.2121 7.82438 45.1453C7.82438 46.3926 8.2675 47.5914 9.04813 48.5362C7.6015 49.5097 5.75325 51.1454 4.43687 53.6937C4.42162 53.6753 4.40562 53.6577 4.3905 53.6391C2.77025 51.6454 1.87787 49.1297 1.87787 46.5553C1.87787 40.3573 6.92037 35.3148 13.1184 35.3148C19.3164 35.3148 24.3589 40.3573 24.3589 46.5553C24.3589 49.1573 23.4644 51.6529 21.8305 53.6551ZM29.9026 16.4647C30.5009 16.1619 30.5585 15.2539 30.0033 14.8782C29.1065 14.2316 28.5713 13.1874 28.5713 12.0853C28.5713 10.1877 30.1151 8.64393 32.0127 8.64393C33.9104 8.64393 35.4543 10.1877 35.4543 12.0853C35.4543 13.1874 34.919 14.2316 34.0223 14.8782C33.4669 15.2539 33.5246 16.1619 34.1229 16.4647C35.4719 17.1983 37.8662 18.8696 39.305 22.0169C37.3406 23.6954 34.7933 24.7106 32.013 24.7106C29.2326 24.7106 26.6854 23.6954 24.7209 22.0169C26.1594 18.8696 28.5537 17.1984 29.9026 16.4647ZM50.8816 57.7704C48.1012 57.7704 45.5539 56.7552 43.5895 55.0767C45.0283 51.9292 47.4226 50.2581 48.7715 49.5246C49.3698 49.2219 49.4275 48.3139 48.8721 47.9381C47.9754 47.2913 47.44 46.2472 47.44 45.1452C47.44 43.2476 48.9839 41.7037 50.8815 41.7037C52.7791 41.7037 54.323 43.2476 54.323 45.1452C54.323 46.2472 53.7876 47.2913 52.8909 47.9381C52.3355 48.3139 52.3934 49.2219 52.9915 49.5246C54.3404 50.2582 56.7347 51.9292 58.1735 55.0768C56.2093 56.7553 53.6619 57.7704 50.8816 57.7704Z" fill="#32c36c"/>
</svg>
