<svg width="56" height="58" viewBox="0 0 56 58" fill="none" xmlns="http://www.w3.org/2000/svg">
<path d="M28.3298 7.34644C27.1314 7.34644 26.0086 7.87861 25.2492 8.80586C24.9543 9.16665 25.0075 9.69839 25.3678 9.99326C25.7286 10.2881 26.2604 10.2354 26.5552 9.87461C26.9925 9.34023 27.6394 9.03393 28.3298 9.03393C29.0201 9.03393 29.667 9.34023 30.1043 9.87461C30.3996 10.2358 30.9313 10.2881 31.2917 9.99326C31.652 9.69839 31.7052 9.16665 31.4099 8.80586C30.6509 7.87817 29.5286 7.34644 28.3298 7.34644Z" fill="#32c36c"/>
<path d="M51.8472 29.3251L48.4836 28.0239V25.3938C48.4836 23.9322 47.2945 22.7435 45.8329 22.7435C44.3712 22.7435 43.1821 23.9322 43.1821 25.3938V25.9726L41.256 25.2272V22.8111C41.256 21.3495 40.0668 20.1604 38.6052 20.1604C37.1436 20.1604 35.9548 21.3495 35.9548 22.8111V23.1763L34.0287 22.431V18.2386C34.0287 17.7724 33.6508 17.3949 33.185 17.3949C32.7187 17.3949 32.3408 17.7724 32.3408 18.2386V51.7852C32.3408 52.3367 31.8921 52.7854 31.3406 52.7854H30.9807V46.7776C30.9807 45.3151 29.7796 44.0855 28.2534 44.129C26.8872 44.1659 25.6795 45.2641 25.6795 46.8286V52.7854H25.3192C24.7681 52.7854 24.3194 52.3367 24.3194 51.7852C24.3194 50.7291 24.3194 12.2722 24.3194 10.4906C24.3194 5.42065 26.4332 1.88745 28.3299 1.88745C30.227 1.88745 32.3408 5.42065 32.3408 10.4906V14.3007C32.3408 14.7669 32.7187 15.1444 33.1845 15.1444C33.6508 15.1444 34.0283 14.7669 34.0283 14.3007V10.4902C34.0287 4.72017 31.5256 0.199951 28.3303 0.199951C25.1351 0.199951 22.6319 4.72017 22.6319 10.4902V22.431L20.7058 23.1759V22.8107C20.7058 21.3495 19.5166 20.1599 18.055 20.1599C16.5934 20.1599 15.4042 21.3491 15.4042 22.8107V25.2272L13.4781 25.9726V25.3938C13.4781 23.9322 12.2894 22.743 10.8273 22.743C9.36572 22.743 8.17656 23.9322 8.17656 25.3938V28.0239L4.81387 29.3251V29.3256C2.37578 30.2687 0.800781 32.3697 0.800781 34.6777V35.7921C0.800781 36.8442 1.79878 37.6409 2.92905 37.5245L22.6319 35.4863V43.5529L17.7975 45.6025C16.8127 46.0204 16.1764 46.9815 16.1764 48.0507V50.5846C16.1764 51.4582 16.887 52.1684 17.7602 52.1684H22.6596C22.8464 53.4696 23.9679 54.4729 25.3196 54.4729H25.6795V55.1492C25.6795 56.6108 26.8687 57.7999 28.3303 57.7999C29.7919 57.7999 30.9811 56.6108 30.9811 55.1492V54.4729H31.341C32.6928 54.4729 33.8143 53.4696 34.001 52.1684H38.9005C39.7741 52.1684 40.4847 51.4582 40.4847 50.5846V48.0507C40.4847 46.9811 39.8484 46.02 38.8631 45.6025L34.0287 43.5529V35.4863L40.4364 36.149C40.8991 36.1969 41.3144 35.8603 41.3623 35.3966C41.4102 34.933 41.0736 34.5182 40.61 34.4707L34.0287 33.7896V24.2402L51.2381 30.8993C53.0206 31.5892 54.1724 33.0719 54.1724 34.6777V35.7719C54.1434 35.8049 54.044 35.8603 53.9056 35.8458L44.5475 34.8781C44.0847 34.8289 43.6694 35.1668 43.6215 35.6304C43.5736 36.094 43.9103 36.5084 44.3739 36.5563L53.732 37.5245C54.854 37.6418 55.8599 36.8495 55.8599 35.7921V34.6777C55.8599 32.3697 54.2849 30.2687 51.8472 29.3251ZM37.6423 22.8111C37.6423 22.2798 38.0743 21.8479 38.6056 21.8479C39.1365 21.8479 39.5689 22.2798 39.5689 22.8111V24.5742L37.6428 23.8289V22.8111H37.6423ZM17.0922 22.8111C17.0922 22.2798 17.5242 21.8479 18.055 21.8479C18.5863 21.8479 19.0183 22.2798 19.0183 22.8111V23.8289L17.0922 24.5742V22.8111ZM9.8645 25.3938C9.8645 24.8629 10.2965 24.431 10.8278 24.431C11.3586 24.431 11.7906 24.8629 11.7906 25.3938V26.6256L9.8645 27.3709V25.3938ZM2.75547 35.8458C2.61528 35.8603 2.51772 35.8049 2.48828 35.7719V34.6777C2.48828 33.0719 3.64009 31.5888 5.42251 30.8993L22.6319 24.2402V33.7896L2.75547 35.8458ZM17.8639 48.0507C17.8639 47.66 18.0963 47.3089 18.4562 47.1564L22.6319 45.3858V50.4809H17.8639V48.0507ZM29.2936 55.1492C29.2936 55.6805 28.8616 56.1124 28.3303 56.1124C27.7995 56.1124 27.367 55.6805 27.367 55.1492C27.367 54.1235 27.367 47.7444 27.367 46.8286C27.367 46.2902 27.7907 45.8042 28.3532 45.8156C28.8924 45.8288 29.2932 46.2718 29.2932 46.7776C29.2936 47.6517 29.2936 54.1916 29.2936 55.1492ZM38.2044 47.1564C38.5643 47.3089 38.7968 47.66 38.7968 48.0507V50.4809H34.0287V45.3858L38.2044 47.1564ZM44.87 25.3938C44.87 24.8629 45.302 24.431 45.8333 24.431C46.3642 24.431 46.7961 24.8629 46.7961 25.3938V27.3709L45.9541 27.0453L44.87 26.6256V25.3938Z" fill="#32c36c"/>
</svg>
