<svg width="58" height="58" viewBox="0 0 58 58" fill="none" xmlns="http://www.w3.org/2000/svg">
<path d="M46.87 29.8437H49.3786C49.7711 31.786 51.491 33.253 53.5472 33.253C55.8923 33.253 57.8002 31.3451 57.8002 29C57.8002 26.6548 55.8923 24.7469 53.5471 24.7469C51.4909 24.7469 49.771 26.2139 49.3784 28.1562H46.8699C46.6693 23.8584 44.9458 19.9519 42.227 16.9663L46.7455 12.4479C47.6349 13.0956 48.7285 13.4791 49.9106 13.4791C52.8824 13.4791 55.3 11.0614 55.3 8.08958C55.3 5.11778 52.8824 2.70015 49.9106 2.70015C46.9388 2.70015 44.5211 5.11789 44.5211 8.08958C44.5211 9.27161 44.9045 10.3652 45.5523 11.2547L41.0339 15.773C38.0482 13.0543 34.1418 11.3307 29.8439 11.1302V8.6217C31.7863 8.22919 33.2533 6.50929 33.2533 4.45301C33.2533 2.10784 31.3454 0.199951 29.0002 0.199951C26.655 0.199951 24.7471 2.10784 24.7471 4.45301C24.7471 6.50929 26.2141 8.22919 28.1564 8.6217V11.1301C23.8586 11.3307 19.9522 13.0542 16.9665 15.7729L12.4484 11.2549C13.0962 10.3653 13.4797 9.27161 13.4797 8.08958C13.4797 6.29498 12.5908 4.62379 11.102 3.61916C10.7155 3.35861 10.1911 3.46031 9.93066 3.84664C9.66999 4.23296 9.77181 4.75733 10.158 5.01799C11.1813 5.7084 11.7921 6.85669 11.7921 8.08958C11.7921 10.131 10.1311 11.792 8.08971 11.792C6.04828 11.792 4.38745 10.131 4.38745 8.08958C4.38745 6.441 5.49388 4.97569 7.07811 4.52625C7.52642 4.39901 7.78675 3.93248 7.65951 3.48416C7.53227 3.03585 7.06551 2.77586 6.61753 2.90276C4.31083 3.55729 2.69995 5.69018 2.69995 8.08958C2.69995 11.0616 5.11779 13.4795 8.08982 13.4795C9.27197 13.4795 10.3657 13.0959 11.2551 12.4482L15.7732 16.9662C13.0544 19.9518 11.3309 23.8582 11.1304 28.1561H8.62195C8.22943 26.2138 6.50953 24.7468 4.45326 24.7468C2.10808 24.7469 0.200195 26.6548 0.200195 29C0.200195 31.3451 2.10808 33.253 4.45326 33.253C6.50953 33.253 8.22943 31.786 8.62195 29.8437H11.1305C11.3311 34.1415 13.0546 38.048 15.7733 41.0336L11.2549 45.552C10.3655 44.9043 9.27186 44.5208 8.08982 44.5208C5.11802 44.5208 2.7004 46.9385 2.7004 49.9103C2.7004 52.8821 5.11802 55.2998 8.08982 55.2998C11.0616 55.2998 13.4792 52.882 13.4792 49.9103C13.4792 48.7283 13.0958 47.6347 12.4481 46.7453L16.9665 42.2269C19.9522 44.9456 23.8586 46.6692 28.1564 46.8697V49.3781C26.2141 49.7706 24.7471 51.4905 24.7471 53.5468C24.7471 55.8921 26.655 57.7999 29.0002 57.7999C31.3454 57.7999 33.2533 55.8921 33.2533 53.5469C33.2533 51.4906 31.7863 49.7707 29.8439 49.3782V46.8698C34.1418 46.6692 38.0482 44.9457 41.0339 42.227L45.552 46.745C44.9042 47.6346 44.5207 48.7283 44.5207 49.9103C44.5207 52.8822 46.9385 55.3002 49.9106 55.3002C52.8826 55.3002 55.3004 52.8824 55.3004 49.9103C55.3004 49.3269 55.2075 48.7524 55.0243 48.2023C54.8768 47.7603 54.3988 47.5214 53.9571 47.6687C53.515 47.816 53.276 48.2938 53.4234 48.7359C53.5492 49.1134 53.6131 49.5086 53.6131 49.9102C53.6131 51.9516 51.9521 53.6126 49.9107 53.6126C47.8693 53.6126 46.2083 51.9517 46.2083 49.9102C46.2083 47.8687 47.8693 46.2078 49.9107 46.2078C50.3779 46.2078 50.8335 46.2938 51.2648 46.4633C51.6981 46.6338 52.1882 46.4204 52.3588 45.9867C52.5292 45.553 52.3158 45.0633 51.8821 44.8927C51.2534 44.6457 50.5902 44.5203 49.9108 44.5203C48.7286 44.5203 47.6349 44.9039 46.7455 45.5516L42.2274 41.0336C44.9458 38.048 46.6694 34.1415 46.87 29.8437ZM53.5471 26.4344C54.9618 26.4344 56.1127 27.5853 56.1127 29C56.1127 30.4146 54.9618 31.5655 53.5471 31.5655C52.1324 31.5655 50.9816 30.4146 50.9816 29C50.9816 27.5853 52.1326 26.4344 53.5471 26.4344ZM49.9106 4.38765C51.9519 4.38765 53.6125 6.04838 53.6125 8.08958C53.6125 10.1309 51.9518 11.7916 49.9106 11.7916C47.8694 11.7916 46.2086 10.1309 46.2086 8.08958C46.2086 6.04826 47.8694 4.38765 49.9106 4.38765ZM26.4346 4.45301C26.4346 3.03833 27.5856 1.88745 29.0002 1.88745C30.4148 1.88745 31.5658 3.03833 31.5658 4.45301C31.5658 5.8677 30.4148 7.01858 29.0002 7.01858C27.5856 7.01858 26.4346 5.86759 26.4346 4.45301ZM4.45326 31.5655C3.03857 31.5655 1.8877 30.4146 1.8877 29C1.8877 27.5853 3.03857 26.4344 4.45326 26.4344C5.86795 26.4344 7.01871 27.5853 7.01871 29C7.01871 30.4146 5.86783 31.5655 4.45326 31.5655ZM29.0002 12.7973C37.9344 12.7973 45.2029 20.0658 45.2029 29C45.2029 37.9341 37.9344 45.2026 29.0002 45.2026C20.066 45.2026 12.7975 37.9342 12.7975 29C12.7975 20.0657 20.066 12.7973 29.0002 12.7973ZM8.08982 53.6123C6.04851 53.6123 4.3879 51.9515 4.3879 49.9103C4.3879 47.869 6.04862 46.2083 8.08982 46.2083C10.131 46.2083 11.7917 47.869 11.7917 49.9103C11.7917 51.9516 10.131 53.6123 8.08982 53.6123ZM31.5658 53.5469C31.5658 54.9616 30.4148 56.1124 29.0002 56.1124C27.5856 56.1124 26.4346 54.9616 26.4346 53.5469C26.4346 52.1322 27.5856 50.9813 29.0002 50.9813C30.4148 50.9813 31.5658 52.1323 31.5658 53.5469Z" fill="#32c36c"/>
<path d="M19.4549 39.3894H24.2198C24.2224 39.3894 24.2249 39.3898 24.2274 39.3898C24.23 39.3898 24.2325 39.3894 24.2351 39.3894H27.0317C27.4978 39.3894 27.8755 39.0116 27.8755 38.5457C27.8755 38.0797 27.4978 37.7019 27.0317 37.7019H25.0712V36.2732C25.0712 35.8072 24.6935 35.4294 24.2274 35.4294C23.7614 35.4294 23.3837 35.8072 23.3837 36.2732V37.7019H20.2986V33.5462C20.2986 31.5047 21.959 29.8438 23.9997 29.8438H34.001C36.0419 29.8438 37.7021 31.5047 37.7021 33.5462V37.7019H34.617V36.2732C34.617 35.8072 34.2394 35.4294 33.7733 35.4294C33.3072 35.4294 32.9295 35.8072 32.9295 36.2732V37.7019H30.9692C30.5031 37.7019 30.1255 38.0797 30.1255 38.5457C30.1255 39.0116 30.5031 39.3894 30.9692 39.3894H33.7659C33.7685 39.3894 33.7709 39.3898 33.7735 39.3898C33.7761 39.3898 33.7786 39.3894 33.7812 39.3894H38.5461C39.0122 39.3894 39.3899 39.0116 39.3899 38.5457V33.5462C39.3899 30.5741 36.9726 28.1563 34.0012 28.1563H33.3748C34.6953 26.9613 35.5265 25.2349 35.5265 23.3179C35.5265 19.7195 32.599 16.792 29.0006 16.792C25.4022 16.792 22.4747 19.7195 22.4747 23.3179C22.4747 25.2349 23.3058 26.9613 24.6264 28.1563H24C21.0286 28.1563 18.6113 30.5741 18.6113 33.5462V38.5457C18.6111 39.0116 18.9889 39.3894 19.4549 39.3894ZM24.1621 23.3179C24.1621 20.6501 26.3325 18.4795 29.0005 18.4795C31.6684 18.4795 33.8389 20.65 33.8389 23.3179C33.8389 25.9858 31.6684 28.1563 29.0005 28.1563C26.3325 28.1563 24.1621 25.9858 24.1621 23.3179Z" fill="#32c36c"/>
</svg>
