<svg width="40" height="40" viewBox="0 0 40 40" fill="none" xmlns="http://www.w3.org/2000/svg">
<path d="M19.9994 4.66675C16.9667 4.66675 14.0022 5.56603 11.4806 7.25088C8.95906 8.93573 6.99375 11.3305 5.8332 14.1323C4.67266 16.9341 4.36901 20.0171 4.96065 22.9915C5.55229 25.9659 7.01265 28.698 9.15705 30.8424C11.3015 32.9868 14.0336 34.4472 17.008 35.0388C19.9823 35.6304 23.0654 35.3268 25.8672 34.1662C28.669 33.0057 31.0637 31.0404 32.7486 28.5188C34.4334 25.9973 35.3327 23.0327 35.3327 20.0001C35.3283 15.9348 33.7114 12.0373 30.8368 9.16265C27.9622 6.28805 24.0646 4.67116 19.9994 4.66675ZM19.9994 34.0001C17.2304 34.0001 14.5237 33.179 12.2214 31.6407C9.91908 30.1023 8.12467 27.9158 7.06504 25.3577C6.00542 22.7995 5.72817 19.9846 6.26836 17.2688C6.80855 14.5531 8.14193 12.0585 10.0999 10.1006C12.0578 8.14265 14.5524 6.80928 17.2681 6.26909C19.9838 5.72889 22.7988 6.00614 25.3569 7.06577C27.9151 8.1254 30.1016 9.91981 31.6399 12.2221C33.1783 14.5244 33.9993 17.2311 33.9993 20.0001C33.9951 23.7118 32.5188 27.2703 29.8942 29.8949C27.2696 32.5195 23.7111 33.9959 19.9994 34.0001Z" fill="#FFF"/>
<path d="M20.0007 15.3333C19.0777 15.3333 18.1754 15.6069 17.408 16.1197C16.6406 16.6325 16.0424 17.3613 15.6892 18.2141C15.336 19.0668 15.2436 20.0051 15.4237 20.9103C15.6037 21.8156 16.0482 22.6471 16.7008 23.2997C17.3535 23.9524 18.185 24.3968 19.0902 24.5769C19.9955 24.757 20.9338 24.6646 21.7865 24.3113C22.6392 23.9581 23.3681 23.36 23.8808 22.5926C24.3936 21.8251 24.6673 20.9229 24.6673 19.9999C24.6657 18.7627 24.1736 17.5767 23.2987 16.7018C22.4239 15.827 21.2378 15.3348 20.0007 15.3333ZM20.0007 23.3332C19.3414 23.3332 18.6969 23.1378 18.1488 22.7715C17.6006 22.4052 17.1733 21.8846 16.9211 21.2755C16.6688 20.6664 16.6028 19.9962 16.7314 19.3496C16.86 18.703 17.1775 18.1091 17.6436 17.6429C18.1098 17.1767 18.7037 16.8593 19.3504 16.7306C19.997 16.602 20.6672 16.668 21.2763 16.9203C21.8854 17.1726 22.4059 17.5999 22.7722 18.148C23.1385 18.6962 23.334 19.3406 23.334 19.9999C23.3329 20.8836 22.9814 21.7309 22.3565 22.3558C21.7316 22.9807 20.8844 23.3322 20.0007 23.3332Z" fill="#FFF"/>
<path d="M38.6667 17.3333H37.8C37.7727 17.1527 37.7407 16.9527 37.71 16.768L38.874 15.368C39.0187 15.1949 39.117 14.9877 39.1594 14.7661C39.2019 14.5445 39.1872 14.3157 39.1167 14.1013L38.6127 12.5487C38.5586 12.3821 38.4722 12.2278 38.3584 12.0946C38.2446 11.9614 38.1058 11.852 37.9497 11.7725C37.7936 11.693 37.6234 11.645 37.4488 11.6313C37.2742 11.6176 37.0986 11.6385 36.932 11.6927L36.098 11.964L35.8413 11.46L36.5187 9.76134C36.6027 9.55229 36.6322 9.3253 36.6043 9.10173C36.5764 8.87816 36.4921 8.66535 36.3593 8.48334L35.4 7.16467C35.297 7.02311 35.167 6.90322 35.0177 6.81187C34.8683 6.72051 34.7024 6.65947 34.5294 6.63223C34.3564 6.60499 34.1798 6.61209 34.0096 6.65312C33.8394 6.69414 33.6789 6.76829 33.5373 6.87134L32.828 7.38601L32.428 6.98601L32.5473 5.16134C32.5626 4.9364 32.5204 4.71128 32.4247 4.50717C32.3289 4.30306 32.1828 4.12669 32 3.99467L30.68 3.03667C30.5381 2.93339 30.3773 2.85912 30.2067 2.81812C30.0361 2.77712 29.859 2.77021 29.6857 2.79777C29.5124 2.82533 29.3463 2.88682 29.1968 2.97873C29.0473 3.07063 28.9175 3.19114 28.8147 3.33334L28.2987 4.04401L27.7947 3.78667L27.3453 2.01534C27.2912 1.79618 27.1822 1.59443 27.0284 1.42914C26.8747 1.26385 26.6813 1.14048 26.4667 1.07067L24.9127 0.567341C24.7461 0.513146 24.5705 0.492299 24.3959 0.50599C24.2213 0.519682 24.0511 0.567644 23.895 0.647137C23.7389 0.72663 23.6 0.836095 23.4863 0.969279C23.3725 1.10246 23.2861 1.25675 23.232 1.42334L22.9653 2.24934C22.7653 2.21667 22.56 2.18667 22.4013 2.16334L21.4273 0.624007C21.3079 0.432456 21.1416 0.274586 20.9441 0.165378C20.7465 0.0561698 20.5244 -0.000754068 20.2987 7.54312e-06H18.6667C18.313 7.54312e-06 17.9739 0.140483 17.7239 0.390532C17.4738 0.64058 17.3333 0.979719 17.3333 1.33334V2.20334C17.1527 2.23067 16.9527 2.26267 16.768 2.29334L15.368 1.12867C15.1948 0.983998 14.9877 0.885852 14.766 0.843509C14.5444 0.801165 14.3156 0.816021 14.1013 0.886674L12.5487 1.39067C12.3821 1.44478 12.2278 1.53118 12.0946 1.64494C11.9614 1.7587 11.852 1.89758 11.7725 2.05366C11.693 2.20973 11.645 2.37994 11.6313 2.55456C11.6176 2.72918 11.6385 2.90478 11.6927 3.07134L11.964 3.90534L11.46 4.16201L9.76534 3.48534C9.55623 3.40066 9.32896 3.37078 9.10507 3.39855C8.88118 3.42632 8.66809 3.51081 8.486 3.64401L7.16467 4.60334C7.02311 4.70638 6.90322 4.8363 6.81187 4.98568C6.72051 5.13505 6.65947 5.30096 6.63223 5.47392C6.60499 5.64689 6.61209 5.82352 6.65312 5.99374C6.69414 6.16397 6.76829 6.32444 6.87134 6.46601L7.38601 7.17534L6.98601 7.57534L5.16134 7.45601C4.93653 7.44113 4.71161 7.48347 4.50759 7.57907C4.30358 7.67467 4.12711 7.8204 3.99467 8.00267L3.03667 9.32267C2.9338 9.46444 2.85987 9.62508 2.8191 9.79543C2.77834 9.96578 2.77153 10.1425 2.79908 10.3155C2.82663 10.4884 2.888 10.6543 2.97967 10.8036C3.07134 10.9528 3.19152 11.0825 3.33334 11.1853L4.04401 11.7013L3.78667 12.2053L2.01534 12.6547C1.79618 12.7088 1.59443 12.8178 1.42914 12.9716C1.26385 13.1253 1.14048 13.3187 1.07067 13.5333L0.567341 15.0873C0.513146 15.2539 0.492299 15.4295 0.50599 15.6041C0.519682 15.7787 0.567644 15.9489 0.647137 16.105C0.72663 16.2611 0.836095 16.4 0.969279 16.5137C1.10246 16.6275 1.25675 16.7139 1.42334 16.768L2.24934 17.0347C2.21667 17.2347 2.18667 17.44 2.16334 17.5987L0.624007 18.5727C0.432456 18.6921 0.274586 18.8584 0.165378 19.0559C0.0561698 19.2535 -0.000754068 19.4756 7.54312e-06 19.7013V21.3333C7.54312e-06 21.687 0.140483 22.0261 0.390532 22.2761C0.64058 22.5262 0.979719 22.6667 1.33334 22.6667H2.20334C2.23067 22.8473 2.26201 23.0473 2.29334 23.232L1.12867 24.632C0.983942 24.8051 0.88576 25.0123 0.843414 25.2339C0.801069 25.4556 0.815958 25.6844 0.886674 25.8987L1.39067 27.4513C1.50086 27.7871 1.73949 28.0657 2.05441 28.2261C2.36933 28.3865 2.73494 28.4157 3.07134 28.3073L3.90534 28.036L4.16201 28.54L3.48467 30.236C3.40064 30.445 3.37117 30.672 3.39905 30.8956C3.42692 31.1192 3.51122 31.332 3.64401 31.514L4.60334 32.8353C4.70638 32.9769 4.8363 33.0968 4.98568 33.1881C5.13505 33.2795 5.30096 33.3405 5.47392 33.3678C5.64689 33.395 5.82352 33.3879 5.99374 33.3469C6.16397 33.3059 6.32444 33.2317 6.46601 33.1287L7.17534 32.614L7.57534 33.014L7.45601 34.8387C7.44063 35.0635 7.48274 35.2886 7.57838 35.4927C7.67402 35.6968 7.82003 35.8732 8.00267 36.0053L9.32267 36.9633C9.46444 37.0662 9.62508 37.1401 9.79543 37.1809C9.96578 37.2217 10.1425 37.2285 10.3155 37.2009C10.4884 37.1734 10.6543 37.112 10.8036 37.0203C10.9528 36.9287 11.0825 36.8085 11.1853 36.6667L11.7013 35.956L12.2053 36.2133L12.6547 37.9847C12.7088 38.2038 12.8178 38.4056 12.9716 38.5709C13.1253 38.7362 13.3187 38.8595 13.5333 38.9293L15.0847 39.4327C15.2512 39.4869 15.4268 39.5077 15.6014 39.494C15.7761 39.4803 15.9463 39.4324 16.1024 39.3529C16.2584 39.2734 16.3973 39.1639 16.5111 39.0307C16.6248 38.8975 16.7112 38.7432 16.7653 38.5767L17.032 37.7507C17.232 37.7833 17.4373 37.8133 17.596 37.8367L18.568 39.376C18.6878 39.5682 18.8549 39.7265 19.0533 39.8358C19.2517 39.945 19.4748 40.0016 19.7013 40H21.3333C21.687 40 22.0261 39.8595 22.2761 39.6095C22.5262 39.3594 22.6667 39.0203 22.6667 38.6667V37.8C22.8473 37.7727 23.0473 37.7407 23.232 37.71L24.632 38.8747C24.8052 39.0192 25.0124 39.1173 25.234 39.1596C25.4556 39.202 25.6844 39.1872 25.8987 39.1167L27.4513 38.6127C27.6179 38.5586 27.7722 38.4722 27.9054 38.3584C28.0386 38.2446 28.148 38.1058 28.2275 37.9497C28.307 37.7936 28.355 37.6234 28.3687 37.4488C28.3824 37.2742 28.3615 37.0986 28.3073 36.932L28.036 36.098L28.54 35.8413L30.2387 36.5187C30.4476 36.6031 30.6747 36.6328 30.8984 36.605C31.122 36.5771 31.3348 36.4925 31.5167 36.3593L32.8353 35.4C32.9769 35.297 33.0968 35.167 33.1881 35.0177C33.2795 34.8683 33.3405 34.7024 33.3678 34.5294C33.395 34.3564 33.3879 34.1798 33.3469 34.0096C33.3059 33.8394 33.2317 33.6789 33.1287 33.5373L32.614 32.828L33.014 32.428L34.8387 32.5473C35.0635 32.5622 35.2884 32.5199 35.4924 32.4243C35.6964 32.3287 35.8729 32.1829 36.0053 32.0007L36.9633 30.6807C37.0667 30.5388 37.1411 30.3779 37.1821 30.2072C37.2232 30.0365 37.2301 29.8594 37.2026 29.686C37.175 29.5127 37.1135 29.3464 37.0215 29.1969C36.9295 29.0474 36.809 28.9175 36.6667 28.8147L35.956 28.2987L36.2133 27.7947L37.9847 27.3453C38.2038 27.2912 38.4056 27.1822 38.5709 27.0284C38.7362 26.8747 38.8595 26.6813 38.9293 26.4667L39.4327 24.9153C39.4869 24.7488 39.5077 24.5732 39.494 24.3986C39.4803 24.2239 39.4324 24.0537 39.3529 23.8977C39.2734 23.7416 39.1639 23.6027 39.0307 23.4889C38.8975 23.3752 38.7432 23.2888 38.5767 23.2347L37.7507 22.968C37.7833 22.768 37.8133 22.5627 37.8367 22.404L39.376 21.432C39.5682 21.3122 39.7265 21.1451 39.8358 20.9467C39.945 20.7483 40.0016 20.5252 40 20.2987V18.6667C40 18.313 39.8595 17.9739 39.6095 17.7239C39.3594 17.4738 39.0203 17.3333 38.6667 17.3333ZM38.6667 20.2987L36.8667 21.436C36.7846 21.4879 36.7149 21.5571 36.6624 21.6387C36.6099 21.7204 36.5759 21.8125 36.5627 21.9087C36.5627 21.912 36.436 22.8267 36.3427 23.2933C36.3103 23.4574 36.3409 23.6276 36.4282 23.7703C36.5155 23.9129 36.6532 24.0175 36.814 24.0633L36.85 24.072L38.1673 24.5007L37.6633 26.0527L35.5967 26.5773C35.5047 26.6007 35.4187 26.6434 35.3446 26.7026C35.2704 26.7618 35.2098 26.8361 35.1667 26.9207L34.5133 28.2C34.441 28.3412 34.4215 28.5035 34.4581 28.6579C34.4948 28.8122 34.5853 28.9484 34.7133 29.042L35.8833 29.892L34.9247 31.212L32.798 31.0727C32.7035 31.0681 32.6091 31.083 32.5206 31.1163C32.432 31.1497 32.3513 31.2009 32.2833 31.2667L31.2667 32.2847C31.1537 32.3973 31.0849 32.5466 31.0727 32.7056C31.0604 32.8647 31.1056 33.0228 31.2 33.1513L32.05 34.3213L30.7333 35.2773L28.754 34.4873C28.6659 34.452 28.5713 34.4361 28.4765 34.4406C28.3817 34.4451 28.289 34.4699 28.2047 34.5133L26.924 35.1653C26.7822 35.2371 26.6707 35.3571 26.6096 35.5038C26.5485 35.6505 26.5418 35.8141 26.5907 35.9653L27.038 37.3413L25.4853 37.846L23.9113 36.5367C23.8341 36.4536 23.7369 36.3917 23.6289 36.3567C23.521 36.3217 23.406 36.3148 23.2947 36.3367C22.828 36.43 21.9133 36.556 21.91 36.5567C21.7506 36.5787 21.6045 36.6577 21.4988 36.779C21.3931 36.9003 21.3348 37.0557 21.3347 37.2167V38.6667H19.7013L18.564 36.8667C18.5121 36.7846 18.4429 36.7149 18.3613 36.6624C18.2796 36.6099 18.1875 36.5759 18.0913 36.5627C18.0913 36.5627 17.1733 36.436 16.7067 36.3427C16.6628 36.3335 16.6181 36.329 16.5733 36.3293C16.4287 36.3299 16.2882 36.3775 16.173 36.4649C16.0578 36.5524 15.9741 36.6749 15.9347 36.814C15.9313 36.8253 15.9287 36.838 15.926 36.85L15.4973 38.1673L13.9453 37.6633L13.4207 35.5967C13.3973 35.5047 13.3546 35.4187 13.2954 35.3446C13.2362 35.2704 13.1619 35.2098 13.0773 35.1667L11.8 34.5133C11.6588 34.441 11.4965 34.4215 11.3421 34.4581C11.1878 34.4948 11.0516 34.5853 10.958 34.7133L10.1067 35.8847L8.78667 34.926L8.926 32.7993C8.93214 32.7047 8.91801 32.6098 8.88455 32.5211C8.8511 32.4323 8.79909 32.3517 8.732 32.2847L7.71534 31.2667C7.60293 31.1546 7.45423 31.0863 7.29597 31.0741C7.13771 31.0619 6.98028 31.1065 6.85201 31.2L5.68201 32.0507L4.72267 30.7333L5.51267 28.754C5.54836 28.6652 5.5645 28.5698 5.56002 28.4742C5.55553 28.3786 5.53052 28.2851 5.48667 28.2L4.83467 26.9193C4.76293 26.7775 4.64291 26.666 4.49623 26.6049C4.34955 26.5438 4.18586 26.5371 4.03467 26.586L2.65867 27.0333L2.15401 25.4807L3.46067 23.9093C3.54436 23.8321 3.60673 23.7346 3.64177 23.6262C3.6768 23.5178 3.68331 23.4023 3.66067 23.2907C3.56734 22.824 3.44134 21.9087 3.44067 21.9053C3.41788 21.7464 3.3385 21.6011 3.21713 21.496C3.09576 21.3909 2.94055 21.3332 2.78001 21.3333H1.33334V19.7013L3.13334 18.564C3.21537 18.5121 3.28507 18.4429 3.33758 18.3613C3.39009 18.2796 3.42413 18.1875 3.43734 18.0913C3.43734 18.0913 3.56401 17.1727 3.65734 16.706C3.69001 16.5403 3.65856 16.3683 3.56933 16.2249C3.48011 16.0815 3.33977 15.9773 3.17667 15.9333C3.16801 15.9333 3.15867 15.9293 3.15001 15.9273L1.83534 15.4993L2.33934 13.9473L4.40601 13.4227C4.49799 13.3993 4.58393 13.3566 4.65808 13.2974C4.73224 13.2382 4.7929 13.1639 4.83601 13.0793L5.48667 11.8C5.55896 11.6588 5.57853 11.4965 5.54187 11.3421C5.50521 11.1878 5.41473 11.0516 5.28667 10.958L4.11534 10.1067L5.07401 8.78667L7.20067 8.926C7.29528 8.93171 7.39003 8.91738 7.47872 8.88395C7.56741 8.85052 7.64804 8.79874 7.71534 8.732L8.73334 7.71534C8.84541 7.60293 8.91369 7.45423 8.92591 7.29597C8.93814 7.13771 8.89349 6.98028 8.8 6.85201L7.94934 5.68134L9.27 4.72267L11.2493 5.51267C11.3377 5.54786 11.4325 5.56374 11.5275 5.55926C11.6225 5.55477 11.7154 5.53002 11.8 5.48667L13.0807 4.83467C13.2225 4.76293 13.334 4.64291 13.3951 4.49623C13.4562 4.34955 13.4629 4.18586 13.414 4.03467L12.9667 2.65867L14.5193 2.15401L16.09 3.46667C16.1673 3.5496 16.2646 3.61126 16.3726 3.6457C16.4806 3.68014 16.5956 3.68622 16.7067 3.66334C17.1733 3.57001 18.088 3.44401 18.0913 3.44334C18.2513 3.42122 18.3978 3.34177 18.5036 3.21977C18.6094 3.09777 18.6674 2.9415 18.6667 2.78001V1.33334H20.2987L21.436 3.13334C21.4879 3.21537 21.5571 3.28507 21.6387 3.33758C21.7204 3.39009 21.8125 3.42413 21.9087 3.43734C21.912 3.43734 22.8267 3.56401 23.2933 3.65734C23.4576 3.69201 23.629 3.66287 23.7726 3.57583C23.9162 3.48879 24.0214 3.35038 24.0667 3.18867C24.07 3.17734 24.0727 3.16467 24.0753 3.15267L24.504 1.83534L26.056 2.33934L26.5807 4.40601C26.604 4.49799 26.6467 4.58393 26.7059 4.65808C26.7651 4.73224 26.8395 4.7929 26.924 4.83601L28.2 5.48667C28.3412 5.55896 28.5035 5.57853 28.6579 5.54187C28.8122 5.50521 28.9484 5.41473 29.042 5.28667L29.8933 4.11534L31.2133 5.07401L31.074 7.20067C31.0679 7.29532 31.082 7.39019 31.1154 7.47894C31.1489 7.5677 31.2009 7.64829 31.268 7.71534L32.2847 8.73334C32.3973 8.84628 32.5466 8.91511 32.7056 8.92734C32.8647 8.93957 33.0228 8.89439 33.1513 8.8L34.3213 7.95001L35.2807 9.27067L34.4907 11.25C34.4557 11.3382 34.4399 11.4327 34.4444 11.5275C34.4489 11.6222 34.4735 11.7149 34.5167 11.7993L35.1687 13.08C35.2404 13.2218 35.3604 13.3333 35.5071 13.3944C35.6538 13.4555 35.8175 13.4622 35.9687 13.4133L37.3447 12.966L37.8493 14.518L36.54 16.0933C36.4571 16.1705 36.3952 16.2676 36.3602 16.3754C36.3252 16.4832 36.3182 16.5981 36.34 16.7093C36.4333 17.176 36.5593 18.0907 36.56 18.094C36.582 18.2534 36.661 18.3995 36.7823 18.5052C36.9036 18.6109 37.0591 18.6692 37.22 18.6693H38.6667V20.2987Z" fill="#FFF"/>
</svg>
