<svg xmlns="http://www.w3.org/2000/svg" xmlns:xlink="http://www.w3.org/1999/xlink">
    <symbol id="icon-1" viewBox="0 0 40 40">
        <mask id="path-1-outside-1_334_516" maskUnits="userSpaceOnUse" x="-1" y="-1" width="42" height="42" fill="black">
        <rect fill="white" x="-1" y="-1" width="42" height="42"/>
        <path d="M20 7.15602C12.918 7.15602 7.15617 12.9177 7.15617 20C7.15617 27.082 12.918 32.8438 20 32.8438C27.082 32.8438 32.8438 27.082 32.8438 20C32.8438 12.9177 27.082 7.15602 20 7.15602ZM20 31.7627C13.5138 31.7627 8.23727 26.4861 8.23727 20C8.23727 13.5139 13.5138 8.23711 20 8.23711C26.4862 8.23711 31.7627 13.5138 31.7627 20C31.7627 26.4862 26.4862 31.7627 20 31.7627ZM39.6537 17.5509L36.6702 16.4026C36.238 14.3886 35.4523 12.4924 34.3307 10.7582L35.6293 7.83453C35.7201 7.63023 35.6754 7.39094 35.5174 7.23297L32.7672 4.48273C32.6088 4.32438 32.3691 4.28039 32.1658 4.37102L29.2407 5.67008C27.5068 4.54867 25.6114 3.76273 23.5981 3.33055L22.449 0.346484C22.3687 0.137812 22.1681 0 21.9447 0H18.0553C17.8319 0 17.6313 0.137812 17.551 0.346484L16.402 3.33055C14.3891 3.76273 12.4933 4.54852 10.7591 5.67008L7.8343 4.37102C7.63086 4.28039 7.39086 4.32438 7.23289 4.48273L4.48266 7.23305C4.32461 7.39109 4.27992 7.63039 4.37078 7.83461L5.66969 10.7588C4.54812 12.4932 3.76234 14.389 3.33016 16.4023L0.34625 17.5507C0.137578 17.6313 0 17.8316 0 18.0553V21.9447C0 22.1681 0.137578 22.3687 0.34625 22.449L3.32977 23.5977C3.76195 25.6113 4.54773 27.5074 5.66961 29.2416L4.3707 32.1653C4.27992 32.3698 4.32461 32.6091 4.48258 32.7671L7.23281 35.5173C7.39086 35.6754 7.62977 35.7197 7.83461 35.6292L10.759 34.3299C12.4939 35.4518 14.3893 36.2377 16.402 36.6695L17.5509 39.6537C17.6312 39.8623 17.8318 39.9999 18.0552 39.9999H21.9446C22.168 39.9999 22.3687 39.8623 22.4489 39.6537L23.5976 36.6702C25.6113 36.238 27.5073 35.4522 29.2416 34.3303L32.1652 35.6292C32.3694 35.7197 32.6087 35.6753 32.767 35.5173L35.5173 32.7671C35.6753 32.6091 35.72 32.3698 35.6291 32.1653L34.3298 29.2405C35.4517 27.5063 36.2372 25.6109 36.6694 23.598L39.6536 22.449C39.8623 22.3687 39.9998 22.1681 39.9998 21.9447V18.0553C40 17.8316 39.8624 17.6313 39.6537 17.5509ZM38.9189 21.5734L36.0051 22.6953C35.8316 22.7618 35.7049 22.9131 35.669 23.0955C35.2608 25.1742 34.4527 27.1231 33.2675 28.8887C33.1641 29.0428 33.1468 29.2391 33.2221 29.4091L34.4904 32.2653L32.2652 34.4905L29.4102 33.2225C29.2409 33.1476 29.0438 33.1641 28.8897 33.2679C27.1241 34.4535 25.1748 35.2615 23.0951 35.6701C22.9128 35.7059 22.7615 35.8327 22.6949 36.0062L21.5734 38.919H18.4266L17.3047 36.0052C17.2382 35.8316 17.0869 35.705 16.9045 35.6691C14.8261 35.2609 12.8769 34.4528 11.1109 33.2676C10.9568 33.1637 10.7598 33.1472 10.5905 33.2222L7.73469 34.4905L5.50953 32.2653L6.7775 29.4102C6.85281 29.2406 6.83555 29.0439 6.73211 28.8898C5.54648 27.1242 4.73852 25.1749 4.32992 23.0952C4.29406 22.9129 4.16734 22.7616 3.99383 22.695L1.08109 21.5734V18.4264L3.99461 17.305C4.16813 17.2381 4.29477 17.087 4.3307 16.9047C4.73891 14.8255 5.54695 12.8762 6.7325 11.1109C6.83594 10.9566 6.8532 10.7599 6.77789 10.5901L5.50961 7.73508L7.73477 5.50961L10.5902 6.77789C10.7602 6.85375 10.957 6.83664 11.1111 6.73266C12.8766 5.54742 14.8259 4.73922 16.9047 4.33086C17.087 4.29516 17.2383 4.16812 17.3048 3.99477L18.4267 1.08109H21.5735L22.6954 3.99477C22.7619 4.16805 22.9132 4.29516 23.0955 4.33086C25.1747 4.73945 27.1239 5.54758 28.8888 6.73266C29.0429 6.83664 29.2403 6.85375 29.4092 6.77789L32.2654 5.50961L34.4905 7.73492L33.2226 10.5895C33.1473 10.7592 33.1645 10.9559 33.268 11.1103C34.4532 12.8753 35.2616 14.8252 35.6702 16.9049C35.706 17.0872 35.8327 17.2384 36.0062 17.3052L38.9191 18.4264L38.9189 21.5734Z"/>
        </mask>
        <path d="M20 7.15602C12.918 7.15602 7.15617 12.9177 7.15617 20C7.15617 27.082 12.918 32.8438 20 32.8438C27.082 32.8438 32.8438 27.082 32.8438 20C32.8438 12.9177 27.082 7.15602 20 7.15602ZM20 31.7627C13.5138 31.7627 8.23727 26.4861 8.23727 20C8.23727 13.5139 13.5138 8.23711 20 8.23711C26.4862 8.23711 31.7627 13.5138 31.7627 20C31.7627 26.4862 26.4862 31.7627 20 31.7627ZM39.6537 17.5509L36.6702 16.4026C36.238 14.3886 35.4523 12.4924 34.3307 10.7582L35.6293 7.83453C35.7201 7.63023 35.6754 7.39094 35.5174 7.23297L32.7672 4.48273C32.6088 4.32438 32.3691 4.28039 32.1658 4.37102L29.2407 5.67008C27.5068 4.54867 25.6114 3.76273 23.5981 3.33055L22.449 0.346484C22.3687 0.137812 22.1681 0 21.9447 0H18.0553C17.8319 0 17.6313 0.137812 17.551 0.346484L16.402 3.33055C14.3891 3.76273 12.4933 4.54852 10.7591 5.67008L7.8343 4.37102C7.63086 4.28039 7.39086 4.32438 7.23289 4.48273L4.48266 7.23305C4.32461 7.39109 4.27992 7.63039 4.37078 7.83461L5.66969 10.7588C4.54812 12.4932 3.76234 14.389 3.33016 16.4023L0.34625 17.5507C0.137578 17.6313 0 17.8316 0 18.0553V21.9447C0 22.1681 0.137578 22.3687 0.34625 22.449L3.32977 23.5977C3.76195 25.6113 4.54773 27.5074 5.66961 29.2416L4.3707 32.1653C4.27992 32.3698 4.32461 32.6091 4.48258 32.7671L7.23281 35.5173C7.39086 35.6754 7.62977 35.7197 7.83461 35.6292L10.759 34.3299C12.4939 35.4518 14.3893 36.2377 16.402 36.6695L17.5509 39.6537C17.6312 39.8623 17.8318 39.9999 18.0552 39.9999H21.9446C22.168 39.9999 22.3687 39.8623 22.4489 39.6537L23.5976 36.6702C25.6113 36.238 27.5073 35.4522 29.2416 34.3303L32.1652 35.6292C32.3694 35.7197 32.6087 35.6753 32.767 35.5173L35.5173 32.7671C35.6753 32.6091 35.72 32.3698 35.6291 32.1653L34.3298 29.2405C35.4517 27.5063 36.2372 25.6109 36.6694 23.598L39.6536 22.449C39.8623 22.3687 39.9998 22.1681 39.9998 21.9447V18.0553C40 17.8316 39.8624 17.6313 39.6537 17.5509ZM38.9189 21.5734L36.0051 22.6953C35.8316 22.7618 35.7049 22.9131 35.669 23.0955C35.2608 25.1742 34.4527 27.1231 33.2675 28.8887C33.1641 29.0428 33.1468 29.2391 33.2221 29.4091L34.4904 32.2653L32.2652 34.4905L29.4102 33.2225C29.2409 33.1476 29.0438 33.1641 28.8897 33.2679C27.1241 34.4535 25.1748 35.2615 23.0951 35.6701C22.9128 35.7059 22.7615 35.8327 22.6949 36.0062L21.5734 38.919H18.4266L17.3047 36.0052C17.2382 35.8316 17.0869 35.705 16.9045 35.6691C14.8261 35.2609 12.8769 34.4528 11.1109 33.2676C10.9568 33.1637 10.7598 33.1472 10.5905 33.2222L7.73469 34.4905L5.50953 32.2653L6.7775 29.4102C6.85281 29.2406 6.83555 29.0439 6.73211 28.8898C5.54648 27.1242 4.73852 25.1749 4.32992 23.0952C4.29406 22.9129 4.16734 22.7616 3.99383 22.695L1.08109 21.5734V18.4264L3.99461 17.305C4.16813 17.2381 4.29477 17.087 4.3307 16.9047C4.73891 14.8255 5.54695 12.8762 6.7325 11.1109C6.83594 10.9566 6.8532 10.7599 6.77789 10.5901L5.50961 7.73508L7.73477 5.50961L10.5902 6.77789C10.7602 6.85375 10.957 6.83664 11.1111 6.73266C12.8766 5.54742 14.8259 4.73922 16.9047 4.33086C17.087 4.29516 17.2383 4.16812 17.3048 3.99477L18.4267 1.08109H21.5735L22.6954 3.99477C22.7619 4.16805 22.9132 4.29516 23.0955 4.33086C25.1747 4.73945 27.1239 5.54758 28.8888 6.73266C29.0429 6.83664 29.2403 6.85375 29.4092 6.77789L32.2654 5.50961L34.4905 7.73492L33.2226 10.5895C33.1473 10.7592 33.1645 10.9559 33.268 11.1103C34.4532 12.8753 35.2616 14.8252 35.6702 16.9049C35.706 17.0872 35.8327 17.2384 36.0062 17.3052L38.9191 18.4264L38.9189 21.5734Z" fill="inherit"/>
        <path d="M39.6537 17.5509L39.7256 17.3642L39.7256 17.3642L39.6537 17.5509ZM36.6702 16.4026L36.4747 16.4445L36.4974 16.5504L36.5984 16.5892L36.6702 16.4026ZM34.3307 10.7582L34.1479 10.677L34.104 10.7759L34.1628 10.8668L34.3307 10.7582ZM35.6293 7.83453L35.4465 7.75332L35.4465 7.75335L35.6293 7.83453ZM35.5174 7.23297L35.376 7.37439L35.5174 7.23297ZM32.7672 4.48273L32.9086 4.34131L32.7672 4.48273ZM32.1658 4.37102L32.247 4.5538L32.2472 4.5537L32.1658 4.37102ZM29.2407 5.67008L29.1321 5.83802L29.223 5.89679L29.3219 5.85286L29.2407 5.67008ZM23.5981 3.33055L23.4115 3.40242L23.4504 3.50338L23.5561 3.52609L23.5981 3.33055ZM22.449 0.346484L22.2623 0.418261L22.2623 0.418358L22.449 0.346484ZM17.551 0.346484L17.7377 0.418349L17.7377 0.418261L17.551 0.346484ZM16.402 3.33055L16.444 3.52609L16.5498 3.50338L16.5887 3.40241L16.402 3.33055ZM10.7591 5.67008L10.6779 5.85286L10.7768 5.89679L10.8677 5.83802L10.7591 5.67008ZM7.8343 4.37102L7.75291 4.55371L7.75311 4.5538L7.8343 4.37102ZM7.23289 4.48273L7.37431 4.62415L7.37449 4.62398L7.23289 4.48273ZM4.48266 7.23305L4.62408 7.37447L4.62408 7.37447L4.48266 7.23305ZM4.37078 7.83461L4.55356 7.75342L4.55351 7.75331L4.37078 7.83461ZM5.66969 10.7588L5.83763 10.8674L5.8964 10.7765L5.85247 10.6776L5.66969 10.7588ZM3.33016 16.4023L3.40199 16.5889L3.50299 16.55L3.5257 16.4442L3.33016 16.4023ZM0.34625 17.5507L0.274412 17.364L0.27423 17.3641L0.34625 17.5507ZM0.34625 22.449L0.418109 22.2623L0.418027 22.2623L0.34625 22.449ZM3.32977 23.5977L3.52531 23.5557L3.50261 23.4499L3.40162 23.411L3.32977 23.5977ZM5.66961 29.2416L5.85238 29.3228L5.89634 29.2239L5.83753 29.133L5.66961 29.2416ZM4.3707 32.1653L4.18793 32.0841L4.18791 32.0842L4.3707 32.1653ZM4.48258 32.7671L4.34112 32.9085L4.34116 32.9085L4.48258 32.7671ZM7.23281 35.5173L7.09139 35.6588L7.23281 35.5173ZM7.83461 35.6292L7.91541 35.8122L7.91581 35.812L7.83461 35.6292ZM10.759 34.3299L10.8676 34.162L10.7767 34.1032L10.6778 34.1471L10.759 34.3299ZM16.402 36.6695L16.5886 36.5976L16.5497 36.4966L16.4439 36.4739L16.402 36.6695ZM17.5509 39.6537L17.7376 39.5819L17.7376 39.5818L17.5509 39.6537ZM22.4489 39.6537L22.2623 39.5818L22.2622 39.5819L22.4489 39.6537ZM23.5976 36.6702L23.5556 36.4746L23.4498 36.4973L23.4109 36.5983L23.5976 36.6702ZM29.2416 34.3303L29.3228 34.1475L29.2238 34.1036L29.1329 34.1624L29.2416 34.3303ZM32.1652 35.6292L32.084 35.812L32.0842 35.8121L32.1652 35.6292ZM32.767 35.5173L32.9083 35.6589L32.9085 35.6588L32.767 35.5173ZM35.5173 32.7671L35.3758 32.6257L35.5173 32.7671ZM35.6291 32.1653L35.4464 32.2465L35.4464 32.2465L35.6291 32.1653ZM34.3298 29.2405L34.1619 29.1319L34.1031 29.2228L34.1471 29.3217L34.3298 29.2405ZM36.6694 23.598L36.5975 23.4113L36.4965 23.4502L36.4738 23.556L36.6694 23.598ZM39.6536 22.449L39.5818 22.2623L39.5817 22.2623L39.6536 22.449ZM39.9998 18.0553L39.7998 18.0552V18.0553H39.9998ZM38.9189 21.5734L38.9908 21.7601L39.1189 21.7107L39.1189 21.5734L38.9189 21.5734ZM36.0051 22.6953L36.0766 22.8821L36.0769 22.882L36.0051 22.6953ZM35.669 23.0955L35.4728 23.0568L35.4727 23.0569L35.669 23.0955ZM33.2675 28.8887L33.1014 28.7772L33.1014 28.7772L33.2675 28.8887ZM33.2221 29.4091L33.0393 29.4902L33.0393 29.4903L33.2221 29.4091ZM34.4904 32.2653L34.6318 32.4067L34.7289 32.3096L34.6732 32.1841L34.4904 32.2653ZM32.2652 34.4905L32.1841 34.6733L32.3096 34.729L32.4067 34.6319L32.2652 34.4905ZM29.4102 33.2225L29.4913 33.0397L29.4911 33.0396L29.4102 33.2225ZM28.8897 33.2679L29.0012 33.4339L29.0014 33.4338L28.8897 33.2679ZM23.0951 35.6701L23.0565 35.4738L23.0565 35.4738L23.0951 35.6701ZM22.6949 36.0062L22.8816 36.078L22.8817 36.0778L22.6949 36.0062ZM21.5734 38.919V39.119H21.7107L21.76 38.9908L21.5734 38.919ZM18.4266 38.919L18.2399 38.9908L18.2893 39.119H18.4266V38.919ZM17.3047 36.0052L17.1179 36.0767L17.118 36.077L17.3047 36.0052ZM16.9045 35.6691L16.9432 35.4728L16.9431 35.4728L16.9045 35.6691ZM11.1109 33.2676L10.9992 33.4335L10.9995 33.4336L11.1109 33.2676ZM10.5905 33.2222L10.5095 33.0393L10.5093 33.0394L10.5905 33.2222ZM7.73469 34.4905L7.59327 34.6319L7.69036 34.729L7.81586 34.6733L7.73469 34.4905ZM5.50953 32.2653L5.32675 32.1841L5.27101 32.3096L5.36811 32.4067L5.50953 32.2653ZM6.7775 29.4102L6.96029 29.4914L6.96029 29.4914L6.7775 29.4102ZM6.73211 28.8898L6.89818 28.7783L6.89815 28.7783L6.73211 28.8898ZM4.32992 23.0952L4.52617 23.0566L4.52616 23.0565L4.32992 23.0952ZM3.99383 22.695L3.92196 22.8816L3.9222 22.8817L3.99383 22.695ZM1.08109 21.5734H0.881094V21.7107L1.00923 21.7601L1.08109 21.5734ZM1.08109 18.4264L1.00925 18.2398L0.881094 18.2891V18.4264H1.08109ZM3.99461 17.305L4.06645 17.4917L4.06653 17.4916L3.99461 17.305ZM4.3307 16.9047L4.52693 16.9434L4.52696 16.9432L4.3307 16.9047ZM6.7325 11.1109L6.89853 11.2224L6.89862 11.2223L6.7325 11.1109ZM6.77789 10.5901L6.96072 10.509L6.96067 10.5089L6.77789 10.5901ZM5.50961 7.73508L5.36818 7.59367L5.27108 7.69078L5.32683 7.81627L5.50961 7.73508ZM7.73477 5.50961L7.81595 5.32683L7.69044 5.27108L7.59333 5.3682L7.73477 5.50961ZM10.5902 6.77789L10.6717 6.59525L10.6714 6.59511L10.5902 6.77789ZM11.1111 6.73266L10.9996 6.5666L10.9992 6.56686L11.1111 6.73266ZM16.9047 4.33086L16.8662 4.13459L16.8661 4.13461L16.9047 4.33086ZM17.3048 3.99477L17.1182 3.9229L17.1181 3.92308L17.3048 3.99477ZM18.4267 1.08109V0.881094H18.2894L18.2401 1.00923L18.4267 1.08109ZM21.5735 1.08109L21.7602 1.00923L21.7108 0.881094H21.5735V1.08109ZM22.6954 3.99477L22.8821 3.92312L22.882 3.9229L22.6954 3.99477ZM23.0955 4.33086L23.1341 4.13461L23.134 4.13459L23.0955 4.33086ZM28.8888 6.73266L29.0006 6.56686L29.0002 6.56662L28.8888 6.73266ZM29.4092 6.77789L29.3281 6.5951L29.3273 6.59545L29.4092 6.77789ZM32.2654 5.50961L32.4068 5.36819L32.3097 5.27109L32.1842 5.32682L32.2654 5.50961ZM34.4905 7.73492L34.6733 7.81611L34.7291 7.69061L34.632 7.59351L34.4905 7.73492ZM33.2226 10.5895L33.0398 10.5083L33.0398 10.5084L33.2226 10.5895ZM33.268 11.1103L33.1018 11.2216L33.1019 11.2218L33.268 11.1103ZM35.6702 16.9049L35.4739 16.9435L35.4739 16.9435L35.6702 16.9049ZM36.0062 17.3052L35.9343 17.4919L35.9344 17.4919L36.0062 17.3052ZM38.9191 18.4264L39.1191 18.4264L39.1191 18.2891L38.9909 18.2398L38.9191 18.4264ZM20 6.95602C12.8076 6.95602 6.95617 12.8073 6.95617 20H7.35617C7.35617 13.0282 13.0285 7.35602 20 7.35602V6.95602ZM6.95617 20C6.95617 27.1924 12.8076 33.0438 20 33.0438V32.6438C13.0285 32.6438 7.35617 26.9715 7.35617 20H6.95617ZM20 33.0438C27.1924 33.0438 33.0438 27.1924 33.0438 20H32.6438C32.6438 26.9715 26.9715 32.6438 20 32.6438V33.0438ZM33.0438 20C33.0438 12.8073 27.1924 6.95602 20 6.95602V7.35602C26.9715 7.35602 32.6438 13.0282 32.6438 20H33.0438ZM20 31.5627C13.6243 31.5627 8.43727 26.3756 8.43727 20H8.03727C8.03727 26.5965 13.4034 31.9627 20 31.9627V31.5627ZM8.43727 20C8.43727 13.6244 13.6243 8.43711 20 8.43711V8.03711C13.4034 8.03711 8.03727 13.4035 8.03727 20H8.43727ZM20 8.43711C26.3757 8.43711 31.5627 13.6243 31.5627 20H31.9627C31.9627 13.4034 26.5966 8.03711 20 8.03711V8.43711ZM31.5627 20C31.5627 26.3757 26.3757 31.5627 20 31.5627V31.9627C26.5966 31.9627 31.9627 26.5966 31.9627 20H31.5627ZM39.7256 17.3642L36.7421 16.2159L36.5984 16.5892L39.5819 17.7375L39.7256 17.3642ZM36.8658 16.3606C36.4285 14.3229 35.6333 12.4041 34.4986 10.6496L34.1628 10.8668C35.2712 12.5807 36.0476 14.4543 36.4747 16.4445L36.8658 16.3606ZM34.5135 10.8394L35.8121 7.91572L35.4465 7.75335L34.1479 10.677L34.5135 10.8394ZM35.8121 7.91575C35.9365 7.63569 35.8752 7.30792 35.6588 7.09155L35.376 7.37439C35.4756 7.47395 35.5036 7.62477 35.4465 7.75332L35.8121 7.91575ZM35.6588 7.09155L32.9086 4.34131L32.6258 4.62416L35.376 7.37439L35.6588 7.09155ZM32.9086 4.34131C32.6917 4.12438 32.3634 4.064 32.0844 4.18833L32.2472 4.5537C32.3749 4.49678 32.526 4.52437 32.6258 4.62416L32.9086 4.34131ZM32.0846 4.18823L29.1595 5.48729L29.3219 5.85286L32.247 4.5538L32.0846 4.18823ZM29.3493 5.50214C27.5951 4.36761 25.6772 3.57229 23.6401 3.135L23.5561 3.52609C25.5457 3.95318 27.4185 4.72973 29.1321 5.83802L29.3493 5.50214ZM23.7848 3.25867L22.6356 0.274611L22.2623 0.418358L23.4115 3.40242L23.7848 3.25867ZM22.6357 0.274707C22.5257 -0.0111816 22.2509 -0.2 21.9447 -0.2V0.2C22.0853 0.2 22.2118 0.286807 22.2623 0.418261L22.6357 0.274707ZM21.9447 -0.2H18.0553V0.2H21.9447V-0.2ZM18.0553 -0.2C17.7491 -0.2 17.4743 -0.0111824 17.3643 0.274707L17.7377 0.418261C17.7882 0.286807 17.9147 0.2 18.0553 0.2V-0.2ZM17.3644 0.274619L16.2154 3.25868L16.5887 3.40241L17.7377 0.418349L17.3644 0.274619ZM16.36 3.135C14.3233 3.57229 12.405 4.36745 10.6505 5.50214L10.8677 5.83802C12.5816 4.72959 14.4548 3.95318 16.444 3.52609L16.36 3.135ZM10.8402 5.4873L7.91548 4.18823L7.75311 4.5538L10.6779 5.85286L10.8402 5.4873ZM7.91568 4.18832C7.63675 4.06407 7.308 4.12425 7.09129 4.34149L7.37449 4.62398C7.47372 4.5245 7.62497 4.49672 7.75291 4.55371L7.91568 4.18832ZM7.09147 4.34132L4.34123 7.09163L4.62408 7.37447L7.37431 4.62415L7.09147 4.34132ZM4.34123 7.09163C4.12481 7.30805 4.06345 7.63585 4.18805 7.91591L4.55351 7.75331C4.49639 7.62493 4.52441 7.47414 4.62408 7.37447L4.34123 7.09163ZM4.188 7.9158L5.48691 10.84L5.85247 10.6776L4.55356 7.75342L4.188 7.9158ZM5.50174 10.6502C4.36705 12.4049 3.5719 14.3232 3.13461 16.3603L3.5257 16.4442C3.95279 14.4547 4.7292 12.5815 5.83763 10.8674L5.50174 10.6502ZM3.25832 16.2156L0.274412 17.364L0.418088 17.7374L3.40199 16.5889L3.25832 16.2156ZM0.27423 17.3641C-0.0114878 17.4744 -0.2 17.7489 -0.2 18.0553H0.2C0.2 17.9144 0.286644 17.7881 0.41827 17.7373L0.27423 17.3641ZM-0.2 18.0553V21.9447H0.2V18.0553H-0.2ZM-0.2 21.9447C-0.2 22.2508 -0.0115524 22.5257 0.274473 22.6357L0.418027 22.2623C0.286709 22.2118 0.2 22.0855 0.2 21.9447H-0.2ZM0.274391 22.6356L3.25791 23.7843L3.40162 23.411L0.418109 22.2623L0.274391 22.6356ZM3.13422 23.6396C3.5715 25.6771 4.36666 27.5957 5.50168 29.3503L5.83753 29.133C4.72881 27.4191 3.9524 25.5456 3.52531 23.5557L3.13422 23.6396ZM5.48684 29.1604L4.18793 32.0841L4.55348 32.2465L5.85238 29.3228L5.48684 29.1604ZM4.18791 32.0842C4.06351 32.3643 4.12477 32.692 4.34112 32.9085L4.62403 32.6257C4.52445 32.5261 4.49633 32.3752 4.55349 32.2465L4.18791 32.0842ZM4.34116 32.9085L7.09139 35.6588L7.37423 35.3759L4.624 32.6257L4.34116 32.9085ZM7.09139 35.6588C7.30808 35.8755 7.63534 35.9359 7.91541 35.8122L7.75381 35.4463C7.62419 35.5035 7.47364 35.4753 7.37423 35.3759L7.09139 35.6588ZM7.91581 35.812L10.8402 34.5127L10.6778 34.1471L7.7534 35.4464L7.91581 35.812ZM10.6504 34.4979C12.4056 35.6329 14.3235 36.4281 16.36 36.865L16.4439 36.4739C14.4551 36.0472 12.5822 35.2707 10.8676 34.162L10.6504 34.4979ZM16.2153 36.7413L17.3643 39.7255L17.7376 39.5818L16.5886 36.5976L16.2153 36.7413ZM17.3643 39.7254C17.4742 40.0115 17.7491 40.1999 18.0552 40.1999V39.7999C17.9144 39.7999 17.7881 39.7132 17.7376 39.5819L17.3643 39.7254ZM18.0552 40.1999H21.9446V39.7999H18.0552V40.1999ZM21.9446 40.1999C22.2507 40.1999 22.5256 40.0115 22.6356 39.7254L22.2622 39.5819C22.2117 39.7132 22.0854 39.7999 21.9446 39.7999V40.1999ZM22.6356 39.7255L23.7842 36.742L23.4109 36.5983L22.2623 39.5818L22.6356 39.7255ZM23.6395 36.8657C25.677 36.4284 27.5956 35.6333 29.3502 34.4982L29.1329 34.1624C27.419 35.2711 25.5455 36.0475 23.5556 36.4746L23.6395 36.8657ZM29.1604 34.5131L32.084 35.812L32.2464 35.4464L29.3228 34.1475L29.1604 34.5131ZM32.0842 35.8121C32.3639 35.936 32.6915 35.8752 32.9083 35.6589L32.6258 35.3757C32.5259 35.4754 32.3749 35.5034 32.2463 35.4464L32.0842 35.8121ZM32.9085 35.6588L35.6587 32.9085L35.3758 32.6257L32.6256 35.3759L32.9085 35.6588ZM35.6587 32.9085C35.8751 32.6921 35.9364 32.3643 35.8119 32.0841L35.4464 32.2465C35.5036 32.3752 35.4755 32.5261 35.3758 32.6257L35.6587 32.9085ZM35.8119 32.0841L34.5126 29.1594L34.1471 29.3217L35.4464 32.2465L35.8119 32.0841ZM34.4978 29.3492C35.6328 27.5946 36.4276 25.6767 36.8649 23.6399L36.4738 23.556C36.0467 25.5452 35.2706 27.418 34.1619 29.1319L34.4978 29.3492ZM36.7412 23.7846L39.7255 22.6356L39.5817 22.2623L36.5975 23.4113L36.7412 23.7846ZM39.7254 22.6357C40.0114 22.5257 40.1998 22.2508 40.1998 21.9447H39.7998C39.7998 22.0855 39.7131 22.2118 39.5818 22.2623L39.7254 22.6357ZM40.1998 21.9447V18.0553H39.7998V21.9447H40.1998ZM40.1998 18.0555C40.2001 17.7489 40.0115 17.4743 39.7256 17.3642L39.5818 17.7375C39.7134 17.7882 39.7999 17.9143 39.7998 18.0552L40.1998 18.0555ZM38.847 21.3868L35.9332 22.5087L36.0769 22.882L38.9908 21.7601L38.847 21.3868ZM35.9335 22.5086C35.6953 22.5998 35.5219 22.8074 35.4728 23.0568L35.8652 23.1341C35.8879 23.0188 35.9678 22.9238 36.0766 22.8821L35.9335 22.5086ZM35.4727 23.0569C35.0697 25.1095 34.2719 27.0336 33.1014 28.7772L33.4336 29.0001C34.6335 27.2126 35.4519 25.239 35.8652 23.134L35.4727 23.0569ZM33.1014 28.7772C32.9598 28.9883 32.9361 29.2573 33.0393 29.4902L33.405 29.3281C33.3575 29.221 33.3684 29.0973 33.4336 29.0001L33.1014 28.7772ZM33.0393 29.4903L34.3076 32.3465L34.6732 32.1841L33.4049 29.328L33.0393 29.4903ZM34.349 32.1239L32.1238 34.349L32.4067 34.6319L34.6318 32.4067L34.349 32.1239ZM32.3464 34.3077L29.4913 33.0397L29.329 33.4053L32.1841 34.6733L32.3464 34.3077ZM29.4911 33.0396C29.2595 32.9371 28.9896 32.9594 28.778 33.102L29.0014 33.4338C29.098 33.3687 29.2222 33.358 29.3292 33.4054L29.4911 33.0396ZM28.7782 33.1019C27.0346 34.2727 25.1101 35.0704 23.0565 35.4738L23.1336 35.8663C25.2396 35.4526 27.2136 34.6343 29.0012 33.4339L28.7782 33.1019ZM23.0565 35.4738C22.807 35.5229 22.5995 35.6964 22.5082 35.9345L22.8817 36.0778C22.9234 35.9689 23.0186 35.889 23.1337 35.8663L23.0565 35.4738ZM22.5083 35.9343L21.3867 38.8471L21.76 38.9908L22.8816 36.078L22.5083 35.9343ZM21.5734 38.719H18.4266V39.119H21.5734V38.719ZM18.6132 38.8471L17.4913 35.9333L17.118 36.077L18.2399 38.9908L18.6132 38.8471ZM17.4914 35.9336C17.4002 35.6954 17.1926 35.522 16.9432 35.4728L16.8659 35.8653C16.9812 35.888 17.0762 35.9679 17.1179 36.0767L17.4914 35.9336ZM16.9431 35.4728C14.8908 35.0698 12.9664 34.272 11.2224 33.1015L10.9995 33.4336C12.7874 34.6336 14.7614 35.452 16.866 35.8653L16.9431 35.4728ZM11.2227 33.1017C11.011 32.9591 10.7412 32.9367 10.5095 33.0393L10.6715 33.405C10.7784 33.3577 10.9026 33.3684 10.9992 33.4335L11.2227 33.1017ZM10.5093 33.0394L7.65351 34.3077L7.81586 34.6733L10.6716 33.405L10.5093 33.0394ZM7.87611 34.349L5.65095 32.1239L5.36811 32.4067L7.59327 34.6319L7.87611 34.349ZM5.69232 32.3465L6.96029 29.4914L6.59472 29.3291L5.32675 32.1841L5.69232 32.3465ZM6.96029 29.4914C7.06356 29.2588 7.03982 28.9894 6.89818 28.7783L6.56604 29.0012C6.63128 29.0984 6.64206 29.2224 6.59471 29.3291L6.96029 29.4914ZM6.89815 28.7783C5.72729 27.0347 4.92962 25.1102 4.52617 23.0566L4.13367 23.1337C4.54741 25.2396 5.36568 27.2137 6.56607 29.0013L6.89815 28.7783ZM4.52616 23.0565C4.47709 22.8071 4.30357 22.5996 4.06546 22.5083L3.9222 22.8817C4.03112 22.9235 4.11104 23.0187 4.13368 23.1338L4.52616 23.0565ZM4.0657 22.5084L1.15296 21.3868L1.00923 21.7601L3.92196 22.8816L4.0657 22.5084ZM1.28109 21.5734V18.4264H0.881094V21.5734H1.28109ZM1.15294 18.6131L4.06645 17.4917L3.92277 17.1183L1.00925 18.2398L1.15294 18.6131ZM4.06653 17.4916C4.30433 17.4 4.47774 17.1928 4.52693 16.9434L4.13448 16.866C4.11179 16.9811 4.03192 17.0763 3.92268 17.1184L4.06653 17.4916ZM4.52696 16.9432C4.93002 14.8903 5.72776 12.9657 6.89853 11.2224L6.56647 10.9994C5.36615 12.7867 4.54779 14.7608 4.13445 16.8662L4.52696 16.9432ZM6.89862 11.2223C7.04021 11.0111 7.06393 10.7417 6.96072 10.509L6.59506 10.6711C6.64248 10.7781 6.63167 10.9022 6.56638 10.9996L6.89862 11.2223ZM6.96067 10.5089L5.69239 7.65388L5.32683 7.81627L6.59511 10.6713L6.96067 10.5089ZM5.65104 7.87649L7.8762 5.65102L7.59333 5.3682L5.36818 7.59367L5.65104 7.87649ZM7.65358 5.69239L10.509 6.96067L10.6714 6.59511L7.81595 5.32683L7.65358 5.69239ZM10.5087 6.96053C10.7417 7.06449 11.0115 7.04108 11.2229 6.89846L10.9992 6.56686C10.9024 6.6322 10.7788 6.64301 10.6717 6.59525L10.5087 6.96053ZM11.2226 6.89871C12.9661 5.72822 14.8907 4.93033 16.9432 4.52711L16.8661 4.13461C14.7612 4.54811 12.7871 5.36662 10.9996 6.5666L11.2226 6.89871ZM16.9431 4.52713C17.1929 4.47821 17.4003 4.30417 17.4916 4.06645L17.1181 3.92308C17.0763 4.03207 16.981 4.11211 16.8662 4.13459L16.9431 4.52713ZM17.4915 4.06663L18.6134 1.15296L18.2401 1.00923L17.1182 3.9229L17.4915 4.06663ZM18.4267 1.28109H21.5735V0.881094H18.4267V1.28109ZM21.3869 1.15296L22.5087 4.06663L22.882 3.9229L21.7602 1.00923L21.3869 1.15296ZM22.5087 4.06641C22.5999 4.30408 22.8073 4.47821 23.0571 4.52713L23.134 4.13459C23.0191 4.1121 22.9239 4.03202 22.8821 3.92312L22.5087 4.06641ZM23.057 4.52711C25.11 4.93056 27.0344 5.72838 28.7773 6.8987L29.0002 6.56662C27.2134 5.36678 25.2394 4.54835 23.1341 4.13461L23.057 4.52711ZM28.7769 6.89846C28.9882 7.04098 29.2589 7.06466 29.4912 6.96034L29.3273 6.59545C29.2218 6.64284 29.0976 6.6323 29.0006 6.56686L28.7769 6.89846ZM29.4904 6.96068L32.3466 5.6924L32.1842 5.32682L29.3281 6.5951L29.4904 6.96068ZM32.124 5.65103L34.3491 7.87634L34.632 7.59351L32.4068 5.36819L32.124 5.65103ZM34.3078 7.65373L33.0398 10.5083L33.4054 10.6706L34.6733 7.81611L34.3078 7.65373ZM33.0398 10.5084C32.9365 10.7411 32.9603 11.0104 33.1018 11.2216L33.4341 10.999C33.3688 10.9015 33.358 10.7774 33.4054 10.6706L33.0398 10.5084ZM33.1019 11.2218C34.2724 12.9648 35.0705 14.8899 35.4739 16.9435L35.8664 16.8664C35.4527 14.7604 34.634 12.7858 33.434 10.9988L33.1019 11.2218ZM35.4739 16.9435C35.523 17.1931 35.6966 17.4002 35.9343 17.4919L36.0782 17.1186C35.9689 17.0765 35.889 16.9813 35.8664 16.8663L35.4739 16.9435ZM35.9344 17.4919L38.8472 18.6131L38.9909 18.2398L36.0781 17.1186L35.9344 17.4919ZM38.7191 18.4264L38.7189 21.5734L39.1189 21.5734L39.1191 18.4264L38.7191 18.4264Z" fill="inherit" mask="url(#path-1-outside-1_334_516)"/>
    </symbol>
    <symbol id="icon-2" viewBox="0 0 39 39">
        <path d="M19.375 0C15.543 0 11.797 1.13632 8.61084 3.26528C5.42463 5.39423 2.94129 8.42019 1.47484 11.9605C0.00839487 15.5008 -0.375295 19.3965 0.372294 23.1549C1.11988 26.9133 2.96517 30.3655 5.67482 33.0752C8.38446 35.7848 11.8368 37.6301 15.5951 38.3777C19.3535 39.1253 23.2492 38.7416 26.7895 37.2752C30.3298 35.8087 33.3558 33.3254 35.4847 30.1392C37.6137 26.953 38.75 23.207 38.75 19.375C38.7444 14.2382 36.7013 9.31332 33.069 5.68102C29.4367 2.04872 24.5119 0.00562471 19.375 0ZM19.375 37.5C15.7902 37.5 12.2859 36.437 9.3053 34.4454C6.32466 32.4538 4.00153 29.623 2.62969 26.3111C1.25785 22.9992 0.898919 19.3549 1.59828 15.839C2.29763 12.3231 4.02387 9.09352 6.5587 6.55869C9.09353 4.02386 12.3231 2.29762 15.839 1.59827C19.3549 0.89891 22.9992 1.25785 26.3112 2.62968C29.6231 4.00152 32.4538 6.32465 34.4454 9.30529C36.437 12.2859 37.5 15.7902 37.5 19.375C37.4944 24.1803 35.583 28.7872 32.1851 32.1851C28.7872 35.583 24.1803 37.4944 19.375 37.5Z" fill="inherit"/>
        <path d="M17.6831 7.94187C17.8003 8.05909 17.9593 8.12496 18.125 8.125H20.625C20.7907 8.12496 20.9497 8.05909 21.0669 7.94187L22.3169 6.69187C22.4341 6.57469 22.5 6.41575 22.5 6.25V3.75C22.5 3.58425 22.4341 3.42531 22.3169 3.30813L21.0669 2.05813C20.9497 1.94091 20.7907 1.87504 20.625 1.875H18.125C17.9593 1.87504 17.8003 1.94091 17.6831 2.05813L16.4331 3.30813C16.3159 3.42531 16.25 3.58425 16.25 3.75V6.25C16.25 6.41575 16.3159 6.57469 16.4331 6.69187L17.6831 7.94187ZM17.5 4.00875L18.3837 3.125H20.3662L21.25 4.00875V5.99125L20.3662 6.875H18.3837L17.5 5.99125V4.00875Z" fill="inherit"/>
        <path d="M9.375 19.375C9.375 21.3528 9.96149 23.2862 11.0603 24.9307C12.1591 26.5752 13.7209 27.8569 15.5482 28.6138C17.3754 29.3707 19.3861 29.5687 21.3259 29.1829C23.2657 28.797 25.0475 27.8446 26.4461 26.4461C27.8446 25.0475 28.797 23.2657 29.1829 21.3259C29.5687 19.3861 29.3707 17.3754 28.6138 15.5482C27.8569 13.7209 26.5752 12.1591 24.9307 11.0603C23.2862 9.96149 21.3528 9.375 19.375 9.375C16.7238 9.37814 14.1821 10.4327 12.3074 12.3074C10.4327 14.1821 9.37814 16.7238 9.375 19.375ZM28.125 19.375C28.125 21.1056 27.6118 22.7973 26.6504 24.2362C25.6889 25.6752 24.3223 26.7967 22.7235 27.4589C21.1246 28.1212 19.3653 28.2945 17.668 27.9569C15.9706 27.6193 14.4115 26.7859 13.1878 25.5622C11.9641 24.3385 11.1307 22.7794 10.7931 21.082C10.4555 19.3847 10.6288 17.6254 11.2911 16.0265C11.9533 14.4277 13.0748 13.0611 14.5138 12.0996C15.9527 11.1382 17.6444 10.625 19.375 10.625C21.6949 10.6275 23.919 11.5502 25.5594 13.1906C27.1999 14.831 28.1225 17.0551 28.125 19.375Z" fill="inherit"/>
        <path d="M21.0669 30.8081C20.9497 30.6909 20.7907 30.625 20.625 30.625H18.125C17.9593 30.625 17.8003 30.6909 17.6831 30.8081L16.4331 32.0581C16.3159 32.1753 16.25 32.3343 16.25 32.5V35C16.25 35.1657 16.3159 35.3247 16.4331 35.4419L17.6831 36.6919C17.8003 36.8091 17.9593 36.875 18.125 36.875H20.625C20.7907 36.875 20.9497 36.8091 21.0669 36.6919L22.3169 35.4419C22.4341 35.3247 22.5 35.1657 22.5 35V32.5C22.5 32.3343 22.4341 32.1753 22.3169 32.0581L21.0669 30.8081ZM21.25 34.7412L20.3662 35.625H18.3837L17.5 34.7412V32.7588L18.3837 31.875H20.3662L21.25 32.7588V34.7412Z" fill="inherit"/>
        <path d="M6.69187 22.3169L7.94187 21.0669C8.05909 20.9497 8.12496 20.7907 8.125 20.625V18.125C8.12496 17.9593 8.05909 17.8003 7.94187 17.6831L6.69187 16.4331C6.57469 16.3159 6.41575 16.25 6.25 16.25H3.75C3.58425 16.25 3.42531 16.3159 3.30813 16.4331L2.05813 17.6831C1.94091 17.8003 1.87504 17.9593 1.875 18.125V20.625C1.87504 20.7907 1.94091 20.9497 2.05813 21.0669L3.30813 22.3169C3.42531 22.4341 3.58425 22.5 3.75 22.5H6.25C6.41575 22.5 6.57469 22.4341 6.69187 22.3169ZM4.00875 21.25L3.125 20.3662V18.3837L4.00875 17.5H5.99125L6.875 18.3837V20.3662L5.99125 21.25H4.00875Z" fill="inherit"/>
        <path d="M32.0581 16.4331L30.8081 17.6831C30.6909 17.8003 30.625 17.9593 30.625 18.125V20.625C30.625 20.7907 30.6909 20.9497 30.8081 21.0669L32.0581 22.3169C32.1753 22.4341 32.3343 22.5 32.5 22.5H35C35.1657 22.5 35.3247 22.4341 35.4419 22.3169L36.6919 21.0669C36.8091 20.9497 36.875 20.7907 36.875 20.625V18.125C36.875 17.9593 36.8091 17.8003 36.6919 17.6831L35.4419 16.4331C35.3247 16.3159 35.1657 16.25 35 16.25H32.5C32.3343 16.25 32.1753 16.3159 32.0581 16.4331ZM34.7412 17.5L35.625 18.3837V20.3662L34.7412 21.25H32.7588L31.875 20.3662V18.3837L32.7588 17.5H34.7412Z" fill="inherit"/>
        <path d="M30.625 6.25H28.125C27.9593 6.25004 27.8003 6.31591 27.6831 6.43313L26.4331 7.68313C26.3159 7.80031 26.25 7.95925 26.25 8.125V10.625C26.25 10.7907 26.3159 10.9497 26.4331 11.0669L27.6831 12.3169C27.8003 12.4341 27.9593 12.5 28.125 12.5H30.625C30.7907 12.5 30.9497 12.4341 31.0669 12.3169L32.3169 11.0669C32.4341 10.9497 32.5 10.7907 32.5 10.625V8.125C32.5 7.95925 32.4341 7.80031 32.3169 7.68313L31.0669 6.43313C30.9497 6.31591 30.7907 6.25004 30.625 6.25ZM31.25 10.3663L30.3662 11.25H28.3838L27.5 10.3663V8.38375L28.3838 7.5H30.3662L31.25 8.38375V10.3663Z" fill="inherit"/>
        <path d="M7.68313 12.3169C7.80031 12.4341 7.95925 12.5 8.125 12.5H10.625C10.7907 12.5 10.9497 12.4341 11.0669 12.3169L12.3169 11.0669C12.4341 10.9497 12.5 10.7907 12.5 10.625V8.125C12.5 7.95925 12.4341 7.80031 12.3169 7.68313L11.0669 6.43313C10.9497 6.31591 10.7907 6.25004 10.625 6.25H8.125C7.95925 6.25004 7.80031 6.31591 7.68313 6.43313L6.43313 7.68313C6.31591 7.80031 6.25004 7.95925 6.25 8.125V10.625C6.25004 10.7907 6.31591 10.9497 6.43313 11.0669L7.68313 12.3169ZM7.5 8.38375L8.38375 7.5H10.3663L11.25 8.38375V10.3663L10.3663 11.25H8.38375L7.5 10.3663V8.38375Z" fill="inherit"/>
        <path d="M31.0669 26.4331C30.9497 26.3159 30.7907 26.25 30.625 26.25H28.125C27.9593 26.25 27.8003 26.3159 27.6831 26.4331L26.4331 27.6831C26.3159 27.8003 26.25 27.9593 26.25 28.125V30.625C26.25 30.7907 26.3159 30.9497 26.4331 31.0669L27.6831 32.3169C27.8003 32.4341 27.9593 32.5 28.125 32.5H30.625C30.7907 32.5 30.9497 32.4341 31.0669 32.3169L32.3169 31.0669C32.4341 30.9497 32.5 30.7907 32.5 30.625V28.125C32.5 27.9593 32.4341 27.8003 32.3169 27.6831L31.0669 26.4331ZM31.25 30.3662L30.3662 31.25H28.3838L27.5 30.3662V28.3838L28.3838 27.5H30.3662L31.25 28.3838V30.3662Z" fill="inherit"/>
        <path d="M11.0669 26.4331C10.9497 26.3159 10.7907 26.25 10.625 26.25H8.125C7.95925 26.25 7.80031 26.3159 7.68313 26.4331L6.43313 27.6831C6.31591 27.8003 6.25004 27.9593 6.25 28.125V30.625C6.25004 30.7907 6.31591 30.9497 6.43313 31.0669L7.68313 32.3169C7.80031 32.4341 7.95925 32.5 8.125 32.5H10.625C10.7907 32.5 10.9497 32.4341 11.0669 32.3169L12.3169 31.0669C12.4341 30.9497 12.5 30.7907 12.5 30.625V28.125C12.5 27.9593 12.4341 27.8003 12.3169 27.6831L11.0669 26.4331ZM11.25 30.3662L10.3663 31.25H8.38375L7.5 30.3662V28.3838L8.38375 27.5H10.3663L11.25 28.3838V30.3662Z" fill="inherit"/>
    </symbol>
    <symbol id="icon-3" viewBox="0 0 40 40">
        <path d="M19.9994 4.66675C16.9667 4.66675 14.0022 5.56603 11.4806 7.25088C8.95906 8.93573 6.99375 11.3305 5.8332 14.1323C4.67266 16.9341 4.36901 20.0171 4.96065 22.9915C5.55229 25.9659 7.01265 28.698 9.15705 30.8424C11.3015 32.9868 14.0336 34.4472 17.008 35.0388C19.9823 35.6304 23.0654 35.3268 25.8672 34.1662C28.669 33.0057 31.0637 31.0404 32.7486 28.5188C34.4334 25.9973 35.3327 23.0327 35.3327 20.0001C35.3283 15.9348 33.7114 12.0373 30.8368 9.16265C27.9622 6.28805 24.0646 4.67116 19.9994 4.66675ZM19.9994 34.0001C17.2304 34.0001 14.5237 33.179 12.2214 31.6407C9.91908 30.1023 8.12467 27.9158 7.06504 25.3577C6.00542 22.7995 5.72817 19.9846 6.26836 17.2688C6.80855 14.5531 8.14193 12.0585 10.0999 10.1006C12.0578 8.14265 14.5524 6.80928 17.2681 6.26909C19.9838 5.72889 22.7988 6.00614 25.3569 7.06577C27.9151 8.1254 30.1016 9.91981 31.6399 12.2221C33.1783 14.5244 33.9993 17.2311 33.9993 20.0001C33.9951 23.7118 32.5188 27.2703 29.8942 29.8949C27.2696 32.5195 23.7111 33.9959 19.9994 34.0001Z" fill="inherit"/>
        <path d="M20.0007 15.3333C19.0777 15.3333 18.1754 15.6069 17.408 16.1197C16.6406 16.6325 16.0424 17.3613 15.6892 18.2141C15.336 19.0668 15.2436 20.0051 15.4237 20.9103C15.6037 21.8156 16.0482 22.6471 16.7008 23.2997C17.3535 23.9524 18.185 24.3968 19.0902 24.5769C19.9955 24.757 20.9338 24.6646 21.7865 24.3113C22.6392 23.9581 23.3681 23.36 23.8808 22.5926C24.3936 21.8251 24.6673 20.9229 24.6673 19.9999C24.6657 18.7627 24.1736 17.5767 23.2987 16.7018C22.4239 15.827 21.2378 15.3348 20.0007 15.3333ZM20.0007 23.3332C19.3414 23.3332 18.6969 23.1378 18.1488 22.7715C17.6006 22.4052 17.1733 21.8846 16.9211 21.2755C16.6688 20.6664 16.6028 19.9962 16.7314 19.3496C16.86 18.703 17.1775 18.1091 17.6436 17.6429C18.1098 17.1767 18.7037 16.8593 19.3504 16.7306C19.997 16.602 20.6672 16.668 21.2763 16.9203C21.8854 17.1726 22.4059 17.5999 22.7722 18.148C23.1385 18.6962 23.334 19.3406 23.334 19.9999C23.3329 20.8836 22.9814 21.7309 22.3565 22.3558C21.7316 22.9807 20.8844 23.3322 20.0007 23.3332Z" fill="inherit"/>
        <path d="M38.6667 17.3333H37.8C37.7727 17.1527 37.7407 16.9527 37.71 16.768L38.874 15.368C39.0187 15.1949 39.117 14.9877 39.1594 14.7661C39.2019 14.5445 39.1872 14.3157 39.1167 14.1013L38.6127 12.5487C38.5586 12.3821 38.4722 12.2278 38.3584 12.0946C38.2446 11.9614 38.1058 11.852 37.9497 11.7725C37.7936 11.693 37.6234 11.645 37.4488 11.6313C37.2742 11.6176 37.0986 11.6385 36.932 11.6927L36.098 11.964L35.8413 11.46L36.5187 9.76134C36.6027 9.55229 36.6322 9.3253 36.6043 9.10173C36.5764 8.87816 36.4921 8.66535 36.3593 8.48334L35.4 7.16467C35.297 7.02311 35.167 6.90322 35.0177 6.81187C34.8683 6.72051 34.7024 6.65947 34.5294 6.63223C34.3564 6.60499 34.1798 6.61209 34.0096 6.65312C33.8394 6.69414 33.6789 6.76829 33.5373 6.87134L32.828 7.38601L32.428 6.98601L32.5473 5.16134C32.5626 4.9364 32.5204 4.71128 32.4247 4.50717C32.3289 4.30306 32.1828 4.12669 32 3.99467L30.68 3.03667C30.5381 2.93339 30.3773 2.85912 30.2067 2.81812C30.0361 2.77712 29.859 2.77021 29.6857 2.79777C29.5124 2.82533 29.3463 2.88682 29.1968 2.97873C29.0473 3.07063 28.9175 3.19114 28.8147 3.33334L28.2987 4.04401L27.7947 3.78667L27.3453 2.01534C27.2912 1.79618 27.1822 1.59443 27.0284 1.42914C26.8747 1.26385 26.6813 1.14048 26.4667 1.07067L24.9127 0.567341C24.7461 0.513146 24.5705 0.492299 24.3959 0.50599C24.2213 0.519682 24.0511 0.567644 23.895 0.647137C23.7389 0.72663 23.6 0.836095 23.4863 0.969279C23.3725 1.10246 23.2861 1.25675 23.232 1.42334L22.9653 2.24934C22.7653 2.21667 22.56 2.18667 22.4013 2.16334L21.4273 0.624007C21.3079 0.432456 21.1416 0.274586 20.9441 0.165378C20.7465 0.0561698 20.5244 -0.000754068 20.2987 7.54312e-06H18.6667C18.313 7.54312e-06 17.9739 0.140483 17.7239 0.390532C17.4738 0.64058 17.3333 0.979719 17.3333 1.33334V2.20334C17.1527 2.23067 16.9527 2.26267 16.768 2.29334L15.368 1.12867C15.1948 0.983998 14.9877 0.885852 14.766 0.843509C14.5444 0.801165 14.3156 0.816021 14.1013 0.886674L12.5487 1.39067C12.3821 1.44478 12.2278 1.53118 12.0946 1.64494C11.9614 1.7587 11.852 1.89758 11.7725 2.05366C11.693 2.20973 11.645 2.37994 11.6313 2.55456C11.6176 2.72918 11.6385 2.90478 11.6927 3.07134L11.964 3.90534L11.46 4.16201L9.76534 3.48534C9.55623 3.40066 9.32896 3.37078 9.10507 3.39855C8.88118 3.42632 8.66809 3.51081 8.486 3.64401L7.16467 4.60334C7.02311 4.70638 6.90322 4.8363 6.81187 4.98568C6.72051 5.13505 6.65947 5.30096 6.63223 5.47392C6.60499 5.64689 6.61209 5.82352 6.65312 5.99374C6.69414 6.16397 6.76829 6.32444 6.87134 6.46601L7.38601 7.17534L6.98601 7.57534L5.16134 7.45601C4.93653 7.44113 4.71161 7.48347 4.50759 7.57907C4.30358 7.67467 4.12711 7.8204 3.99467 8.00267L3.03667 9.32267C2.9338 9.46444 2.85987 9.62508 2.8191 9.79543C2.77834 9.96578 2.77153 10.1425 2.79908 10.3155C2.82663 10.4884 2.888 10.6543 2.97967 10.8036C3.07134 10.9528 3.19152 11.0825 3.33334 11.1853L4.04401 11.7013L3.78667 12.2053L2.01534 12.6547C1.79618 12.7088 1.59443 12.8178 1.42914 12.9716C1.26385 13.1253 1.14048 13.3187 1.07067 13.5333L0.567341 15.0873C0.513146 15.2539 0.492299 15.4295 0.50599 15.6041C0.519682 15.7787 0.567644 15.9489 0.647137 16.105C0.72663 16.2611 0.836095 16.4 0.969279 16.5137C1.10246 16.6275 1.25675 16.7139 1.42334 16.768L2.24934 17.0347C2.21667 17.2347 2.18667 17.44 2.16334 17.5987L0.624007 18.5727C0.432456 18.6921 0.274586 18.8584 0.165378 19.0559C0.0561698 19.2535 -0.000754068 19.4756 7.54312e-06 19.7013V21.3333C7.54312e-06 21.687 0.140483 22.0261 0.390532 22.2761C0.64058 22.5262 0.979719 22.6667 1.33334 22.6667H2.20334C2.23067 22.8473 2.26201 23.0473 2.29334 23.232L1.12867 24.632C0.983942 24.8051 0.88576 25.0123 0.843414 25.2339C0.801069 25.4556 0.815958 25.6844 0.886674 25.8987L1.39067 27.4513C1.50086 27.7871 1.73949 28.0657 2.05441 28.2261C2.36933 28.3865 2.73494 28.4157 3.07134 28.3073L3.90534 28.036L4.16201 28.54L3.48467 30.236C3.40064 30.445 3.37117 30.672 3.39905 30.8956C3.42692 31.1192 3.51122 31.332 3.64401 31.514L4.60334 32.8353C4.70638 32.9769 4.8363 33.0968 4.98568 33.1881C5.13505 33.2795 5.30096 33.3405 5.47392 33.3678C5.64689 33.395 5.82352 33.3879 5.99374 33.3469C6.16397 33.3059 6.32444 33.2317 6.46601 33.1287L7.17534 32.614L7.57534 33.014L7.45601 34.8387C7.44063 35.0635 7.48274 35.2886 7.57838 35.4927C7.67402 35.6968 7.82003 35.8732 8.00267 36.0053L9.32267 36.9633C9.46444 37.0662 9.62508 37.1401 9.79543 37.1809C9.96578 37.2217 10.1425 37.2285 10.3155 37.2009C10.4884 37.1734 10.6543 37.112 10.8036 37.0203C10.9528 36.9287 11.0825 36.8085 11.1853 36.6667L11.7013 35.956L12.2053 36.2133L12.6547 37.9847C12.7088 38.2038 12.8178 38.4056 12.9716 38.5709C13.1253 38.7362 13.3187 38.8595 13.5333 38.9293L15.0847 39.4327C15.2512 39.4869 15.4268 39.5077 15.6014 39.494C15.7761 39.4803 15.9463 39.4324 16.1024 39.3529C16.2584 39.2734 16.3973 39.1639 16.5111 39.0307C16.6248 38.8975 16.7112 38.7432 16.7653 38.5767L17.032 37.7507C17.232 37.7833 17.4373 37.8133 17.596 37.8367L18.568 39.376C18.6878 39.5682 18.8549 39.7265 19.0533 39.8358C19.2517 39.945 19.4748 40.0016 19.7013 40H21.3333C21.687 40 22.0261 39.8595 22.2761 39.6095C22.5262 39.3594 22.6667 39.0203 22.6667 38.6667V37.8C22.8473 37.7727 23.0473 37.7407 23.232 37.71L24.632 38.8747C24.8052 39.0192 25.0124 39.1173 25.234 39.1596C25.4556 39.202 25.6844 39.1872 25.8987 39.1167L27.4513 38.6127C27.6179 38.5586 27.7722 38.4722 27.9054 38.3584C28.0386 38.2446 28.148 38.1058 28.2275 37.9497C28.307 37.7936 28.355 37.6234 28.3687 37.4488C28.3824 37.2742 28.3615 37.0986 28.3073 36.932L28.036 36.098L28.54 35.8413L30.2387 36.5187C30.4476 36.6031 30.6747 36.6328 30.8984 36.605C31.122 36.5771 31.3348 36.4925 31.5167 36.3593L32.8353 35.4C32.9769 35.297 33.0968 35.167 33.1881 35.0177C33.2795 34.8683 33.3405 34.7024 33.3678 34.5294C33.395 34.3564 33.3879 34.1798 33.3469 34.0096C33.3059 33.8394 33.2317 33.6789 33.1287 33.5373L32.614 32.828L33.014 32.428L34.8387 32.5473C35.0635 32.5622 35.2884 32.5199 35.4924 32.4243C35.6964 32.3287 35.8729 32.1829 36.0053 32.0007L36.9633 30.6807C37.0667 30.5388 37.1411 30.3779 37.1821 30.2072C37.2232 30.0365 37.2301 29.8594 37.2026 29.686C37.175 29.5127 37.1135 29.3464 37.0215 29.1969C36.9295 29.0474 36.809 28.9175 36.6667 28.8147L35.956 28.2987L36.2133 27.7947L37.9847 27.3453C38.2038 27.2912 38.4056 27.1822 38.5709 27.0284C38.7362 26.8747 38.8595 26.6813 38.9293 26.4667L39.4327 24.9153C39.4869 24.7488 39.5077 24.5732 39.494 24.3986C39.4803 24.2239 39.4324 24.0537 39.3529 23.8977C39.2734 23.7416 39.1639 23.6027 39.0307 23.4889C38.8975 23.3752 38.7432 23.2888 38.5767 23.2347L37.7507 22.968C37.7833 22.768 37.8133 22.5627 37.8367 22.404L39.376 21.432C39.5682 21.3122 39.7265 21.1451 39.8358 20.9467C39.945 20.7483 40.0016 20.5252 40 20.2987V18.6667C40 18.313 39.8595 17.9739 39.6095 17.7239C39.3594 17.4738 39.0203 17.3333 38.6667 17.3333ZM38.6667 20.2987L36.8667 21.436C36.7846 21.4879 36.7149 21.5571 36.6624 21.6387C36.6099 21.7204 36.5759 21.8125 36.5627 21.9087C36.5627 21.912 36.436 22.8267 36.3427 23.2933C36.3103 23.4574 36.3409 23.6276 36.4282 23.7703C36.5155 23.9129 36.6532 24.0175 36.814 24.0633L36.85 24.072L38.1673 24.5007L37.6633 26.0527L35.5967 26.5773C35.5047 26.6007 35.4187 26.6434 35.3446 26.7026C35.2704 26.7618 35.2098 26.8361 35.1667 26.9207L34.5133 28.2C34.441 28.3412 34.4215 28.5035 34.4581 28.6579C34.4948 28.8122 34.5853 28.9484 34.7133 29.042L35.8833 29.892L34.9247 31.212L32.798 31.0727C32.7035 31.0681 32.6091 31.083 32.5206 31.1163C32.432 31.1497 32.3513 31.2009 32.2833 31.2667L31.2667 32.2847C31.1537 32.3973 31.0849 32.5466 31.0727 32.7056C31.0604 32.8647 31.1056 33.0228 31.2 33.1513L32.05 34.3213L30.7333 35.2773L28.754 34.4873C28.6659 34.452 28.5713 34.4361 28.4765 34.4406C28.3817 34.4451 28.289 34.4699 28.2047 34.5133L26.924 35.1653C26.7822 35.2371 26.6707 35.3571 26.6096 35.5038C26.5485 35.6505 26.5418 35.8141 26.5907 35.9653L27.038 37.3413L25.4853 37.846L23.9113 36.5367C23.8341 36.4536 23.7369 36.3917 23.6289 36.3567C23.521 36.3217 23.406 36.3148 23.2947 36.3367C22.828 36.43 21.9133 36.556 21.91 36.5567C21.7506 36.5787 21.6045 36.6577 21.4988 36.779C21.3931 36.9003 21.3348 37.0557 21.3347 37.2167V38.6667H19.7013L18.564 36.8667C18.5121 36.7846 18.4429 36.7149 18.3613 36.6624C18.2796 36.6099 18.1875 36.5759 18.0913 36.5627C18.0913 36.5627 17.1733 36.436 16.7067 36.3427C16.6628 36.3335 16.6181 36.329 16.5733 36.3293C16.4287 36.3299 16.2882 36.3775 16.173 36.4649C16.0578 36.5524 15.9741 36.6749 15.9347 36.814C15.9313 36.8253 15.9287 36.838 15.926 36.85L15.4973 38.1673L13.9453 37.6633L13.4207 35.5967C13.3973 35.5047 13.3546 35.4187 13.2954 35.3446C13.2362 35.2704 13.1619 35.2098 13.0773 35.1667L11.8 34.5133C11.6588 34.441 11.4965 34.4215 11.3421 34.4581C11.1878 34.4948 11.0516 34.5853 10.958 34.7133L10.1067 35.8847L8.78667 34.926L8.926 32.7993C8.93214 32.7047 8.91801 32.6098 8.88455 32.5211C8.8511 32.4323 8.79909 32.3517 8.732 32.2847L7.71534 31.2667C7.60293 31.1546 7.45423 31.0863 7.29597 31.0741C7.13771 31.0619 6.98028 31.1065 6.85201 31.2L5.68201 32.0507L4.72267 30.7333L5.51267 28.754C5.54836 28.6652 5.5645 28.5698 5.56002 28.4742C5.55553 28.3786 5.53052 28.2851 5.48667 28.2L4.83467 26.9193C4.76293 26.7775 4.64291 26.666 4.49623 26.6049C4.34955 26.5438 4.18586 26.5371 4.03467 26.586L2.65867 27.0333L2.15401 25.4807L3.46067 23.9093C3.54436 23.8321 3.60673 23.7346 3.64177 23.6262C3.6768 23.5178 3.68331 23.4023 3.66067 23.2907C3.56734 22.824 3.44134 21.9087 3.44067 21.9053C3.41788 21.7464 3.3385 21.6011 3.21713 21.496C3.09576 21.3909 2.94055 21.3332 2.78001 21.3333H1.33334V19.7013L3.13334 18.564C3.21537 18.5121 3.28507 18.4429 3.33758 18.3613C3.39009 18.2796 3.42413 18.1875 3.43734 18.0913C3.43734 18.0913 3.56401 17.1727 3.65734 16.706C3.69001 16.5403 3.65856 16.3683 3.56933 16.2249C3.48011 16.0815 3.33977 15.9773 3.17667 15.9333C3.16801 15.9333 3.15867 15.9293 3.15001 15.9273L1.83534 15.4993L2.33934 13.9473L4.40601 13.4227C4.49799 13.3993 4.58393 13.3566 4.65808 13.2974C4.73224 13.2382 4.7929 13.1639 4.83601 13.0793L5.48667 11.8C5.55896 11.6588 5.57853 11.4965 5.54187 11.3421C5.50521 11.1878 5.41473 11.0516 5.28667 10.958L4.11534 10.1067L5.07401 8.78667L7.20067 8.926C7.29528 8.93171 7.39003 8.91738 7.47872 8.88395C7.56741 8.85052 7.64804 8.79874 7.71534 8.732L8.73334 7.71534C8.84541 7.60293 8.91369 7.45423 8.92591 7.29597C8.93814 7.13771 8.89349 6.98028 8.8 6.85201L7.94934 5.68134L9.27 4.72267L11.2493 5.51267C11.3377 5.54786 11.4325 5.56374 11.5275 5.55926C11.6225 5.55477 11.7154 5.53002 11.8 5.48667L13.0807 4.83467C13.2225 4.76293 13.334 4.64291 13.3951 4.49623C13.4562 4.34955 13.4629 4.18586 13.414 4.03467L12.9667 2.65867L14.5193 2.15401L16.09 3.46667C16.1673 3.5496 16.2646 3.61126 16.3726 3.6457C16.4806 3.68014 16.5956 3.68622 16.7067 3.66334C17.1733 3.57001 18.088 3.44401 18.0913 3.44334C18.2513 3.42122 18.3978 3.34177 18.5036 3.21977C18.6094 3.09777 18.6674 2.9415 18.6667 2.78001V1.33334H20.2987L21.436 3.13334C21.4879 3.21537 21.5571 3.28507 21.6387 3.33758C21.7204 3.39009 21.8125 3.42413 21.9087 3.43734C21.912 3.43734 22.8267 3.56401 23.2933 3.65734C23.4576 3.69201 23.629 3.66287 23.7726 3.57583C23.9162 3.48879 24.0214 3.35038 24.0667 3.18867C24.07 3.17734 24.0727 3.16467 24.0753 3.15267L24.504 1.83534L26.056 2.33934L26.5807 4.40601C26.604 4.49799 26.6467 4.58393 26.7059 4.65808C26.7651 4.73224 26.8395 4.7929 26.924 4.83601L28.2 5.48667C28.3412 5.55896 28.5035 5.57853 28.6579 5.54187C28.8122 5.50521 28.9484 5.41473 29.042 5.28667L29.8933 4.11534L31.2133 5.07401L31.074 7.20067C31.0679 7.29532 31.082 7.39019 31.1154 7.47894C31.1489 7.5677 31.2009 7.64829 31.268 7.71534L32.2847 8.73334C32.3973 8.84628 32.5466 8.91511 32.7056 8.92734C32.8647 8.93957 33.0228 8.89439 33.1513 8.8L34.3213 7.95001L35.2807 9.27067L34.4907 11.25C34.4557 11.3382 34.4399 11.4327 34.4444 11.5275C34.4489 11.6222 34.4735 11.7149 34.5167 11.7993L35.1687 13.08C35.2404 13.2218 35.3604 13.3333 35.5071 13.3944C35.6538 13.4555 35.8175 13.4622 35.9687 13.4133L37.3447 12.966L37.8493 14.518L36.54 16.0933C36.4571 16.1705 36.3952 16.2676 36.3602 16.3754C36.3252 16.4832 36.3182 16.5981 36.34 16.7093C36.4333 17.176 36.5593 18.0907 36.56 18.094C36.582 18.2534 36.661 18.3995 36.7823 18.5052C36.9036 18.6109 37.0591 18.6692 37.22 18.6693H38.6667V20.2987Z" fill="inherit"/>
    </symbol>  
     
    <!-- cs-icons -->    
    <symbol id="cs-icon1" viewBox="0 0 58 58">
        <path d="M46.87 29.8437H49.3786C49.7711 31.786 51.491 33.253 53.5472 33.253C55.8923 33.253 57.8002 31.3451 57.8002 29C57.8002 26.6548 55.8923 24.7469 53.5471 24.7469C51.4909 24.7469 49.771 26.2139 49.3784 28.1562H46.8699C46.6693 23.8584 44.9458 19.9519 42.227 16.9663L46.7455 12.4479C47.6349 13.0956 48.7285 13.4791 49.9106 13.4791C52.8824 13.4791 55.3 11.0614 55.3 8.08958C55.3 5.11778 52.8824 2.70015 49.9106 2.70015C46.9388 2.70015 44.5211 5.11789 44.5211 8.08958C44.5211 9.27161 44.9045 10.3652 45.5523 11.2547L41.0339 15.773C38.0482 13.0543 34.1418 11.3307 29.8439 11.1302V8.6217C31.7863 8.22919 33.2533 6.50929 33.2533 4.45301C33.2533 2.10784 31.3454 0.199951 29.0002 0.199951C26.655 0.199951 24.7471 2.10784 24.7471 4.45301C24.7471 6.50929 26.2141 8.22919 28.1564 8.6217V11.1301C23.8586 11.3307 19.9522 13.0542 16.9665 15.7729L12.4484 11.2549C13.0962 10.3653 13.4797 9.27161 13.4797 8.08958C13.4797 6.29498 12.5908 4.62379 11.102 3.61916C10.7155 3.35861 10.1911 3.46031 9.93066 3.84664C9.66999 4.23296 9.77181 4.75733 10.158 5.01799C11.1813 5.7084 11.7921 6.85669 11.7921 8.08958C11.7921 10.131 10.1311 11.792 8.08971 11.792C6.04828 11.792 4.38745 10.131 4.38745 8.08958C4.38745 6.441 5.49388 4.97569 7.07811 4.52625C7.52642 4.39901 7.78675 3.93248 7.65951 3.48416C7.53227 3.03585 7.06551 2.77586 6.61753 2.90276C4.31083 3.55729 2.69995 5.69018 2.69995 8.08958C2.69995 11.0616 5.11779 13.4795 8.08982 13.4795C9.27197 13.4795 10.3657 13.0959 11.2551 12.4482L15.7732 16.9662C13.0544 19.9518 11.3309 23.8582 11.1304 28.1561H8.62195C8.22943 26.2138 6.50953 24.7468 4.45326 24.7468C2.10808 24.7469 0.200195 26.6548 0.200195 29C0.200195 31.3451 2.10808 33.253 4.45326 33.253C6.50953 33.253 8.22943 31.786 8.62195 29.8437H11.1305C11.3311 34.1415 13.0546 38.048 15.7733 41.0336L11.2549 45.552C10.3655 44.9043 9.27186 44.5208 8.08982 44.5208C5.11802 44.5208 2.7004 46.9385 2.7004 49.9103C2.7004 52.8821 5.11802 55.2998 8.08982 55.2998C11.0616 55.2998 13.4792 52.882 13.4792 49.9103C13.4792 48.7283 13.0958 47.6347 12.4481 46.7453L16.9665 42.2269C19.9522 44.9456 23.8586 46.6692 28.1564 46.8697V49.3781C26.2141 49.7706 24.7471 51.4905 24.7471 53.5468C24.7471 55.8921 26.655 57.7999 29.0002 57.7999C31.3454 57.7999 33.2533 55.8921 33.2533 53.5469C33.2533 51.4906 31.7863 49.7707 29.8439 49.3782V46.8698C34.1418 46.6692 38.0482 44.9457 41.0339 42.227L45.552 46.745C44.9042 47.6346 44.5207 48.7283 44.5207 49.9103C44.5207 52.8822 46.9385 55.3002 49.9106 55.3002C52.8826 55.3002 55.3004 52.8824 55.3004 49.9103C55.3004 49.3269 55.2075 48.7524 55.0243 48.2023C54.8768 47.7603 54.3988 47.5214 53.9571 47.6687C53.515 47.816 53.276 48.2938 53.4234 48.7359C53.5492 49.1134 53.6131 49.5086 53.6131 49.9102C53.6131 51.9516 51.9521 53.6126 49.9107 53.6126C47.8693 53.6126 46.2083 51.9517 46.2083 49.9102C46.2083 47.8687 47.8693 46.2078 49.9107 46.2078C50.3779 46.2078 50.8335 46.2938 51.2648 46.4633C51.6981 46.6338 52.1882 46.4204 52.3588 45.9867C52.5292 45.553 52.3158 45.0633 51.8821 44.8927C51.2534 44.6457 50.5902 44.5203 49.9108 44.5203C48.7286 44.5203 47.6349 44.9039 46.7455 45.5516L42.2274 41.0336C44.9458 38.048 46.6694 34.1415 46.87 29.8437ZM53.5471 26.4344C54.9618 26.4344 56.1127 27.5853 56.1127 29C56.1127 30.4146 54.9618 31.5655 53.5471 31.5655C52.1324 31.5655 50.9816 30.4146 50.9816 29C50.9816 27.5853 52.1326 26.4344 53.5471 26.4344ZM49.9106 4.38765C51.9519 4.38765 53.6125 6.04838 53.6125 8.08958C53.6125 10.1309 51.9518 11.7916 49.9106 11.7916C47.8694 11.7916 46.2086 10.1309 46.2086 8.08958C46.2086 6.04826 47.8694 4.38765 49.9106 4.38765ZM26.4346 4.45301C26.4346 3.03833 27.5856 1.88745 29.0002 1.88745C30.4148 1.88745 31.5658 3.03833 31.5658 4.45301C31.5658 5.8677 30.4148 7.01858 29.0002 7.01858C27.5856 7.01858 26.4346 5.86759 26.4346 4.45301ZM4.45326 31.5655C3.03857 31.5655 1.8877 30.4146 1.8877 29C1.8877 27.5853 3.03857 26.4344 4.45326 26.4344C5.86795 26.4344 7.01871 27.5853 7.01871 29C7.01871 30.4146 5.86783 31.5655 4.45326 31.5655ZM29.0002 12.7973C37.9344 12.7973 45.2029 20.0658 45.2029 29C45.2029 37.9341 37.9344 45.2026 29.0002 45.2026C20.066 45.2026 12.7975 37.9342 12.7975 29C12.7975 20.0657 20.066 12.7973 29.0002 12.7973ZM8.08982 53.6123C6.04851 53.6123 4.3879 51.9515 4.3879 49.9103C4.3879 47.869 6.04862 46.2083 8.08982 46.2083C10.131 46.2083 11.7917 47.869 11.7917 49.9103C11.7917 51.9516 10.131 53.6123 8.08982 53.6123ZM31.5658 53.5469C31.5658 54.9616 30.4148 56.1124 29.0002 56.1124C27.5856 56.1124 26.4346 54.9616 26.4346 53.5469C26.4346 52.1322 27.5856 50.9813 29.0002 50.9813C30.4148 50.9813 31.5658 52.1323 31.5658 53.5469Z" fill="inherit"/>
        <path d="M19.4549 39.3894H24.2198C24.2224 39.3894 24.2249 39.3898 24.2274 39.3898C24.23 39.3898 24.2325 39.3894 24.2351 39.3894H27.0317C27.4978 39.3894 27.8755 39.0116 27.8755 38.5457C27.8755 38.0797 27.4978 37.7019 27.0317 37.7019H25.0712V36.2732C25.0712 35.8072 24.6935 35.4294 24.2274 35.4294C23.7614 35.4294 23.3837 35.8072 23.3837 36.2732V37.7019H20.2986V33.5462C20.2986 31.5047 21.959 29.8438 23.9997 29.8438H34.001C36.0419 29.8438 37.7021 31.5047 37.7021 33.5462V37.7019H34.617V36.2732C34.617 35.8072 34.2394 35.4294 33.7733 35.4294C33.3072 35.4294 32.9295 35.8072 32.9295 36.2732V37.7019H30.9692C30.5031 37.7019 30.1255 38.0797 30.1255 38.5457C30.1255 39.0116 30.5031 39.3894 30.9692 39.3894H33.7659C33.7685 39.3894 33.7709 39.3898 33.7735 39.3898C33.7761 39.3898 33.7786 39.3894 33.7812 39.3894H38.5461C39.0122 39.3894 39.3899 39.0116 39.3899 38.5457V33.5462C39.3899 30.5741 36.9726 28.1563 34.0012 28.1563H33.3748C34.6953 26.9613 35.5265 25.2349 35.5265 23.3179C35.5265 19.7195 32.599 16.792 29.0006 16.792C25.4022 16.792 22.4747 19.7195 22.4747 23.3179C22.4747 25.2349 23.3058 26.9613 24.6264 28.1563H24C21.0286 28.1563 18.6113 30.5741 18.6113 33.5462V38.5457C18.6111 39.0116 18.9889 39.3894 19.4549 39.3894ZM24.1621 23.3179C24.1621 20.6501 26.3325 18.4795 29.0005 18.4795C31.6684 18.4795 33.8389 20.65 33.8389 23.3179C33.8389 25.9858 31.6684 28.1563 29.0005 28.1563C26.3325 28.1563 24.1621 25.9858 24.1621 23.3179Z" fill="inherit"/>
    </symbol>
    <symbol id="cs-icon2" viewBox="0 0 64 60">
        <path d="M58.5006 35.8497C58.0786 35.5481 57.4922 35.6458 57.1908 36.0678C56.8893 36.4897 56.9869 37.0762 57.4087 37.3777C60.36 39.4866 62.122 42.9079 62.122 46.5299C62.122 49.2322 61.1632 51.7146 59.5685 53.6554C58.2535 51.1289 56.4166 49.5048 54.9771 48.5362C55.7579 47.5914 56.2009 46.3926 56.2009 45.1453C56.2009 42.2122 53.8146 39.8258 50.8815 39.8258C47.9484 39.8258 45.562 42.2121 45.562 45.1453C45.562 46.3926 46.0051 47.5914 46.7858 48.5362C45.3464 49.5048 43.5095 51.1291 42.1945 53.6554C40.5998 51.7146 39.641 49.2322 39.641 46.5301C39.641 40.3321 44.6835 35.2896 50.8815 35.2896C52.0734 35.2896 53.2465 35.4751 54.3684 35.8407C54.861 36.0011 55.3914 35.7319 55.5521 35.2389C55.7129 34.7458 55.4434 34.2159 54.9504 34.0552C53.6403 33.6282 52.2713 33.4116 50.8815 33.4116C46.6038 33.4116 42.798 35.4699 40.4019 38.6479L32.9515 33.8389V26.5547C39.7484 26.0716 45.131 20.3879 45.131 13.4703C45.131 6.23681 39.2461 0.351807 32.0126 0.351807C29.3305 0.351807 26.7512 1.15606 24.5536 2.67743C24.1273 2.97256 24.0209 3.55743 24.3161 3.98393C24.6113 4.41006 25.1961 4.51668 25.6226 4.22131C27.5048 2.91843 29.7144 2.22968 32.0126 2.22968C38.2106 2.22968 43.2531 7.27218 43.2531 13.4702C43.2531 16.1724 42.2945 18.6548 40.6996 20.5956C39.3846 18.0692 37.5477 16.4449 36.1082 15.4763C36.889 14.5316 37.332 13.3327 37.332 12.0853C37.332 9.15231 34.9458 6.76593 32.0126 6.76593C29.0795 6.76593 26.6933 9.15218 26.6933 12.0853C26.6933 13.3327 27.1362 14.5317 27.917 15.4763C26.4775 16.4449 24.6407 18.0692 23.3256 20.5956C21.7307 18.6548 20.7721 16.1724 20.7721 13.4702C20.7721 10.9658 21.5776 8.59618 23.1016 6.61743C23.418 6.20668 23.3415 5.61706 22.9307 5.30068C22.5199 4.98406 21.9303 5.06068 21.6139 5.47156C19.8346 7.78156 18.8943 10.5474 18.8943 13.4701C18.8943 20.3878 24.2768 26.0714 31.0736 26.5544V33.8387L23.5935 38.6669C21.197 35.4923 17.3935 33.4366 13.1185 33.4366C5.88487 33.4367 0 39.3217 0 46.5552C0 49.5597 1.04163 52.4959 2.93313 54.8233C4.79712 57.1171 7.40438 58.7297 10.2744 59.3643C10.7806 59.4759 11.2819 59.1564 11.3939 58.6502C11.5057 58.1439 11.1861 57.6427 10.6798 57.5307C8.89338 57.1357 7.227 56.2959 5.8355 55.1128C7.27237 51.9422 9.6795 50.2609 11.0335 49.5246C11.6318 49.2219 11.6895 48.3139 11.1341 47.9381C10.2374 47.2913 9.702 46.2472 9.702 45.1452C9.702 43.2476 11.2459 41.7037 13.1435 41.7037C15.0411 41.7037 16.585 43.2476 16.585 45.1452C16.585 46.2472 16.0496 47.2913 15.153 47.9381C14.5976 48.3139 14.6555 49.2219 15.2536 49.5246C16.6034 50.2586 18.9996 51.9313 20.4382 55.0824C18.6735 56.5997 16.4851 57.5366 14.1508 57.7491C13.6343 57.7961 13.2537 58.2528 13.3006 58.7692C13.345 59.2567 13.7545 59.6232 14.2346 59.6232C14.2631 59.6232 14.2919 59.6218 14.3208 59.6192C17.5664 59.3241 20.5721 57.8342 22.7845 55.4243C25.0106 52.9992 26.2367 49.8494 26.2367 46.5553C26.2367 44.2686 25.648 42.1169 24.6151 40.2431L32.0126 35.4682L39.3811 40.2244C38.3505 42.0968 37.7631 44.2459 37.7631 46.5301C37.7631 53.7636 43.648 59.6486 50.8815 59.6486C58.115 59.6486 64 53.7634 64 46.5299C64 42.3029 61.9441 38.3103 58.5006 35.8497ZM21.8305 53.6551C20.5155 51.1288 18.6787 49.5048 17.2394 48.5362C18.02 47.5914 18.4631 46.3926 18.4631 45.1453C18.4631 42.2122 16.0769 39.8258 13.1438 39.8258C10.2106 39.8258 7.82438 42.2121 7.82438 45.1453C7.82438 46.3926 8.2675 47.5914 9.04813 48.5362C7.6015 49.5097 5.75325 51.1454 4.43687 53.6937C4.42162 53.6753 4.40562 53.6577 4.3905 53.6391C2.77025 51.6454 1.87787 49.1297 1.87787 46.5553C1.87787 40.3573 6.92037 35.3148 13.1184 35.3148C19.3164 35.3148 24.3589 40.3573 24.3589 46.5553C24.3589 49.1573 23.4644 51.6529 21.8305 53.6551ZM29.9026 16.4647C30.5009 16.1619 30.5585 15.2539 30.0033 14.8782C29.1065 14.2316 28.5713 13.1874 28.5713 12.0853C28.5713 10.1877 30.1151 8.64393 32.0127 8.64393C33.9104 8.64393 35.4543 10.1877 35.4543 12.0853C35.4543 13.1874 34.919 14.2316 34.0223 14.8782C33.4669 15.2539 33.5246 16.1619 34.1229 16.4647C35.4719 17.1983 37.8662 18.8696 39.305 22.0169C37.3406 23.6954 34.7933 24.7106 32.013 24.7106C29.2326 24.7106 26.6854 23.6954 24.7209 22.0169C26.1594 18.8696 28.5537 17.1984 29.9026 16.4647ZM50.8816 57.7704C48.1012 57.7704 45.5539 56.7552 43.5895 55.0767C45.0283 51.9292 47.4226 50.2581 48.7715 49.5246C49.3698 49.2219 49.4275 48.3139 48.8721 47.9381C47.9754 47.2913 47.44 46.2472 47.44 45.1452C47.44 43.2476 48.9839 41.7037 50.8815 41.7037C52.7791 41.7037 54.323 43.2476 54.323 45.1452C54.323 46.2472 53.7876 47.2913 52.8909 47.9381C52.3355 48.3139 52.3934 49.2219 52.9915 49.5246C54.3404 50.2582 56.7347 51.9292 58.1735 55.0768C56.2093 56.7553 53.6619 57.7704 50.8816 57.7704Z" fill="inherit"/>
    </symbol>
    <symbol id="cs-icon3" viewBox="0 0 56 58">
        <path d="M28.3298 7.34644C27.1314 7.34644 26.0086 7.87861 25.2492 8.80586C24.9543 9.16665 25.0075 9.69839 25.3678 9.99326C25.7286 10.2881 26.2604 10.2354 26.5552 9.87461C26.9925 9.34023 27.6394 9.03393 28.3298 9.03393C29.0201 9.03393 29.667 9.34023 30.1043 9.87461C30.3996 10.2358 30.9313 10.2881 31.2917 9.99326C31.652 9.69839 31.7052 9.16665 31.4099 8.80586C30.6509 7.87817 29.5286 7.34644 28.3298 7.34644Z" fill="inherit"/>
        <path d="M51.8472 29.3251L48.4836 28.0239V25.3938C48.4836 23.9322 47.2945 22.7435 45.8329 22.7435C44.3712 22.7435 43.1821 23.9322 43.1821 25.3938V25.9726L41.256 25.2272V22.8111C41.256 21.3495 40.0668 20.1604 38.6052 20.1604C37.1436 20.1604 35.9548 21.3495 35.9548 22.8111V23.1763L34.0287 22.431V18.2386C34.0287 17.7724 33.6508 17.3949 33.185 17.3949C32.7187 17.3949 32.3408 17.7724 32.3408 18.2386V51.7852C32.3408 52.3367 31.8921 52.7854 31.3406 52.7854H30.9807V46.7776C30.9807 45.3151 29.7796 44.0855 28.2534 44.129C26.8872 44.1659 25.6795 45.2641 25.6795 46.8286V52.7854H25.3192C24.7681 52.7854 24.3194 52.3367 24.3194 51.7852C24.3194 50.7291 24.3194 12.2722 24.3194 10.4906C24.3194 5.42065 26.4332 1.88745 28.3299 1.88745C30.227 1.88745 32.3408 5.42065 32.3408 10.4906V14.3007C32.3408 14.7669 32.7187 15.1444 33.1845 15.1444C33.6508 15.1444 34.0283 14.7669 34.0283 14.3007V10.4902C34.0287 4.72017 31.5256 0.199951 28.3303 0.199951C25.1351 0.199951 22.6319 4.72017 22.6319 10.4902V22.431L20.7058 23.1759V22.8107C20.7058 21.3495 19.5166 20.1599 18.055 20.1599C16.5934 20.1599 15.4042 21.3491 15.4042 22.8107V25.2272L13.4781 25.9726V25.3938C13.4781 23.9322 12.2894 22.743 10.8273 22.743C9.36572 22.743 8.17656 23.9322 8.17656 25.3938V28.0239L4.81387 29.3251V29.3256C2.37578 30.2687 0.800781 32.3697 0.800781 34.6777V35.7921C0.800781 36.8442 1.79878 37.6409 2.92905 37.5245L22.6319 35.4863V43.5529L17.7975 45.6025C16.8127 46.0204 16.1764 46.9815 16.1764 48.0507V50.5846C16.1764 51.4582 16.887 52.1684 17.7602 52.1684H22.6596C22.8464 53.4696 23.9679 54.4729 25.3196 54.4729H25.6795V55.1492C25.6795 56.6108 26.8687 57.7999 28.3303 57.7999C29.7919 57.7999 30.9811 56.6108 30.9811 55.1492V54.4729H31.341C32.6928 54.4729 33.8143 53.4696 34.001 52.1684H38.9005C39.7741 52.1684 40.4847 51.4582 40.4847 50.5846V48.0507C40.4847 46.9811 39.8484 46.02 38.8631 45.6025L34.0287 43.5529V35.4863L40.4364 36.149C40.8991 36.1969 41.3144 35.8603 41.3623 35.3966C41.4102 34.933 41.0736 34.5182 40.61 34.4707L34.0287 33.7896V24.2402L51.2381 30.8993C53.0206 31.5892 54.1724 33.0719 54.1724 34.6777V35.7719C54.1434 35.8049 54.044 35.8603 53.9056 35.8458L44.5475 34.8781C44.0847 34.8289 43.6694 35.1668 43.6215 35.6304C43.5736 36.094 43.9103 36.5084 44.3739 36.5563L53.732 37.5245C54.854 37.6418 55.8599 36.8495 55.8599 35.7921V34.6777C55.8599 32.3697 54.2849 30.2687 51.8472 29.3251ZM37.6423 22.8111C37.6423 22.2798 38.0743 21.8479 38.6056 21.8479C39.1365 21.8479 39.5689 22.2798 39.5689 22.8111V24.5742L37.6428 23.8289V22.8111H37.6423ZM17.0922 22.8111C17.0922 22.2798 17.5242 21.8479 18.055 21.8479C18.5863 21.8479 19.0183 22.2798 19.0183 22.8111V23.8289L17.0922 24.5742V22.8111ZM9.8645 25.3938C9.8645 24.8629 10.2965 24.431 10.8278 24.431C11.3586 24.431 11.7906 24.8629 11.7906 25.3938V26.6256L9.8645 27.3709V25.3938ZM2.75547 35.8458C2.61528 35.8603 2.51772 35.8049 2.48828 35.7719V34.6777C2.48828 33.0719 3.64009 31.5888 5.42251 30.8993L22.6319 24.2402V33.7896L2.75547 35.8458ZM17.8639 48.0507C17.8639 47.66 18.0963 47.3089 18.4562 47.1564L22.6319 45.3858V50.4809H17.8639V48.0507ZM29.2936 55.1492C29.2936 55.6805 28.8616 56.1124 28.3303 56.1124C27.7995 56.1124 27.367 55.6805 27.367 55.1492C27.367 54.1235 27.367 47.7444 27.367 46.8286C27.367 46.2902 27.7907 45.8042 28.3532 45.8156C28.8924 45.8288 29.2932 46.2718 29.2932 46.7776C29.2936 47.6517 29.2936 54.1916 29.2936 55.1492ZM38.2044 47.1564C38.5643 47.3089 38.7968 47.66 38.7968 48.0507V50.4809H34.0287V45.3858L38.2044 47.1564ZM44.87 25.3938C44.87 24.8629 45.302 24.431 45.8333 24.431C46.3642 24.431 46.7961 24.8629 46.7961 25.3938V27.3709L45.9541 27.0453L44.87 26.6256V25.3938Z" fill="inherit"/>
    </symbol>
    <symbol id="cs-icon4" viewBox="0 0 58 58">
        <path d="M35.8351 31.0096C34.8481 30.0227 33.2423 30.0227 32.2554 31.0096C32.0415 31.2235 31.7547 31.3414 31.4482 31.3414C31.1417 31.3413 30.8551 31.2235 30.6411 31.0096L26.9911 27.3596C26.7772 27.1456 26.6593 26.859 26.6593 26.5524C26.6593 26.246 26.7771 25.9593 26.9911 25.7452C27.9779 24.7583 27.9779 23.1524 26.9911 22.1655L24.8503 20.0246C23.8634 19.0376 22.2576 19.0378 21.2705 20.0246C18.6195 22.6758 18.6195 26.9896 21.2705 29.6408L23.0254 31.3957L24.2187 30.2025L22.4638 28.4476C20.4705 26.4544 20.4705 23.2112 22.4637 21.218C22.7929 20.8888 23.3283 20.8891 23.6569 21.218L25.7977 23.3589C26.1267 23.6878 26.1267 24.2232 25.7979 24.5521C25.2651 25.0849 24.9715 25.7953 24.9717 26.5526C24.9717 27.3099 25.2651 28.0202 25.7977 28.5529L29.4477 32.2028C29.9804 32.7355 30.6908 33.0289 31.4481 33.029H31.4482C32.2054 33.029 32.9158 32.7356 33.4485 32.203C33.6063 32.0451 33.8182 31.9583 34.0451 31.9583C34.272 31.9583 34.4839 32.0451 34.6417 32.203L36.7826 34.3438C37.1116 34.6728 37.1116 35.2082 36.7826 35.5371C34.7894 37.5303 31.5462 37.5302 29.553 35.5371L27.7982 33.7823L26.6049 34.9755L28.3597 36.7303C29.6855 38.0561 31.4265 38.7187 33.1678 38.7187C34.9089 38.7187 36.6504 38.0558 37.9759 36.7304C38.9627 35.7436 38.9627 34.1376 37.9759 33.1507L35.8351 31.0096Z" fill="inherit"/>
        <path d="M24.2129 32.5862L25.406 31.3931L26.599 32.5862L25.406 33.7792L24.2129 32.5862Z" fill="inherit"/>
        <path d="M53.5814 24.7812C51.5441 24.7812 49.8396 26.2329 49.4476 28.1562H45.0093C44.8121 24.3706 43.295 20.9288 40.9112 18.2822L45.1885 14.0049L43.9952 12.8118L39.718 17.089C37.0714 14.7053 33.6296 13.1883 29.8439 12.9911V8.55251C31.7672 8.16056 33.2189 6.45608 33.2189 4.4187C33.2189 2.09243 31.3265 0.199951 29.0002 0.199951C26.6739 0.199951 24.7814 2.09243 24.7814 4.4187C24.7814 6.45608 26.2331 8.16056 28.1564 8.55251V12.9909C24.3708 13.1881 20.929 14.705 18.2824 17.0888L14.0052 12.8115L12.8119 14.0047L17.0891 18.282C14.7054 20.9285 13.1884 24.3703 12.9911 28.156H8.55276C8.16081 26.2327 6.45632 24.781 4.41895 24.781C2.09267 24.7812 0.200195 26.6737 0.200195 29C0.200195 31.3262 2.09267 33.2187 4.41895 33.2187C6.45632 33.2187 8.16081 31.767 8.55276 29.8437H12.9911C13.1883 33.6293 14.7054 37.0712 17.0891 39.7177L12.8119 43.995L14.0052 45.1881L18.2824 40.9109C20.929 43.2947 24.3708 44.8116 28.1564 45.0088V49.4472C26.2331 49.8391 24.7814 51.5436 24.7814 53.581C24.7814 55.9072 26.6739 57.7997 29.0002 57.7997C31.3265 57.7997 33.2189 55.9072 33.2189 53.581C33.2189 51.5436 31.7672 49.8391 29.8439 49.4472V45.0088C33.6296 44.8116 37.0714 43.2947 39.718 40.9109L43.9952 45.1881L45.1885 43.995L40.9112 39.7177C43.295 37.0712 44.812 33.6293 45.0093 29.8437H49.4476C49.8396 31.767 51.5441 33.2187 53.5814 33.2187C55.9077 33.2187 57.8002 31.3262 57.8002 29C57.8002 26.6737 55.9077 24.7812 53.5814 24.7812ZM4.41895 31.5312C3.02327 31.5312 1.8877 30.3957 1.8877 29C1.8877 27.6042 3.02327 26.4687 4.41895 26.4687C5.81462 26.4687 6.9502 27.6042 6.9502 29C6.9502 30.3957 5.81462 31.5312 4.41895 31.5312ZM26.4689 4.4187C26.4689 3.02291 27.6045 1.88745 29.0002 1.88745C30.3959 1.88745 31.5314 3.02291 31.5314 4.4187C31.5314 5.81449 30.3959 6.94995 29.0002 6.94995C27.6045 6.94995 26.4689 5.81449 26.4689 4.4187ZM31.5314 53.5812C31.5314 54.977 30.3959 56.1124 29.0002 56.1124C27.6045 56.1124 26.4689 54.977 26.4689 53.5812C26.4689 52.1854 27.6045 51.0499 29.0002 51.0499C30.3959 51.0499 31.5314 52.1854 31.5314 53.5812ZM29.0002 43.3437C21.091 43.3437 14.6564 36.9091 14.6564 29C14.6564 21.0907 21.091 14.6562 29.0002 14.6562C36.9094 14.6562 43.3439 21.0909 43.3439 29C43.3439 36.909 36.9094 43.3437 29.0002 43.3437ZM53.5814 31.5312C52.1858 31.5312 51.0502 30.3957 51.0502 29C51.0502 27.6042 52.1858 26.4687 53.5814 26.4687C54.9771 26.4687 56.1127 27.6042 56.1127 29C56.1127 30.3957 54.9771 31.5312 53.5814 31.5312Z" fill="inherit"/>
        <path d="M48.7686 44.5491C47.6415 44.5491 46.5822 44.9879 45.7854 45.7848C44.9887 46.5816 44.5498 47.641 44.5498 48.7679C44.5498 49.8948 44.9887 50.9543 45.7854 51.751C46.5822 52.5478 47.6415 52.9867 48.7686 52.9867C49.8955 52.9867 50.9549 52.5478 51.7516 51.7511C52.5484 50.9543 52.9873 49.8948 52.9873 48.7679C52.9873 47.641 52.5484 46.5816 51.7517 45.7848C50.9548 44.9879 49.8954 44.5491 48.7686 44.5491ZM50.5583 50.5577C50.0803 51.0358 49.4447 51.2991 48.7686 51.2991C48.0924 51.2991 47.4568 51.0358 46.9788 50.5577C46.5007 50.0796 46.2373 49.4439 46.2373 48.7678C46.2373 48.0917 46.5007 47.4561 46.9788 46.9779C47.4568 46.4998 48.0924 46.2366 48.7686 46.2366C49.4447 46.2366 50.0803 46.4998 50.5583 46.9779C51.0364 47.4561 51.2998 48.0917 51.2998 48.7678C51.2998 49.4441 51.0364 50.0797 50.5583 50.5577Z" fill="inherit"/>
        <path d="M9.23242 13.4507C10.3594 13.4507 11.4189 13.0118 12.2156 12.215C13.0123 11.4181 13.4512 10.3587 13.4512 9.23193C13.4512 8.10513 13.0123 7.04561 12.2156 6.24888C11.4187 5.45205 10.3594 5.01318 9.23242 5.01318C8.10551 5.01318 7.0461 5.45205 6.24937 6.24877C5.45253 7.04561 5.01367 8.10502 5.01367 9.23193C5.01367 10.3588 5.45253 11.4183 6.24926 12.215C7.04621 13.0118 8.10562 13.4507 9.23242 13.4507ZM7.44255 7.44217C7.92067 6.96405 8.5563 6.7008 9.23242 6.7008C9.90855 6.7008 10.5442 6.96405 11.0222 7.44217C11.5003 7.9203 11.7637 8.55592 11.7637 9.23205C11.7637 9.90817 11.5003 10.5438 11.0222 11.0219C10.5442 11.5 9.90855 11.7633 9.23242 11.7633C8.5563 11.7633 7.92067 11.5 7.44255 11.0218C6.96453 10.5438 6.70117 9.90817 6.70117 9.23205C6.70117 8.55592 6.96453 7.92018 7.44255 7.44217Z" fill="inherit"/>
        <path d="M48.7686 13.4505C49.8955 13.4505 50.9549 13.0117 51.7516 12.2148C52.5484 11.418 52.9873 10.3586 52.9873 9.2318C52.9873 8.105 52.5484 7.04548 51.7516 6.24864H51.7517C50.9549 5.4518 49.8955 5.01294 48.7686 5.01294C47.6415 5.01294 46.5822 5.4518 45.7854 6.24853C44.9887 7.04536 44.5498 8.10478 44.5498 9.23169C44.5498 10.3586 44.9887 11.418 45.7854 12.2147C46.5821 13.0117 47.6415 13.4505 48.7686 13.4505ZM46.9788 7.44204C47.4568 6.96391 48.0924 6.70066 48.7686 6.70066C49.4447 6.70066 50.0803 6.96391 50.5583 7.44204H50.5584C51.0364 7.92016 51.2998 8.55579 51.2998 9.23191C51.2998 9.90804 51.0364 10.5437 50.5583 11.0218C50.0803 11.4999 49.4447 11.7632 48.7686 11.7632C48.0924 11.7632 47.4568 11.4999 46.9788 11.0217C46.5007 10.5437 46.2373 9.90804 46.2373 9.23191C46.2373 8.55579 46.5007 7.92005 46.9788 7.44204Z" fill="inherit"/>
        <path d="M9.23242 44.5491C8.10551 44.5491 7.0461 44.9879 6.24926 45.7848C5.45253 46.5816 5.01367 47.641 5.01367 48.7679C5.01367 49.8948 5.45253 50.9543 6.24926 51.751C7.0461 52.5478 8.10551 52.9867 9.23242 52.9867C10.3594 52.9867 11.4187 52.5478 12.2156 51.7511C13.0123 50.9543 13.4512 49.8948 13.4512 48.7679C13.4512 47.641 13.0123 46.5816 12.2156 45.7848C11.4187 44.9879 10.3594 44.5491 9.23242 44.5491ZM11.0222 50.5577C10.5442 51.0358 9.90855 51.2991 9.23242 51.2991C8.5563 51.2991 7.92067 51.0358 7.44255 50.5577C6.96453 50.0796 6.70117 49.4439 6.70117 48.7678C6.70117 48.0917 6.96453 47.4561 7.44266 46.9779C7.92067 46.4998 8.5563 46.2366 9.23242 46.2366C9.90855 46.2366 10.5442 46.4998 11.0222 46.9779C11.5003 47.4561 11.7637 48.0917 11.7637 48.7678C11.7637 49.4441 11.5003 50.0797 11.0222 50.5577Z" fill="inherit"/>
        <path d="M31.5312 17.1875H33.2188V18.875H31.5312V17.1875Z" fill="inherit"/>
        <path d="M34.9062 18.875H36.5938V20.5625H34.9062V18.875Z" fill="inherit"/>
    </symbol>  
    <symbol id="cs-icon5" viewBox="0 0 64 64">
        <path d="M1.06689 50.1333C1.65576 50.1333 2.1333 49.6558 2.1333 49.0669V46.9331C2.1333 46.3442 1.65576 45.8667 1.06689 45.8667C0.477539 45.8667 0 46.3442 0 46.9331V49.0669C0 49.6558 0.477539 50.1333 1.06689 50.1333Z" fill="inherit"/>
        <path d="M5.33252 50.1335V45.8669C5.33252 45.2776 4.85498 44.8 4.26562 44.8C3.67676 44.8 3.19922 45.2776 3.19922 45.8669V50.1335C3.19922 50.7229 3.67676 51.2004 4.26562 51.2004C4.85498 51.2004 5.33252 50.7229 5.33252 50.1335Z" fill="inherit"/>
        <path d="M18.1333 50.1335V45.8669C18.1333 45.2776 17.6558 44.8 17.0669 44.8C16.4775 44.8 16 45.2776 16 45.8669V50.1335C16 50.7229 16.4775 51.2004 17.0669 51.2004C17.6558 51.2004 18.1333 50.7229 18.1333 50.1335Z" fill="inherit"/>
        <path d="M9.6001 52.2666V43.7334C9.6001 43.144 9.12256 42.6665 8.5332 42.6665C7.94434 42.6665 7.4668 43.144 7.4668 43.7334V52.2666C7.4668 52.856 7.94434 53.3335 8.5332 53.3335C9.12256 53.3335 9.6001 52.856 9.6001 52.2666Z" fill="inherit"/>
        <path d="M13.8677 52.2666V43.7334C13.8677 43.144 13.3901 42.6665 12.8008 42.6665C12.2119 42.6665 11.7344 43.144 11.7344 43.7334V52.2666C11.7344 52.856 12.2119 53.3335 12.8008 53.3335C13.3901 53.3335 13.8677 52.856 13.8677 52.2666Z" fill="inherit"/>
        <path d="M22.3989 54.3999V41.6001C22.3989 41.0107 21.9214 40.5332 21.3325 40.5332C20.7432 40.5332 20.2656 41.0107 20.2656 41.6001V54.3999C20.2656 54.9893 20.7432 55.4668 21.3325 55.4668C21.9214 55.4668 22.3989 54.9893 22.3989 54.3999Z" fill="inherit"/>
        <path d="M26.6665 56.5332V39.4668C26.6665 38.8774 26.189 38.3999 25.6001 38.3999C25.0107 38.3999 24.5332 38.8774 24.5332 39.4668V56.5332C24.5332 57.1226 25.0107 57.6001 25.6001 57.6001C26.189 57.6001 26.6665 57.1226 26.6665 56.5332Z" fill="inherit"/>
        <path d="M30.9341 62.9331V33.0669C30.9341 32.4775 30.4565 32 29.8677 32C29.2783 32 28.8008 32.4775 28.8008 33.0669V62.9331C28.8008 63.5225 29.2783 64 29.8677 64C30.4565 64 30.9341 63.5225 30.9341 62.9331Z" fill="inherit"/>
        <path d="M62.9336 45.8667C62.3447 45.8667 61.8672 46.3442 61.8672 46.9331V49.0669C61.8672 49.6558 62.3447 50.1333 62.9336 50.1333C63.5229 50.1333 64.0005 49.6558 64.0005 49.0669V46.9331C64.0005 46.3442 63.5229 45.8667 62.9336 45.8667Z" fill="inherit"/>
        <path d="M60.7993 50.1335V45.8669C60.7993 45.2776 60.3218 44.8 59.7329 44.8C59.1436 44.8 58.666 45.2776 58.666 45.8669V50.1335C58.666 50.7229 59.1436 51.2004 59.7329 51.2004C60.3218 51.2004 60.7993 50.7229 60.7993 50.1335Z" fill="inherit"/>
        <path d="M48.0005 50.1335V45.8669C48.0005 45.2776 47.5229 44.8 46.9336 44.8C46.3447 44.8 45.8672 45.2776 45.8672 45.8669V50.1335C45.8672 50.7229 46.3447 51.2004 46.9336 51.2004C47.5229 51.2004 48.0005 50.7229 48.0005 50.1335Z" fill="inherit"/>
        <path d="M56.5337 52.2666V43.7334C56.5337 43.144 56.0562 42.6665 55.4673 42.6665C54.8779 42.6665 54.4004 43.144 54.4004 43.7334V52.2666C54.4004 52.856 54.8779 53.3335 55.4673 53.3335C56.0562 53.3335 56.5337 52.856 56.5337 52.2666Z" fill="inherit"/>
        <path d="M52.2661 52.2666V43.7334C52.2661 43.144 51.7886 42.6665 51.1997 42.6665C50.6104 42.6665 50.1328 43.144 50.1328 43.7334V52.2666C50.1328 52.856 50.6104 53.3335 51.1997 53.3335C51.7886 53.3335 52.2661 52.856 52.2661 52.2666Z" fill="inherit"/>
        <path d="M43.7329 54.3999V41.6001C43.7329 41.0107 43.2554 40.5332 42.666 40.5332C42.0771 40.5332 41.5996 41.0107 41.5996 41.6001V54.3999C41.5996 54.9893 42.0771 55.4668 42.666 55.4668C43.2554 55.4668 43.7329 54.9893 43.7329 54.3999Z" fill="inherit"/>
        <path d="M39.4673 56.5332V39.4668C39.4673 38.8774 38.9897 38.3999 38.4004 38.3999C37.8115 38.3999 37.334 38.8774 37.334 39.4668V56.5332C37.334 57.1226 37.8115 57.6001 38.4004 57.6001C38.9897 57.6001 39.4673 57.1226 39.4673 56.5332Z" fill="inherit"/>
        <path d="M35.1997 62.9331V33.0669C35.1997 32.4775 34.7222 32 34.1328 32C33.5439 32 33.0664 32.4775 33.0664 33.0669V62.9331C33.0664 63.5225 33.5439 64 34.1328 64C34.7222 64 35.1997 63.5225 35.1997 62.9331Z" fill="inherit"/>
        <path d="M57.6006 0H36.2671C32.7344 0.00390625 29.8711 2.86719 29.8672 6.3999V21.3335C29.8711 24.8662 32.7344 27.7295 36.2671 27.7334H38.1255L37.3423 34.001C37.2896 34.4229 37.4922 34.8359 37.8584 35.0518C38.2246 35.2681 38.6841 35.2461 39.0283 34.9956L49.0137 27.7334H57.6006C61.1333 27.7295 63.9966 24.8662 64.0005 21.3335V6.3999C63.9966 2.86719 61.1333 0.00390625 57.6006 0V0ZM61.8672 21.3335C61.8647 23.689 59.9561 25.5977 57.6006 25.6001H51.1816C51.189 25.3765 51.124 25.1567 50.9961 24.9731C50.8301 24.7437 50.5796 24.5898 50.3003 24.5459C50.0205 24.5015 49.7349 24.5708 49.5063 24.7373L39.7646 31.8228L40.5254 25.7324C40.5781 25.3516 40.4219 24.9722 40.1162 24.7388C39.8105 24.5054 39.4033 24.4546 39.0498 24.6055C38.6968 24.7563 38.4517 25.0859 38.4087 25.4678L38.3921 25.6001H36.2671C33.9116 25.5977 32.0029 23.689 32.0005 21.3335V6.3999C32.0029 4.04443 33.9116 2.13574 36.2671 2.1333H57.6006C59.9561 2.13574 61.8647 4.04443 61.8672 6.3999V21.3335Z" fill="inherit"/>
        <path d="M38.3989 10.6665C36.6318 10.6665 35.1992 12.0991 35.1992 13.8667C35.1992 15.6338 36.6318 17.0669 38.3989 17.0669C40.1665 17.0669 41.5991 15.6338 41.5991 13.8667C41.5972 12.1001 40.1655 10.6685 38.3989 10.6665ZM38.3989 14.9331C37.8101 14.9331 37.3325 14.4556 37.3325 13.8667C37.3325 13.2773 37.8101 12.7998 38.3989 12.7998C38.9883 12.7998 39.4658 13.2773 39.4658 13.8667C39.4653 14.4556 38.9878 14.9326 38.3989 14.9331Z" fill="inherit"/>
        <path d="M46.9341 10.6665C45.167 10.6665 43.7344 12.0991 43.7344 13.8667C43.7344 15.6338 45.167 17.0669 46.9341 17.0669C48.7017 17.0669 50.1343 15.6338 50.1343 13.8667C50.1323 12.1001 48.7007 10.6685 46.9341 10.6665ZM46.9341 14.9331C46.3452 14.9331 45.8677 14.4556 45.8677 13.8667C45.8677 13.2773 46.3452 12.7998 46.9341 12.7998C47.5234 12.7998 48.001 13.2773 48.001 13.8667C48.0005 14.4556 47.5234 14.9326 46.9341 14.9331Z" fill="inherit"/>
        <path d="M55.4658 10.6665C53.6982 10.6665 52.2656 12.0991 52.2656 13.8667C52.2656 15.6338 53.6982 17.0669 55.4658 17.0669C57.2329 17.0669 58.6655 15.6338 58.6655 13.8667C58.6636 12.1001 57.2324 10.6685 55.4658 10.6665ZM55.4658 14.9331C54.8765 14.9331 54.3989 14.4556 54.3989 13.8667C54.3989 13.2773 54.8765 12.7998 55.4658 12.7998C56.0547 12.7998 56.5322 13.2773 56.5322 13.8667C56.5317 14.4556 56.0547 14.9326 55.4658 14.9331Z" fill="inherit"/>
    </symbol>                                  
</svg>