<svg width="39" height="39" viewBox="0 0 39 39" fill="none" xmlns="http://www.w3.org/2000/svg">
<path d="M19.375 0C15.543 0 11.797 1.13632 8.61084 3.26528C5.42463 5.39423 2.94129 8.42019 1.47484 11.9605C0.00839487 15.5008 -0.375295 19.3965 0.372294 23.1549C1.11988 26.9133 2.96517 30.3655 5.67482 33.0752C8.38446 35.7848 11.8368 37.6301 15.5951 38.3777C19.3535 39.1253 23.2492 38.7416 26.7895 37.2752C30.3298 35.8087 33.3558 33.3254 35.4847 30.1392C37.6137 26.953 38.75 23.207 38.75 19.375C38.7444 14.2382 36.7013 9.31332 33.069 5.68102C29.4367 2.04872 24.5119 0.00562471 19.375 0ZM19.375 37.5C15.7902 37.5 12.2859 36.437 9.3053 34.4454C6.32466 32.4538 4.00153 29.623 2.62969 26.3111C1.25785 22.9992 0.898919 19.3549 1.59828 15.839C2.29763 12.3231 4.02387 9.09352 6.5587 6.55869C9.09353 4.02386 12.3231 2.29762 15.839 1.59827C19.3549 0.89891 22.9992 1.25785 26.3112 2.62968C29.6231 4.00152 32.4538 6.32465 34.4454 9.30529C36.437 12.2859 37.5 15.7902 37.5 19.375C37.4944 24.1803 35.583 28.7872 32.1851 32.1851C28.7872 35.583 24.1803 37.4944 19.375 37.5Z" fill="#32c36c"/>
<path d="M17.6831 7.94187C17.8003 8.05909 17.9593 8.12496 18.125 8.125H20.625C20.7907 8.12496 20.9497 8.05909 21.0669 7.94187L22.3169 6.69187C22.4341 6.57469 22.5 6.41575 22.5 6.25V3.75C22.5 3.58425 22.4341 3.42531 22.3169 3.30813L21.0669 2.05813C20.9497 1.94091 20.7907 1.87504 20.625 1.875H18.125C17.9593 1.87504 17.8003 1.94091 17.6831 2.05813L16.4331 3.30813C16.3159 3.42531 16.25 3.58425 16.25 3.75V6.25C16.25 6.41575 16.3159 6.57469 16.4331 6.69187L17.6831 7.94187ZM17.5 4.00875L18.3837 3.125H20.3662L21.25 4.00875V5.99125L20.3662 6.875H18.3837L17.5 5.99125V4.00875Z" fill="#32c36c"/>
<path d="M9.375 19.375C9.375 21.3528 9.96149 23.2862 11.0603 24.9307C12.1591 26.5752 13.7209 27.8569 15.5482 28.6138C17.3754 29.3707 19.3861 29.5687 21.3259 29.1829C23.2657 28.797 25.0475 27.8446 26.4461 26.4461C27.8446 25.0475 28.797 23.2657 29.1829 21.3259C29.5687 19.3861 29.3707 17.3754 28.6138 15.5482C27.8569 13.7209 26.5752 12.1591 24.9307 11.0603C23.2862 9.96149 21.3528 9.375 19.375 9.375C16.7238 9.37814 14.1821 10.4327 12.3074 12.3074C10.4327 14.1821 9.37814 16.7238 9.375 19.375ZM28.125 19.375C28.125 21.1056 27.6118 22.7973 26.6504 24.2362C25.6889 25.6752 24.3223 26.7967 22.7235 27.4589C21.1246 28.1212 19.3653 28.2945 17.668 27.9569C15.9706 27.6193 14.4115 26.7859 13.1878 25.5622C11.9641 24.3385 11.1307 22.7794 10.7931 21.082C10.4555 19.3847 10.6288 17.6254 11.2911 16.0265C11.9533 14.4277 13.0748 13.0611 14.5138 12.0996C15.9527 11.1382 17.6444 10.625 19.375 10.625C21.6949 10.6275 23.919 11.5502 25.5594 13.1906C27.1999 14.831 28.1225 17.0551 28.125 19.375Z" fill="#32c36c"/>
<path d="M21.0669 30.8081C20.9497 30.6909 20.7907 30.625 20.625 30.625H18.125C17.9593 30.625 17.8003 30.6909 17.6831 30.8081L16.4331 32.0581C16.3159 32.1753 16.25 32.3343 16.25 32.5V35C16.25 35.1657 16.3159 35.3247 16.4331 35.4419L17.6831 36.6919C17.8003 36.8091 17.9593 36.875 18.125 36.875H20.625C20.7907 36.875 20.9497 36.8091 21.0669 36.6919L22.3169 35.4419C22.4341 35.3247 22.5 35.1657 22.5 35V32.5C22.5 32.3343 22.4341 32.1753 22.3169 32.0581L21.0669 30.8081ZM21.25 34.7412L20.3662 35.625H18.3837L17.5 34.7412V32.7588L18.3837 31.875H20.3662L21.25 32.7588V34.7412Z" fill="#32c36c"/>
<path d="M6.69187 22.3169L7.94187 21.0669C8.05909 20.9497 8.12496 20.7907 8.125 20.625V18.125C8.12496 17.9593 8.05909 17.8003 7.94187 17.6831L6.69187 16.4331C6.57469 16.3159 6.41575 16.25 6.25 16.25H3.75C3.58425 16.25 3.42531 16.3159 3.30813 16.4331L2.05813 17.6831C1.94091 17.8003 1.87504 17.9593 1.875 18.125V20.625C1.87504 20.7907 1.94091 20.9497 2.05813 21.0669L3.30813 22.3169C3.42531 22.4341 3.58425 22.5 3.75 22.5H6.25C6.41575 22.5 6.57469 22.4341 6.69187 22.3169ZM4.00875 21.25L3.125 20.3662V18.3837L4.00875 17.5H5.99125L6.875 18.3837V20.3662L5.99125 21.25H4.00875Z" fill="#32c36c"/>
<path d="M32.0581 16.4331L30.8081 17.6831C30.6909 17.8003 30.625 17.9593 30.625 18.125V20.625C30.625 20.7907 30.6909 20.9497 30.8081 21.0669L32.0581 22.3169C32.1753 22.4341 32.3343 22.5 32.5 22.5H35C35.1657 22.5 35.3247 22.4341 35.4419 22.3169L36.6919 21.0669C36.8091 20.9497 36.875 20.7907 36.875 20.625V18.125C36.875 17.9593 36.8091 17.8003 36.6919 17.6831L35.4419 16.4331C35.3247 16.3159 35.1657 16.25 35 16.25H32.5C32.3343 16.25 32.1753 16.3159 32.0581 16.4331ZM34.7412 17.5L35.625 18.3837V20.3662L34.7412 21.25H32.7588L31.875 20.3662V18.3837L32.7588 17.5H34.7412Z" fill="#32c36c"/>
<path d="M30.625 6.25H28.125C27.9593 6.25004 27.8003 6.31591 27.6831 6.43313L26.4331 7.68313C26.3159 7.80031 26.25 7.95925 26.25 8.125V10.625C26.25 10.7907 26.3159 10.9497 26.4331 11.0669L27.6831 12.3169C27.8003 12.4341 27.9593 12.5 28.125 12.5H30.625C30.7907 12.5 30.9497 12.4341 31.0669 12.3169L32.3169 11.0669C32.4341 10.9497 32.5 10.7907 32.5 10.625V8.125C32.5 7.95925 32.4341 7.80031 32.3169 7.68313L31.0669 6.43313C30.9497 6.31591 30.7907 6.25004 30.625 6.25ZM31.25 10.3663L30.3662 11.25H28.3838L27.5 10.3663V8.38375L28.3838 7.5H30.3662L31.25 8.38375V10.3663Z" fill="#32c36c"/>
<path d="M7.68313 12.3169C7.80031 12.4341 7.95925 12.5 8.125 12.5H10.625C10.7907 12.5 10.9497 12.4341 11.0669 12.3169L12.3169 11.0669C12.4341 10.9497 12.5 10.7907 12.5 10.625V8.125C12.5 7.95925 12.4341 7.80031 12.3169 7.68313L11.0669 6.43313C10.9497 6.31591 10.7907 6.25004 10.625 6.25H8.125C7.95925 6.25004 7.80031 6.31591 7.68313 6.43313L6.43313 7.68313C6.31591 7.80031 6.25004 7.95925 6.25 8.125V10.625C6.25004 10.7907 6.31591 10.9497 6.43313 11.0669L7.68313 12.3169ZM7.5 8.38375L8.38375 7.5H10.3663L11.25 8.38375V10.3663L10.3663 11.25H8.38375L7.5 10.3663V8.38375Z" fill="#32c36c"/>
<path d="M31.0669 26.4331C30.9497 26.3159 30.7907 26.25 30.625 26.25H28.125C27.9593 26.25 27.8003 26.3159 27.6831 26.4331L26.4331 27.6831C26.3159 27.8003 26.25 27.9593 26.25 28.125V30.625C26.25 30.7907 26.3159 30.9497 26.4331 31.0669L27.6831 32.3169C27.8003 32.4341 27.9593 32.5 28.125 32.5H30.625C30.7907 32.5 30.9497 32.4341 31.0669 32.3169L32.3169 31.0669C32.4341 30.9497 32.5 30.7907 32.5 30.625V28.125C32.5 27.9593 32.4341 27.8003 32.3169 27.6831L31.0669 26.4331ZM31.25 30.3662L30.3662 31.25H28.3838L27.5 30.3662V28.3838L28.3838 27.5H30.3662L31.25 28.3838V30.3662Z" fill="#32c36c"/>
<path d="M11.0669 26.4331C10.9497 26.3159 10.7907 26.25 10.625 26.25H8.125C7.95925 26.25 7.80031 26.3159 7.68313 26.4331L6.43313 27.6831C6.31591 27.8003 6.25004 27.9593 6.25 28.125V30.625C6.25004 30.7907 6.31591 30.9497 6.43313 31.0669L7.68313 32.3169C7.80031 32.4341 7.95925 32.5 8.125 32.5H10.625C10.7907 32.5 10.9497 32.4341 11.0669 32.3169L12.3169 31.0669C12.4341 30.9497 12.5 30.7907 12.5 30.625V28.125C12.5 27.9593 12.4341 27.8003 12.3169 27.6831L11.0669 26.4331ZM11.25 30.3662L10.3663 31.25H8.38375L7.5 30.3662V28.3838L8.38375 27.5H10.3663L11.25 28.3838V30.3662Z" fill="#32c36c"/>
</svg>
