<svg width="40" height="40" viewBox="0 0 40 40" fill="none" xmlns="http://www.w3.org/2000/svg">
<mask id="path-1-outside-1_334_516" maskUnits="userSpaceOnUse" x="-1" y="-1" width="42" height="42" fill="black">
<rect fill="white" x="-1" y="-1" width="42" height="42"/>
<path d="M20 7.15602C12.918 7.15602 7.15617 12.9177 7.15617 20C7.15617 27.082 12.918 32.8438 20 32.8438C27.082 32.8438 32.8438 27.082 32.8438 20C32.8438 12.9177 27.082 7.15602 20 7.15602ZM20 31.7627C13.5138 31.7627 8.23727 26.4861 8.23727 20C8.23727 13.5139 13.5138 8.23711 20 8.23711C26.4862 8.23711 31.7627 13.5138 31.7627 20C31.7627 26.4862 26.4862 31.7627 20 31.7627ZM39.6537 17.5509L36.6702 16.4026C36.238 14.3886 35.4523 12.4924 34.3307 10.7582L35.6293 7.83453C35.7201 7.63023 35.6754 7.39094 35.5174 7.23297L32.7672 4.48273C32.6088 4.32438 32.3691 4.28039 32.1658 4.37102L29.2407 5.67008C27.5068 4.54867 25.6114 3.76273 23.5981 3.33055L22.449 0.346484C22.3687 0.137812 22.1681 0 21.9447 0H18.0553C17.8319 0 17.6313 0.137812 17.551 0.346484L16.402 3.33055C14.3891 3.76273 12.4933 4.54852 10.7591 5.67008L7.8343 4.37102C7.63086 4.28039 7.39086 4.32438 7.23289 4.48273L4.48266 7.23305C4.32461 7.39109 4.27992 7.63039 4.37078 7.83461L5.66969 10.7588C4.54812 12.4932 3.76234 14.389 3.33016 16.4023L0.34625 17.5507C0.137578 17.6313 0 17.8316 0 18.0553V21.9447C0 22.1681 0.137578 22.3687 0.34625 22.449L3.32977 23.5977C3.76195 25.6113 4.54773 27.5074 5.66961 29.2416L4.3707 32.1653C4.27992 32.3698 4.32461 32.6091 4.48258 32.7671L7.23281 35.5173C7.39086 35.6754 7.62977 35.7197 7.83461 35.6292L10.759 34.3299C12.4939 35.4518 14.3893 36.2377 16.402 36.6695L17.5509 39.6537C17.6312 39.8623 17.8318 39.9999 18.0552 39.9999H21.9446C22.168 39.9999 22.3687 39.8623 22.4489 39.6537L23.5976 36.6702C25.6113 36.238 27.5073 35.4522 29.2416 34.3303L32.1652 35.6292C32.3694 35.7197 32.6087 35.6753 32.767 35.5173L35.5173 32.7671C35.6753 32.6091 35.72 32.3698 35.6291 32.1653L34.3298 29.2405C35.4517 27.5063 36.2372 25.6109 36.6694 23.598L39.6536 22.449C39.8623 22.3687 39.9998 22.1681 39.9998 21.9447V18.0553C40 17.8316 39.8624 17.6313 39.6537 17.5509ZM38.9189 21.5734L36.0051 22.6953C35.8316 22.7618 35.7049 22.9131 35.669 23.0955C35.2608 25.1742 34.4527 27.1231 33.2675 28.8887C33.1641 29.0428 33.1468 29.2391 33.2221 29.4091L34.4904 32.2653L32.2652 34.4905L29.4102 33.2225C29.2409 33.1476 29.0438 33.1641 28.8897 33.2679C27.1241 34.4535 25.1748 35.2615 23.0951 35.6701C22.9128 35.7059 22.7615 35.8327 22.6949 36.0062L21.5734 38.919H18.4266L17.3047 36.0052C17.2382 35.8316 17.0869 35.705 16.9045 35.6691C14.8261 35.2609 12.8769 34.4528 11.1109 33.2676C10.9568 33.1637 10.7598 33.1472 10.5905 33.2222L7.73469 34.4905L5.50953 32.2653L6.7775 29.4102C6.85281 29.2406 6.83555 29.0439 6.73211 28.8898C5.54648 27.1242 4.73852 25.1749 4.32992 23.0952C4.29406 22.9129 4.16734 22.7616 3.99383 22.695L1.08109 21.5734V18.4264L3.99461 17.305C4.16813 17.2381 4.29477 17.087 4.3307 16.9047C4.73891 14.8255 5.54695 12.8762 6.7325 11.1109C6.83594 10.9566 6.8532 10.7599 6.77789 10.5901L5.50961 7.73508L7.73477 5.50961L10.5902 6.77789C10.7602 6.85375 10.957 6.83664 11.1111 6.73266C12.8766 5.54742 14.8259 4.73922 16.9047 4.33086C17.087 4.29516 17.2383 4.16812 17.3048 3.99477L18.4267 1.08109H21.5735L22.6954 3.99477C22.7619 4.16805 22.9132 4.29516 23.0955 4.33086C25.1747 4.73945 27.1239 5.54758 28.8888 6.73266C29.0429 6.83664 29.2403 6.85375 29.4092 6.77789L32.2654 5.50961L34.4905 7.73492L33.2226 10.5895C33.1473 10.7592 33.1645 10.9559 33.268 11.1103C34.4532 12.8753 35.2616 14.8252 35.6702 16.9049C35.706 17.0872 35.8327 17.2384 36.0062 17.3052L38.9191 18.4264L38.9189 21.5734Z"/>
</mask>
<path d="M20 7.15602C12.918 7.15602 7.15617 12.9177 7.15617 20C7.15617 27.082 12.918 32.8438 20 32.8438C27.082 32.8438 32.8438 27.082 32.8438 20C32.8438 12.9177 27.082 7.15602 20 7.15602ZM20 31.7627C13.5138 31.7627 8.23727 26.4861 8.23727 20C8.23727 13.5139 13.5138 8.23711 20 8.23711C26.4862 8.23711 31.7627 13.5138 31.7627 20C31.7627 26.4862 26.4862 31.7627 20 31.7627ZM39.6537 17.5509L36.6702 16.4026C36.238 14.3886 35.4523 12.4924 34.3307 10.7582L35.6293 7.83453C35.7201 7.63023 35.6754 7.39094 35.5174 7.23297L32.7672 4.48273C32.6088 4.32438 32.3691 4.28039 32.1658 4.37102L29.2407 5.67008C27.5068 4.54867 25.6114 3.76273 23.5981 3.33055L22.449 0.346484C22.3687 0.137812 22.1681 0 21.9447 0H18.0553C17.8319 0 17.6313 0.137812 17.551 0.346484L16.402 3.33055C14.3891 3.76273 12.4933 4.54852 10.7591 5.67008L7.8343 4.37102C7.63086 4.28039 7.39086 4.32438 7.23289 4.48273L4.48266 7.23305C4.32461 7.39109 4.27992 7.63039 4.37078 7.83461L5.66969 10.7588C4.54812 12.4932 3.76234 14.389 3.33016 16.4023L0.34625 17.5507C0.137578 17.6313 0 17.8316 0 18.0553V21.9447C0 22.1681 0.137578 22.3687 0.34625 22.449L3.32977 23.5977C3.76195 25.6113 4.54773 27.5074 5.66961 29.2416L4.3707 32.1653C4.27992 32.3698 4.32461 32.6091 4.48258 32.7671L7.23281 35.5173C7.39086 35.6754 7.62977 35.7197 7.83461 35.6292L10.759 34.3299C12.4939 35.4518 14.3893 36.2377 16.402 36.6695L17.5509 39.6537C17.6312 39.8623 17.8318 39.9999 18.0552 39.9999H21.9446C22.168 39.9999 22.3687 39.8623 22.4489 39.6537L23.5976 36.6702C25.6113 36.238 27.5073 35.4522 29.2416 34.3303L32.1652 35.6292C32.3694 35.7197 32.6087 35.6753 32.767 35.5173L35.5173 32.7671C35.6753 32.6091 35.72 32.3698 35.6291 32.1653L34.3298 29.2405C35.4517 27.5063 36.2372 25.6109 36.6694 23.598L39.6536 22.449C39.8623 22.3687 39.9998 22.1681 39.9998 21.9447V18.0553C40 17.8316 39.8624 17.6313 39.6537 17.5509ZM38.9189 21.5734L36.0051 22.6953C35.8316 22.7618 35.7049 22.9131 35.669 23.0955C35.2608 25.1742 34.4527 27.1231 33.2675 28.8887C33.1641 29.0428 33.1468 29.2391 33.2221 29.4091L34.4904 32.2653L32.2652 34.4905L29.4102 33.2225C29.2409 33.1476 29.0438 33.1641 28.8897 33.2679C27.1241 34.4535 25.1748 35.2615 23.0951 35.6701C22.9128 35.7059 22.7615 35.8327 22.6949 36.0062L21.5734 38.919H18.4266L17.3047 36.0052C17.2382 35.8316 17.0869 35.705 16.9045 35.6691C14.8261 35.2609 12.8769 34.4528 11.1109 33.2676C10.9568 33.1637 10.7598 33.1472 10.5905 33.2222L7.73469 34.4905L5.50953 32.2653L6.7775 29.4102C6.85281 29.2406 6.83555 29.0439 6.73211 28.8898C5.54648 27.1242 4.73852 25.1749 4.32992 23.0952C4.29406 22.9129 4.16734 22.7616 3.99383 22.695L1.08109 21.5734V18.4264L3.99461 17.305C4.16813 17.2381 4.29477 17.087 4.3307 16.9047C4.73891 14.8255 5.54695 12.8762 6.7325 11.1109C6.83594 10.9566 6.8532 10.7599 6.77789 10.5901L5.50961 7.73508L7.73477 5.50961L10.5902 6.77789C10.7602 6.85375 10.957 6.83664 11.1111 6.73266C12.8766 5.54742 14.8259 4.73922 16.9047 4.33086C17.087 4.29516 17.2383 4.16812 17.3048 3.99477L18.4267 1.08109H21.5735L22.6954 3.99477C22.7619 4.16805 22.9132 4.29516 23.0955 4.33086C25.1747 4.73945 27.1239 5.54758 28.8888 6.73266C29.0429 6.83664 29.2403 6.85375 29.4092 6.77789L32.2654 5.50961L34.4905 7.73492L33.2226 10.5895C33.1473 10.7592 33.1645 10.9559 33.268 11.1103C34.4532 12.8753 35.2616 14.8252 35.6702 16.9049C35.706 17.0872 35.8327 17.2384 36.0062 17.3052L38.9191 18.4264L38.9189 21.5734Z" fill="#FFF"/>
<path d="M39.6537 17.5509L39.7256 17.3642L39.7256 17.3642L39.6537 17.5509ZM36.6702 16.4026L36.4747 16.4445L36.4974 16.5504L36.5984 16.5892L36.6702 16.4026ZM34.3307 10.7582L34.1479 10.677L34.104 10.7759L34.1628 10.8668L34.3307 10.7582ZM35.6293 7.83453L35.4465 7.75332L35.4465 7.75335L35.6293 7.83453ZM35.5174 7.23297L35.376 7.37439L35.5174 7.23297ZM32.7672 4.48273L32.9086 4.34131L32.7672 4.48273ZM32.1658 4.37102L32.247 4.5538L32.2472 4.5537L32.1658 4.37102ZM29.2407 5.67008L29.1321 5.83802L29.223 5.89679L29.3219 5.85286L29.2407 5.67008ZM23.5981 3.33055L23.4115 3.40242L23.4504 3.50338L23.5561 3.52609L23.5981 3.33055ZM22.449 0.346484L22.2623 0.418261L22.2623 0.418358L22.449 0.346484ZM17.551 0.346484L17.7377 0.418349L17.7377 0.418261L17.551 0.346484ZM16.402 3.33055L16.444 3.52609L16.5498 3.50338L16.5887 3.40241L16.402 3.33055ZM10.7591 5.67008L10.6779 5.85286L10.7768 5.89679L10.8677 5.83802L10.7591 5.67008ZM7.8343 4.37102L7.75291 4.55371L7.75311 4.5538L7.8343 4.37102ZM7.23289 4.48273L7.37431 4.62415L7.37449 4.62398L7.23289 4.48273ZM4.48266 7.23305L4.62408 7.37447L4.62408 7.37447L4.48266 7.23305ZM4.37078 7.83461L4.55356 7.75342L4.55351 7.75331L4.37078 7.83461ZM5.66969 10.7588L5.83763 10.8674L5.8964 10.7765L5.85247 10.6776L5.66969 10.7588ZM3.33016 16.4023L3.40199 16.5889L3.50299 16.55L3.5257 16.4442L3.33016 16.4023ZM0.34625 17.5507L0.274412 17.364L0.27423 17.3641L0.34625 17.5507ZM0.34625 22.449L0.418109 22.2623L0.418027 22.2623L0.34625 22.449ZM3.32977 23.5977L3.52531 23.5557L3.50261 23.4499L3.40162 23.411L3.32977 23.5977ZM5.66961 29.2416L5.85238 29.3228L5.89634 29.2239L5.83753 29.133L5.66961 29.2416ZM4.3707 32.1653L4.18793 32.0841L4.18791 32.0842L4.3707 32.1653ZM4.48258 32.7671L4.34112 32.9085L4.34116 32.9085L4.48258 32.7671ZM7.23281 35.5173L7.09139 35.6588L7.23281 35.5173ZM7.83461 35.6292L7.91541 35.8122L7.91581 35.812L7.83461 35.6292ZM10.759 34.3299L10.8676 34.162L10.7767 34.1032L10.6778 34.1471L10.759 34.3299ZM16.402 36.6695L16.5886 36.5976L16.5497 36.4966L16.4439 36.4739L16.402 36.6695ZM17.5509 39.6537L17.7376 39.5819L17.7376 39.5818L17.5509 39.6537ZM22.4489 39.6537L22.2623 39.5818L22.2622 39.5819L22.4489 39.6537ZM23.5976 36.6702L23.5556 36.4746L23.4498 36.4973L23.4109 36.5983L23.5976 36.6702ZM29.2416 34.3303L29.3228 34.1475L29.2238 34.1036L29.1329 34.1624L29.2416 34.3303ZM32.1652 35.6292L32.084 35.812L32.0842 35.8121L32.1652 35.6292ZM32.767 35.5173L32.9083 35.6589L32.9085 35.6588L32.767 35.5173ZM35.5173 32.7671L35.3758 32.6257L35.5173 32.7671ZM35.6291 32.1653L35.4464 32.2465L35.4464 32.2465L35.6291 32.1653ZM34.3298 29.2405L34.1619 29.1319L34.1031 29.2228L34.1471 29.3217L34.3298 29.2405ZM36.6694 23.598L36.5975 23.4113L36.4965 23.4502L36.4738 23.556L36.6694 23.598ZM39.6536 22.449L39.5818 22.2623L39.5817 22.2623L39.6536 22.449ZM39.9998 18.0553L39.7998 18.0552V18.0553H39.9998ZM38.9189 21.5734L38.9908 21.7601L39.1189 21.7107L39.1189 21.5734L38.9189 21.5734ZM36.0051 22.6953L36.0766 22.8821L36.0769 22.882L36.0051 22.6953ZM35.669 23.0955L35.4728 23.0568L35.4727 23.0569L35.669 23.0955ZM33.2675 28.8887L33.1014 28.7772L33.1014 28.7772L33.2675 28.8887ZM33.2221 29.4091L33.0393 29.4902L33.0393 29.4903L33.2221 29.4091ZM34.4904 32.2653L34.6318 32.4067L34.7289 32.3096L34.6732 32.1841L34.4904 32.2653ZM32.2652 34.4905L32.1841 34.6733L32.3096 34.729L32.4067 34.6319L32.2652 34.4905ZM29.4102 33.2225L29.4913 33.0397L29.4911 33.0396L29.4102 33.2225ZM28.8897 33.2679L29.0012 33.4339L29.0014 33.4338L28.8897 33.2679ZM23.0951 35.6701L23.0565 35.4738L23.0565 35.4738L23.0951 35.6701ZM22.6949 36.0062L22.8816 36.078L22.8817 36.0778L22.6949 36.0062ZM21.5734 38.919V39.119H21.7107L21.76 38.9908L21.5734 38.919ZM18.4266 38.919L18.2399 38.9908L18.2893 39.119H18.4266V38.919ZM17.3047 36.0052L17.1179 36.0767L17.118 36.077L17.3047 36.0052ZM16.9045 35.6691L16.9432 35.4728L16.9431 35.4728L16.9045 35.6691ZM11.1109 33.2676L10.9992 33.4335L10.9995 33.4336L11.1109 33.2676ZM10.5905 33.2222L10.5095 33.0393L10.5093 33.0394L10.5905 33.2222ZM7.73469 34.4905L7.59327 34.6319L7.69036 34.729L7.81586 34.6733L7.73469 34.4905ZM5.50953 32.2653L5.32675 32.1841L5.27101 32.3096L5.36811 32.4067L5.50953 32.2653ZM6.7775 29.4102L6.96029 29.4914L6.96029 29.4914L6.7775 29.4102ZM6.73211 28.8898L6.89818 28.7783L6.89815 28.7783L6.73211 28.8898ZM4.32992 23.0952L4.52617 23.0566L4.52616 23.0565L4.32992 23.0952ZM3.99383 22.695L3.92196 22.8816L3.9222 22.8817L3.99383 22.695ZM1.08109 21.5734H0.881094V21.7107L1.00923 21.7601L1.08109 21.5734ZM1.08109 18.4264L1.00925 18.2398L0.881094 18.2891V18.4264H1.08109ZM3.99461 17.305L4.06645 17.4917L4.06653 17.4916L3.99461 17.305ZM4.3307 16.9047L4.52693 16.9434L4.52696 16.9432L4.3307 16.9047ZM6.7325 11.1109L6.89853 11.2224L6.89862 11.2223L6.7325 11.1109ZM6.77789 10.5901L6.96072 10.509L6.96067 10.5089L6.77789 10.5901ZM5.50961 7.73508L5.36818 7.59367L5.27108 7.69078L5.32683 7.81627L5.50961 7.73508ZM7.73477 5.50961L7.81595 5.32683L7.69044 5.27108L7.59333 5.3682L7.73477 5.50961ZM10.5902 6.77789L10.6717 6.59525L10.6714 6.59511L10.5902 6.77789ZM11.1111 6.73266L10.9996 6.5666L10.9992 6.56686L11.1111 6.73266ZM16.9047 4.33086L16.8662 4.13459L16.8661 4.13461L16.9047 4.33086ZM17.3048 3.99477L17.1182 3.9229L17.1181 3.92308L17.3048 3.99477ZM18.4267 1.08109V0.881094H18.2894L18.2401 1.00923L18.4267 1.08109ZM21.5735 1.08109L21.7602 1.00923L21.7108 0.881094H21.5735V1.08109ZM22.6954 3.99477L22.8821 3.92312L22.882 3.9229L22.6954 3.99477ZM23.0955 4.33086L23.1341 4.13461L23.134 4.13459L23.0955 4.33086ZM28.8888 6.73266L29.0006 6.56686L29.0002 6.56662L28.8888 6.73266ZM29.4092 6.77789L29.3281 6.5951L29.3273 6.59545L29.4092 6.77789ZM32.2654 5.50961L32.4068 5.36819L32.3097 5.27109L32.1842 5.32682L32.2654 5.50961ZM34.4905 7.73492L34.6733 7.81611L34.7291 7.69061L34.632 7.59351L34.4905 7.73492ZM33.2226 10.5895L33.0398 10.5083L33.0398 10.5084L33.2226 10.5895ZM33.268 11.1103L33.1018 11.2216L33.1019 11.2218L33.268 11.1103ZM35.6702 16.9049L35.4739 16.9435L35.4739 16.9435L35.6702 16.9049ZM36.0062 17.3052L35.9343 17.4919L35.9344 17.4919L36.0062 17.3052ZM38.9191 18.4264L39.1191 18.4264L39.1191 18.2891L38.9909 18.2398L38.9191 18.4264ZM20 6.95602C12.8076 6.95602 6.95617 12.8073 6.95617 20H7.35617C7.35617 13.0282 13.0285 7.35602 20 7.35602V6.95602ZM6.95617 20C6.95617 27.1924 12.8076 33.0438 20 33.0438V32.6438C13.0285 32.6438 7.35617 26.9715 7.35617 20H6.95617ZM20 33.0438C27.1924 33.0438 33.0438 27.1924 33.0438 20H32.6438C32.6438 26.9715 26.9715 32.6438 20 32.6438V33.0438ZM33.0438 20C33.0438 12.8073 27.1924 6.95602 20 6.95602V7.35602C26.9715 7.35602 32.6438 13.0282 32.6438 20H33.0438ZM20 31.5627C13.6243 31.5627 8.43727 26.3756 8.43727 20H8.03727C8.03727 26.5965 13.4034 31.9627 20 31.9627V31.5627ZM8.43727 20C8.43727 13.6244 13.6243 8.43711 20 8.43711V8.03711C13.4034 8.03711 8.03727 13.4035 8.03727 20H8.43727ZM20 8.43711C26.3757 8.43711 31.5627 13.6243 31.5627 20H31.9627C31.9627 13.4034 26.5966 8.03711 20 8.03711V8.43711ZM31.5627 20C31.5627 26.3757 26.3757 31.5627 20 31.5627V31.9627C26.5966 31.9627 31.9627 26.5966 31.9627 20H31.5627ZM39.7256 17.3642L36.7421 16.2159L36.5984 16.5892L39.5819 17.7375L39.7256 17.3642ZM36.8658 16.3606C36.4285 14.3229 35.6333 12.4041 34.4986 10.6496L34.1628 10.8668C35.2712 12.5807 36.0476 14.4543 36.4747 16.4445L36.8658 16.3606ZM34.5135 10.8394L35.8121 7.91572L35.4465 7.75335L34.1479 10.677L34.5135 10.8394ZM35.8121 7.91575C35.9365 7.63569 35.8752 7.30792 35.6588 7.09155L35.376 7.37439C35.4756 7.47395 35.5036 7.62477 35.4465 7.75332L35.8121 7.91575ZM35.6588 7.09155L32.9086 4.34131L32.6258 4.62416L35.376 7.37439L35.6588 7.09155ZM32.9086 4.34131C32.6917 4.12438 32.3634 4.064 32.0844 4.18833L32.2472 4.5537C32.3749 4.49678 32.526 4.52437 32.6258 4.62416L32.9086 4.34131ZM32.0846 4.18823L29.1595 5.48729L29.3219 5.85286L32.247 4.5538L32.0846 4.18823ZM29.3493 5.50214C27.5951 4.36761 25.6772 3.57229 23.6401 3.135L23.5561 3.52609C25.5457 3.95318 27.4185 4.72973 29.1321 5.83802L29.3493 5.50214ZM23.7848 3.25867L22.6356 0.274611L22.2623 0.418358L23.4115 3.40242L23.7848 3.25867ZM22.6357 0.274707C22.5257 -0.0111816 22.2509 -0.2 21.9447 -0.2V0.2C22.0853 0.2 22.2118 0.286807 22.2623 0.418261L22.6357 0.274707ZM21.9447 -0.2H18.0553V0.2H21.9447V-0.2ZM18.0553 -0.2C17.7491 -0.2 17.4743 -0.0111824 17.3643 0.274707L17.7377 0.418261C17.7882 0.286807 17.9147 0.2 18.0553 0.2V-0.2ZM17.3644 0.274619L16.2154 3.25868L16.5887 3.40241L17.7377 0.418349L17.3644 0.274619ZM16.36 3.135C14.3233 3.57229 12.405 4.36745 10.6505 5.50214L10.8677 5.83802C12.5816 4.72959 14.4548 3.95318 16.444 3.52609L16.36 3.135ZM10.8402 5.4873L7.91548 4.18823L7.75311 4.5538L10.6779 5.85286L10.8402 5.4873ZM7.91568 4.18832C7.63675 4.06407 7.308 4.12425 7.09129 4.34149L7.37449 4.62398C7.47372 4.5245 7.62497 4.49672 7.75291 4.55371L7.91568 4.18832ZM7.09147 4.34132L4.34123 7.09163L4.62408 7.37447L7.37431 4.62415L7.09147 4.34132ZM4.34123 7.09163C4.12481 7.30805 4.06345 7.63585 4.18805 7.91591L4.55351 7.75331C4.49639 7.62493 4.52441 7.47414 4.62408 7.37447L4.34123 7.09163ZM4.188 7.9158L5.48691 10.84L5.85247 10.6776L4.55356 7.75342L4.188 7.9158ZM5.50174 10.6502C4.36705 12.4049 3.5719 14.3232 3.13461 16.3603L3.5257 16.4442C3.95279 14.4547 4.7292 12.5815 5.83763 10.8674L5.50174 10.6502ZM3.25832 16.2156L0.274412 17.364L0.418088 17.7374L3.40199 16.5889L3.25832 16.2156ZM0.27423 17.3641C-0.0114878 17.4744 -0.2 17.7489 -0.2 18.0553H0.2C0.2 17.9144 0.286644 17.7881 0.41827 17.7373L0.27423 17.3641ZM-0.2 18.0553V21.9447H0.2V18.0553H-0.2ZM-0.2 21.9447C-0.2 22.2508 -0.0115524 22.5257 0.274473 22.6357L0.418027 22.2623C0.286709 22.2118 0.2 22.0855 0.2 21.9447H-0.2ZM0.274391 22.6356L3.25791 23.7843L3.40162 23.411L0.418109 22.2623L0.274391 22.6356ZM3.13422 23.6396C3.5715 25.6771 4.36666 27.5957 5.50168 29.3503L5.83753 29.133C4.72881 27.4191 3.9524 25.5456 3.52531 23.5557L3.13422 23.6396ZM5.48684 29.1604L4.18793 32.0841L4.55348 32.2465L5.85238 29.3228L5.48684 29.1604ZM4.18791 32.0842C4.06351 32.3643 4.12477 32.692 4.34112 32.9085L4.62403 32.6257C4.52445 32.5261 4.49633 32.3752 4.55349 32.2465L4.18791 32.0842ZM4.34116 32.9085L7.09139 35.6588L7.37423 35.3759L4.624 32.6257L4.34116 32.9085ZM7.09139 35.6588C7.30808 35.8755 7.63534 35.9359 7.91541 35.8122L7.75381 35.4463C7.62419 35.5035 7.47364 35.4753 7.37423 35.3759L7.09139 35.6588ZM7.91581 35.812L10.8402 34.5127L10.6778 34.1471L7.7534 35.4464L7.91581 35.812ZM10.6504 34.4979C12.4056 35.6329 14.3235 36.4281 16.36 36.865L16.4439 36.4739C14.4551 36.0472 12.5822 35.2707 10.8676 34.162L10.6504 34.4979ZM16.2153 36.7413L17.3643 39.7255L17.7376 39.5818L16.5886 36.5976L16.2153 36.7413ZM17.3643 39.7254C17.4742 40.0115 17.7491 40.1999 18.0552 40.1999V39.7999C17.9144 39.7999 17.7881 39.7132 17.7376 39.5819L17.3643 39.7254ZM18.0552 40.1999H21.9446V39.7999H18.0552V40.1999ZM21.9446 40.1999C22.2507 40.1999 22.5256 40.0115 22.6356 39.7254L22.2622 39.5819C22.2117 39.7132 22.0854 39.7999 21.9446 39.7999V40.1999ZM22.6356 39.7255L23.7842 36.742L23.4109 36.5983L22.2623 39.5818L22.6356 39.7255ZM23.6395 36.8657C25.677 36.4284 27.5956 35.6333 29.3502 34.4982L29.1329 34.1624C27.419 35.2711 25.5455 36.0475 23.5556 36.4746L23.6395 36.8657ZM29.1604 34.5131L32.084 35.812L32.2464 35.4464L29.3228 34.1475L29.1604 34.5131ZM32.0842 35.8121C32.3639 35.936 32.6915 35.8752 32.9083 35.6589L32.6258 35.3757C32.5259 35.4754 32.3749 35.5034 32.2463 35.4464L32.0842 35.8121ZM32.9085 35.6588L35.6587 32.9085L35.3758 32.6257L32.6256 35.3759L32.9085 35.6588ZM35.6587 32.9085C35.8751 32.6921 35.9364 32.3643 35.8119 32.0841L35.4464 32.2465C35.5036 32.3752 35.4755 32.5261 35.3758 32.6257L35.6587 32.9085ZM35.8119 32.0841L34.5126 29.1594L34.1471 29.3217L35.4464 32.2465L35.8119 32.0841ZM34.4978 29.3492C35.6328 27.5946 36.4276 25.6767 36.8649 23.6399L36.4738 23.556C36.0467 25.5452 35.2706 27.418 34.1619 29.1319L34.4978 29.3492ZM36.7412 23.7846L39.7255 22.6356L39.5817 22.2623L36.5975 23.4113L36.7412 23.7846ZM39.7254 22.6357C40.0114 22.5257 40.1998 22.2508 40.1998 21.9447H39.7998C39.7998 22.0855 39.7131 22.2118 39.5818 22.2623L39.7254 22.6357ZM40.1998 21.9447V18.0553H39.7998V21.9447H40.1998ZM40.1998 18.0555C40.2001 17.7489 40.0115 17.4743 39.7256 17.3642L39.5818 17.7375C39.7134 17.7882 39.7999 17.9143 39.7998 18.0552L40.1998 18.0555ZM38.847 21.3868L35.9332 22.5087L36.0769 22.882L38.9908 21.7601L38.847 21.3868ZM35.9335 22.5086C35.6953 22.5998 35.5219 22.8074 35.4728 23.0568L35.8652 23.1341C35.8879 23.0188 35.9678 22.9238 36.0766 22.8821L35.9335 22.5086ZM35.4727 23.0569C35.0697 25.1095 34.2719 27.0336 33.1014 28.7772L33.4336 29.0001C34.6335 27.2126 35.4519 25.239 35.8652 23.134L35.4727 23.0569ZM33.1014 28.7772C32.9598 28.9883 32.9361 29.2573 33.0393 29.4902L33.405 29.3281C33.3575 29.221 33.3684 29.0973 33.4336 29.0001L33.1014 28.7772ZM33.0393 29.4903L34.3076 32.3465L34.6732 32.1841L33.4049 29.328L33.0393 29.4903ZM34.349 32.1239L32.1238 34.349L32.4067 34.6319L34.6318 32.4067L34.349 32.1239ZM32.3464 34.3077L29.4913 33.0397L29.329 33.4053L32.1841 34.6733L32.3464 34.3077ZM29.4911 33.0396C29.2595 32.9371 28.9896 32.9594 28.778 33.102L29.0014 33.4338C29.098 33.3687 29.2222 33.358 29.3292 33.4054L29.4911 33.0396ZM28.7782 33.1019C27.0346 34.2727 25.1101 35.0704 23.0565 35.4738L23.1336 35.8663C25.2396 35.4526 27.2136 34.6343 29.0012 33.4339L28.7782 33.1019ZM23.0565 35.4738C22.807 35.5229 22.5995 35.6964 22.5082 35.9345L22.8817 36.0778C22.9234 35.9689 23.0186 35.889 23.1337 35.8663L23.0565 35.4738ZM22.5083 35.9343L21.3867 38.8471L21.76 38.9908L22.8816 36.078L22.5083 35.9343ZM21.5734 38.719H18.4266V39.119H21.5734V38.719ZM18.6132 38.8471L17.4913 35.9333L17.118 36.077L18.2399 38.9908L18.6132 38.8471ZM17.4914 35.9336C17.4002 35.6954 17.1926 35.522 16.9432 35.4728L16.8659 35.8653C16.9812 35.888 17.0762 35.9679 17.1179 36.0767L17.4914 35.9336ZM16.9431 35.4728C14.8908 35.0698 12.9664 34.272 11.2224 33.1015L10.9995 33.4336C12.7874 34.6336 14.7614 35.452 16.866 35.8653L16.9431 35.4728ZM11.2227 33.1017C11.011 32.9591 10.7412 32.9367 10.5095 33.0393L10.6715 33.405C10.7784 33.3577 10.9026 33.3684 10.9992 33.4335L11.2227 33.1017ZM10.5093 33.0394L7.65351 34.3077L7.81586 34.6733L10.6716 33.405L10.5093 33.0394ZM7.87611 34.349L5.65095 32.1239L5.36811 32.4067L7.59327 34.6319L7.87611 34.349ZM5.69232 32.3465L6.96029 29.4914L6.59472 29.3291L5.32675 32.1841L5.69232 32.3465ZM6.96029 29.4914C7.06356 29.2588 7.03982 28.9894 6.89818 28.7783L6.56604 29.0012C6.63128 29.0984 6.64206 29.2224 6.59471 29.3291L6.96029 29.4914ZM6.89815 28.7783C5.72729 27.0347 4.92962 25.1102 4.52617 23.0566L4.13367 23.1337C4.54741 25.2396 5.36568 27.2137 6.56607 29.0013L6.89815 28.7783ZM4.52616 23.0565C4.47709 22.8071 4.30357 22.5996 4.06546 22.5083L3.9222 22.8817C4.03112 22.9235 4.11104 23.0187 4.13368 23.1338L4.52616 23.0565ZM4.0657 22.5084L1.15296 21.3868L1.00923 21.7601L3.92196 22.8816L4.0657 22.5084ZM1.28109 21.5734V18.4264H0.881094V21.5734H1.28109ZM1.15294 18.6131L4.06645 17.4917L3.92277 17.1183L1.00925 18.2398L1.15294 18.6131ZM4.06653 17.4916C4.30433 17.4 4.47774 17.1928 4.52693 16.9434L4.13448 16.866C4.11179 16.9811 4.03192 17.0763 3.92268 17.1184L4.06653 17.4916ZM4.52696 16.9432C4.93002 14.8903 5.72776 12.9657 6.89853 11.2224L6.56647 10.9994C5.36615 12.7867 4.54779 14.7608 4.13445 16.8662L4.52696 16.9432ZM6.89862 11.2223C7.04021 11.0111 7.06393 10.7417 6.96072 10.509L6.59506 10.6711C6.64248 10.7781 6.63167 10.9022 6.56638 10.9996L6.89862 11.2223ZM6.96067 10.5089L5.69239 7.65388L5.32683 7.81627L6.59511 10.6713L6.96067 10.5089ZM5.65104 7.87649L7.8762 5.65102L7.59333 5.3682L5.36818 7.59367L5.65104 7.87649ZM7.65358 5.69239L10.509 6.96067L10.6714 6.59511L7.81595 5.32683L7.65358 5.69239ZM10.5087 6.96053C10.7417 7.06449 11.0115 7.04108 11.2229 6.89846L10.9992 6.56686C10.9024 6.6322 10.7788 6.64301 10.6717 6.59525L10.5087 6.96053ZM11.2226 6.89871C12.9661 5.72822 14.8907 4.93033 16.9432 4.52711L16.8661 4.13461C14.7612 4.54811 12.7871 5.36662 10.9996 6.5666L11.2226 6.89871ZM16.9431 4.52713C17.1929 4.47821 17.4003 4.30417 17.4916 4.06645L17.1181 3.92308C17.0763 4.03207 16.981 4.11211 16.8662 4.13459L16.9431 4.52713ZM17.4915 4.06663L18.6134 1.15296L18.2401 1.00923L17.1182 3.9229L17.4915 4.06663ZM18.4267 1.28109H21.5735V0.881094H18.4267V1.28109ZM21.3869 1.15296L22.5087 4.06663L22.882 3.9229L21.7602 1.00923L21.3869 1.15296ZM22.5087 4.06641C22.5999 4.30408 22.8073 4.47821 23.0571 4.52713L23.134 4.13459C23.0191 4.1121 22.9239 4.03202 22.8821 3.92312L22.5087 4.06641ZM23.057 4.52711C25.11 4.93056 27.0344 5.72838 28.7773 6.8987L29.0002 6.56662C27.2134 5.36678 25.2394 4.54835 23.1341 4.13461L23.057 4.52711ZM28.7769 6.89846C28.9882 7.04098 29.2589 7.06466 29.4912 6.96034L29.3273 6.59545C29.2218 6.64284 29.0976 6.6323 29.0006 6.56686L28.7769 6.89846ZM29.4904 6.96068L32.3466 5.6924L32.1842 5.32682L29.3281 6.5951L29.4904 6.96068ZM32.124 5.65103L34.3491 7.87634L34.632 7.59351L32.4068 5.36819L32.124 5.65103ZM34.3078 7.65373L33.0398 10.5083L33.4054 10.6706L34.6733 7.81611L34.3078 7.65373ZM33.0398 10.5084C32.9365 10.7411 32.9603 11.0104 33.1018 11.2216L33.4341 10.999C33.3688 10.9015 33.358 10.7774 33.4054 10.6706L33.0398 10.5084ZM33.1019 11.2218C34.2724 12.9648 35.0705 14.8899 35.4739 16.9435L35.8664 16.8664C35.4527 14.7604 34.634 12.7858 33.434 10.9988L33.1019 11.2218ZM35.4739 16.9435C35.523 17.1931 35.6966 17.4002 35.9343 17.4919L36.0782 17.1186C35.9689 17.0765 35.889 16.9813 35.8664 16.8663L35.4739 16.9435ZM35.9344 17.4919L38.8472 18.6131L38.9909 18.2398L36.0781 17.1186L35.9344 17.4919ZM38.7191 18.4264L38.7189 21.5734L39.1189 21.5734L39.1191 18.4264L38.7191 18.4264Z" fill="#FFF" mask="url(#path-1-outside-1_334_516)"/>
</svg>
