<svg width="1554" height="1554" viewBox="0 0 1554 1554" fill="none" xmlns="http://www.w3.org/2000/svg">
<g opacity="0.6">
<circle cx="777.648" cy="777" r="507.339" stroke="url(#paint0_linear_1_2)"/>
<circle cx="777.649" cy="777" r="488.53" stroke="url(#paint1_linear_1_2)"/>
<circle cx="777.649" cy="777.001" r="468.424" stroke="url(#paint2_linear_1_2)"/>
<path d="M1305.09 777C1305.09 1067.58 1069.67 1303.15 779.27 1303.15C488.866 1303.15 253.447 1067.58 253.447 777C253.447 486.417 488.866 250.853 779.27 250.853C1069.67 250.853 1305.09 486.417 1305.09 777Z" stroke="url(#paint3_linear_1_2)"/>
<circle cx="780.891" cy="777.649" r="543.659" stroke="url(#paint4_linear_1_2)"/>
<circle cx="777" cy="777" r="564.414" stroke="url(#paint5_linear_1_2)"/>
<circle cx="777" cy="777" r="584.52" stroke="url(#paint6_linear_1_2)"/>
<circle cx="777" cy="777" r="603.329" stroke="url(#paint7_linear_1_2)"/>
<circle cx="777" cy="777.001" r="622.138" stroke="url(#paint8_linear_1_2)"/>
<circle cx="777" cy="777" r="642.244" stroke="url(#paint9_linear_1_2)"/>
<circle cx="777" cy="777" r="661.053" stroke="url(#paint10_linear_1_2)"/>
<circle cx="777" cy="777" r="680.51" stroke="url(#paint11_linear_1_2)"/>
<circle cx="777" cy="777.001" r="699.967" stroke="url(#paint12_linear_1_2)"/>
<circle cx="777" cy="777" r="719.425" stroke="url(#paint13_linear_1_2)"/>
<circle cx="777" cy="777" r="738.234" stroke="url(#paint14_linear_1_2)"/>
<circle cx="777" cy="777" r="758.34" stroke="url(#paint15_linear_1_2)"/>
<circle cx="777" cy="777" r="776.5" stroke="url(#paint16_linear_1_2)"/>
</g>
<defs>
<linearGradient id="paint0_linear_1_2" x1="777.648" y1="269.162" x2="777.648" y2="1284.84" gradientUnits="userSpaceOnUse">
<stop stop-color="#4B4B68"/>
<stop offset="1" stop-color="#C4C4C4" stop-opacity="0"/>
</linearGradient>
<linearGradient id="paint1_linear_1_2" x1="777.649" y1="287.97" x2="777.649" y2="1266.03" gradientUnits="userSpaceOnUse">
<stop stop-color="#4B4B68"/>
<stop offset="1" stop-color="#C4C4C4" stop-opacity="0"/>
</linearGradient>
<linearGradient id="paint2_linear_1_2" x1="777.649" y1="308.077" x2="777.649" y2="1245.92" gradientUnits="userSpaceOnUse">
<stop stop-color="#4B4B68"/>
<stop offset="1" stop-color="#C4C4C4" stop-opacity="0"/>
</linearGradient>
<linearGradient id="paint3_linear_1_2" x1="779.27" y1="250.353" x2="779.27" y2="1303.65" gradientUnits="userSpaceOnUse">
<stop stop-color="#4B4B68"/>
<stop offset="1" stop-color="#C4C4C4" stop-opacity="0"/>
</linearGradient>
<linearGradient id="paint4_linear_1_2" x1="780.891" y1="233.49" x2="780.891" y2="1321.81" gradientUnits="userSpaceOnUse">
<stop stop-color="#4B4B68"/>
<stop offset="1" stop-color="#C4C4C4" stop-opacity="0"/>
</linearGradient>
<linearGradient id="paint5_linear_1_2" x1="777" y1="212.086" x2="777" y2="1341.91" gradientUnits="userSpaceOnUse">
<stop stop-color="#4B4B68"/>
<stop offset="1" stop-color="#C4C4C4" stop-opacity="0"/>
</linearGradient>
<linearGradient id="paint6_linear_1_2" x1="777" y1="191.98" x2="777" y2="1362.02" gradientUnits="userSpaceOnUse">
<stop stop-color="#4B4B68"/>
<stop offset="1" stop-color="#C4C4C4" stop-opacity="0"/>
</linearGradient>
<linearGradient id="paint7_linear_1_2" x1="777" y1="173.171" x2="777" y2="1380.83" gradientUnits="userSpaceOnUse">
<stop stop-color="#4B4B68"/>
<stop offset="1" stop-color="#C4C4C4" stop-opacity="0"/>
</linearGradient>
<linearGradient id="paint8_linear_1_2" x1="777" y1="154.363" x2="777" y2="1399.64" gradientUnits="userSpaceOnUse">
<stop stop-color="#4B4B68"/>
<stop offset="1" stop-color="#C4C4C4" stop-opacity="0"/>
</linearGradient>
<linearGradient id="paint9_linear_1_2" x1="777" y1="134.257" x2="777" y2="1419.74" gradientUnits="userSpaceOnUse">
<stop stop-color="#4B4B68"/>
<stop offset="1" stop-color="#C4C4C4" stop-opacity="0"/>
</linearGradient>
<linearGradient id="paint10_linear_1_2" x1="777" y1="115.448" x2="777" y2="1438.55" gradientUnits="userSpaceOnUse">
<stop stop-color="#4B4B68"/>
<stop offset="1" stop-color="#C4C4C4" stop-opacity="0"/>
</linearGradient>
<linearGradient id="paint11_linear_1_2" x1="777" y1="95.9902" x2="777" y2="1458.01" gradientUnits="userSpaceOnUse">
<stop stop-color="#4B4B68"/>
<stop offset="1" stop-color="#C4C4C4" stop-opacity="0"/>
</linearGradient>
<linearGradient id="paint12_linear_1_2" x1="777" y1="76.5332" x2="777" y2="1477.47" gradientUnits="userSpaceOnUse">
<stop stop-color="#4B4B68"/>
<stop offset="1" stop-color="#C4C4C4" stop-opacity="0"/>
</linearGradient>
<linearGradient id="paint13_linear_1_2" x1="777" y1="57.0756" x2="777" y2="1496.93" gradientUnits="userSpaceOnUse">
<stop stop-color="#4B4B68"/>
<stop offset="1" stop-color="#C4C4C4" stop-opacity="0"/>
</linearGradient>
<linearGradient id="paint14_linear_1_2" x1="777" y1="38.2666" x2="777" y2="1515.73" gradientUnits="userSpaceOnUse">
<stop stop-color="#4B4B68"/>
<stop offset="1" stop-color="#C4C4C4" stop-opacity="0"/>
</linearGradient>
<linearGradient id="paint15_linear_1_2" x1="777" y1="18.1606" x2="777" y2="1535.84" gradientUnits="userSpaceOnUse">
<stop stop-color="#4B4B68"/>
<stop offset="1" stop-color="#C4C4C4" stop-opacity="0"/>
</linearGradient>
<linearGradient id="paint16_linear_1_2" x1="777" y1="0.000488281" x2="777" y2="1554" gradientUnits="userSpaceOnUse">
<stop stop-color="#4B4B68"/>
<stop offset="1" stop-color="#C4C4C4" stop-opacity="0"/>
</linearGradient>
</defs>
</svg>
