<svg width="64" height="64" viewBox="0 0 64 64" fill="none" xmlns="http://www.w3.org/2000/svg">
<path d="M1.06689 50.1333C1.65576 50.1333 2.1333 49.6558 2.1333 49.0669V46.9331C2.1333 46.3442 1.65576 45.8667 1.06689 45.8667C0.477539 45.8667 0 46.3442 0 46.9331V49.0669C0 49.6558 0.477539 50.1333 1.06689 50.1333Z" fill="#FAFAFA"/>
<path d="M5.33252 50.1335V45.8669C5.33252 45.2776 4.85498 44.8 4.26562 44.8C3.67676 44.8 3.19922 45.2776 3.19922 45.8669V50.1335C3.19922 50.7229 3.67676 51.2004 4.26562 51.2004C4.85498 51.2004 5.33252 50.7229 5.33252 50.1335Z" fill="#FAFAFA"/>
<path d="M18.1333 50.1335V45.8669C18.1333 45.2776 17.6558 44.8 17.0669 44.8C16.4775 44.8 16 45.2776 16 45.8669V50.1335C16 50.7229 16.4775 51.2004 17.0669 51.2004C17.6558 51.2004 18.1333 50.7229 18.1333 50.1335Z" fill="#FAFAFA"/>
<path d="M9.6001 52.2666V43.7334C9.6001 43.144 9.12256 42.6665 8.5332 42.6665C7.94434 42.6665 7.4668 43.144 7.4668 43.7334V52.2666C7.4668 52.856 7.94434 53.3335 8.5332 53.3335C9.12256 53.3335 9.6001 52.856 9.6001 52.2666Z" fill="#FAFAFA"/>
<path d="M13.8677 52.2666V43.7334C13.8677 43.144 13.3901 42.6665 12.8008 42.6665C12.2119 42.6665 11.7344 43.144 11.7344 43.7334V52.2666C11.7344 52.856 12.2119 53.3335 12.8008 53.3335C13.3901 53.3335 13.8677 52.856 13.8677 52.2666Z" fill="#FAFAFA"/>
<path d="M22.3989 54.3999V41.6001C22.3989 41.0107 21.9214 40.5332 21.3325 40.5332C20.7432 40.5332 20.2656 41.0107 20.2656 41.6001V54.3999C20.2656 54.9893 20.7432 55.4668 21.3325 55.4668C21.9214 55.4668 22.3989 54.9893 22.3989 54.3999Z" fill="#FAFAFA"/>
<path d="M26.6665 56.5332V39.4668C26.6665 38.8774 26.189 38.3999 25.6001 38.3999C25.0107 38.3999 24.5332 38.8774 24.5332 39.4668V56.5332C24.5332 57.1226 25.0107 57.6001 25.6001 57.6001C26.189 57.6001 26.6665 57.1226 26.6665 56.5332Z" fill="#FAFAFA"/>
<path d="M30.9341 62.9331V33.0669C30.9341 32.4775 30.4565 32 29.8677 32C29.2783 32 28.8008 32.4775 28.8008 33.0669V62.9331C28.8008 63.5225 29.2783 64 29.8677 64C30.4565 64 30.9341 63.5225 30.9341 62.9331Z" fill="#FAFAFA"/>
<path d="M62.9336 45.8667C62.3447 45.8667 61.8672 46.3442 61.8672 46.9331V49.0669C61.8672 49.6558 62.3447 50.1333 62.9336 50.1333C63.5229 50.1333 64.0005 49.6558 64.0005 49.0669V46.9331C64.0005 46.3442 63.5229 45.8667 62.9336 45.8667Z" fill="#FAFAFA"/>
<path d="M60.7993 50.1335V45.8669C60.7993 45.2776 60.3218 44.8 59.7329 44.8C59.1436 44.8 58.666 45.2776 58.666 45.8669V50.1335C58.666 50.7229 59.1436 51.2004 59.7329 51.2004C60.3218 51.2004 60.7993 50.7229 60.7993 50.1335Z" fill="#FAFAFA"/>
<path d="M48.0005 50.1335V45.8669C48.0005 45.2776 47.5229 44.8 46.9336 44.8C46.3447 44.8 45.8672 45.2776 45.8672 45.8669V50.1335C45.8672 50.7229 46.3447 51.2004 46.9336 51.2004C47.5229 51.2004 48.0005 50.7229 48.0005 50.1335Z" fill="#FAFAFA"/>
<path d="M56.5337 52.2666V43.7334C56.5337 43.144 56.0562 42.6665 55.4673 42.6665C54.8779 42.6665 54.4004 43.144 54.4004 43.7334V52.2666C54.4004 52.856 54.8779 53.3335 55.4673 53.3335C56.0562 53.3335 56.5337 52.856 56.5337 52.2666Z" fill="#FAFAFA"/>
<path d="M52.2661 52.2666V43.7334C52.2661 43.144 51.7886 42.6665 51.1997 42.6665C50.6104 42.6665 50.1328 43.144 50.1328 43.7334V52.2666C50.1328 52.856 50.6104 53.3335 51.1997 53.3335C51.7886 53.3335 52.2661 52.856 52.2661 52.2666Z" fill="#FAFAFA"/>
<path d="M43.7329 54.3999V41.6001C43.7329 41.0107 43.2554 40.5332 42.666 40.5332C42.0771 40.5332 41.5996 41.0107 41.5996 41.6001V54.3999C41.5996 54.9893 42.0771 55.4668 42.666 55.4668C43.2554 55.4668 43.7329 54.9893 43.7329 54.3999Z" fill="#FAFAFA"/>
<path d="M39.4673 56.5332V39.4668C39.4673 38.8774 38.9897 38.3999 38.4004 38.3999C37.8115 38.3999 37.334 38.8774 37.334 39.4668V56.5332C37.334 57.1226 37.8115 57.6001 38.4004 57.6001C38.9897 57.6001 39.4673 57.1226 39.4673 56.5332Z" fill="#FAFAFA"/>
<path d="M35.1997 62.9331V33.0669C35.1997 32.4775 34.7222 32 34.1328 32C33.5439 32 33.0664 32.4775 33.0664 33.0669V62.9331C33.0664 63.5225 33.5439 64 34.1328 64C34.7222 64 35.1997 63.5225 35.1997 62.9331Z" fill="#FAFAFA"/>
<path d="M57.6006 0H36.2671C32.7344 0.00390625 29.8711 2.86719 29.8672 6.3999V21.3335C29.8711 24.8662 32.7344 27.7295 36.2671 27.7334H38.1255L37.3423 34.001C37.2896 34.4229 37.4922 34.8359 37.8584 35.0518C38.2246 35.2681 38.6841 35.2461 39.0283 34.9956L49.0137 27.7334H57.6006C61.1333 27.7295 63.9966 24.8662 64.0005 21.3335V6.3999C63.9966 2.86719 61.1333 0.00390625 57.6006 0V0ZM61.8672 21.3335C61.8647 23.689 59.9561 25.5977 57.6006 25.6001H51.1816C51.189 25.3765 51.124 25.1567 50.9961 24.9731C50.8301 24.7437 50.5796 24.5898 50.3003 24.5459C50.0205 24.5015 49.7349 24.5708 49.5063 24.7373L39.7646 31.8228L40.5254 25.7324C40.5781 25.3516 40.4219 24.9722 40.1162 24.7388C39.8105 24.5054 39.4033 24.4546 39.0498 24.6055C38.6968 24.7563 38.4517 25.0859 38.4087 25.4678L38.3921 25.6001H36.2671C33.9116 25.5977 32.0029 23.689 32.0005 21.3335V6.3999C32.0029 4.04443 33.9116 2.13574 36.2671 2.1333H57.6006C59.9561 2.13574 61.8647 4.04443 61.8672 6.3999V21.3335Z" fill="#FAFAFA"/>
<path d="M38.3989 10.6665C36.6318 10.6665 35.1992 12.0991 35.1992 13.8667C35.1992 15.6338 36.6318 17.0669 38.3989 17.0669C40.1665 17.0669 41.5991 15.6338 41.5991 13.8667C41.5972 12.1001 40.1655 10.6685 38.3989 10.6665ZM38.3989 14.9331C37.8101 14.9331 37.3325 14.4556 37.3325 13.8667C37.3325 13.2773 37.8101 12.7998 38.3989 12.7998C38.9883 12.7998 39.4658 13.2773 39.4658 13.8667C39.4653 14.4556 38.9878 14.9326 38.3989 14.9331Z" fill="#FAFAFA"/>
<path d="M46.9341 10.6665C45.167 10.6665 43.7344 12.0991 43.7344 13.8667C43.7344 15.6338 45.167 17.0669 46.9341 17.0669C48.7017 17.0669 50.1343 15.6338 50.1343 13.8667C50.1323 12.1001 48.7007 10.6685 46.9341 10.6665ZM46.9341 14.9331C46.3452 14.9331 45.8677 14.4556 45.8677 13.8667C45.8677 13.2773 46.3452 12.7998 46.9341 12.7998C47.5234 12.7998 48.001 13.2773 48.001 13.8667C48.0005 14.4556 47.5234 14.9326 46.9341 14.9331Z" fill="#FAFAFA"/>
<path d="M55.4658 10.6665C53.6982 10.6665 52.2656 12.0991 52.2656 13.8667C52.2656 15.6338 53.6982 17.0669 55.4658 17.0669C57.2329 17.0669 58.6655 15.6338 58.6655 13.8667C58.6636 12.1001 57.2324 10.6685 55.4658 10.6665ZM55.4658 14.9331C54.8765 14.9331 54.3989 14.4556 54.3989 13.8667C54.3989 13.2773 54.8765 12.7998 55.4658 12.7998C56.0547 12.7998 56.5322 13.2773 56.5322 13.8667C56.5317 14.4556 56.0547 14.9326 55.4658 14.9331Z" fill="#FAFAFA"/>
</svg>
