<svg width="2396" height="2396" viewBox="0 0 2396 2396" fill="none" xmlns="http://www.w3.org/2000/svg">
<circle cx="1199" cy="1198" r="782.5" stroke="#1E1C25"/>
<circle cx="1199" cy="1198" r="753.5" stroke="#1E1C25"/>
<circle cx="1199" cy="1198" r="722.5" stroke="#1E1C25"/>
<path d="M2012.5 1198C2012.5 1646.18 1649.4 2009.5 1201.5 2009.5C753.597 2009.5 390.5 1646.18 390.5 1198C390.5 749.821 753.597 386.5 1201.5 386.5C1649.4 386.5 2012.5 749.821 2012.5 1198Z" stroke="#1E1C25"/>
<circle cx="1204" cy="1199" r="838.5" stroke="#1E1C25"/>
<circle cx="1198" cy="1198" r="870.5" stroke="#1E1C25"/>
<circle cx="1198" cy="1198" r="901.5" stroke="#1E1C25"/>
<circle cx="1198" cy="1198" r="930.5" stroke="#1E1C25"/>
<circle cx="1198" cy="1198" r="959.5" stroke="#1E1C25"/>
<circle cx="1198" cy="1198" r="990.5" stroke="#1E1C25"/>
<circle cx="1198" cy="1198" r="1019.5" stroke="#1E1C25"/>
<circle cx="1198" cy="1198" r="1049.5" stroke="#1E1C25"/>
<circle cx="1198" cy="1198" r="1079.5" stroke="#1E1C25"/>
<circle cx="1198" cy="1198" r="1109.5" stroke="#1E1C25"/>
<circle cx="1198" cy="1198" r="1138.5" stroke="#1E1C25"/>
<circle cx="1198" cy="1198" r="1169.5" stroke="#1E1C25"/>
<circle cx="1198" cy="1198" r="1197.5" stroke="#1E1C25"/>
</svg>
