<svg xmlns="http://www.w3.org/2000/svg" xmlns:xlink="http://www.w3.org/1999/xlink">
    <symbol id="arrow-next">
        <path d="M59.7781 10.5L60.134 10.1488L60.4805 10.5L60.134 10.8512L59.7781 10.5ZM0.578072 11C0.301929 11 0.0780716 10.7761 0.0780716 10.5C0.0780716 10.2239 0.301929 10 0.578072 10V11ZM50.2673 0.148827L60.134 10.1488L59.4222 10.8512L49.5555 0.851173L50.2673 0.148827ZM60.134 10.8512L50.2673 20.8512L49.5555 20.1488L59.4222 10.1488L60.134 10.8512ZM59.7781 11H0.578072V10H59.7781V11Z" fill="inherit"/>
    </symbol>
    <symbol id="arrow-prev">
        <path d="M1.57812 10.5L1.22221 10.1488L0.875716 10.5L1.22221 10.8512L1.57812 10.5ZM60.7781 11C61.0543 11 61.2781 10.7761 61.2781 10.5C61.2781 10.2239 61.0543 10 60.7781 10V11ZM11.0889 0.148827L1.22221 10.1488L1.93404 10.8512L11.8007 0.851173L11.0889 0.148827ZM1.22221 10.8512L11.0889 20.8512L11.8007 20.1488L1.93404 10.1488L1.22221 10.8512ZM1.57812 11H60.7781V10H1.57812V11Z" fill="inherit"/>
    </symbol>
    <symbol id="arrow" viewBox="0 0 14 14">
        <path d="M13 1L1 13" stroke="inherit" stroke-width="2" stroke-linecap="round" stroke-linejoin="round"/>
        <path d="M3 1H13V11" stroke="inherit" stroke-width="2" stroke-linecap="round" stroke-linejoin="round"/>        
    </symbol>                        
</svg>