<svg width="314" height="36" viewBox="0 0 314 36" fill="none" xmlns="http://www.w3.org/2000/svg">
<path fill-rule="evenodd" clip-rule="evenodd" d="M0 2.56232V5.12464L4.11927 5.08194L8.23854 5.03925L8.31399 16.3138L8.38973 27.5881L11.5762 27.5088L14.7629 27.4293L14.825 16.0531L14.8872 4.67689L19.4401 4.59965L23.9929 4.52212V16.0548V27.5875L27.3895 27.5086L30.7861 27.4293L30.8639 21.1794L30.9417 14.9295H33.4066C35.6379 14.9295 35.9383 14.9947 36.5806 15.6191C37.2856 16.304 37.2902 16.3441 37.2902 21.7988V27.2889H40.3255H43.3608V20.8171C43.3608 13.4807 43.2547 13.038 41.0603 11.2127C39.4719 9.89142 38.2234 9.59255 34.2937 9.59255H30.9307V7.13472V4.67689L110.064 4.74656L189.197 4.81622L189.273 16.193L189.348 27.5698H196.25C204.291 27.5698 205.303 27.3757 207.565 25.3999C209.636 23.5906 210.253 21.8157 210.083 18.1598C209.938 15.0402 209.547 13.87 208.123 12.2942C206.459 10.4532 205.29 10.0493 201.266 9.92513L197.725 9.81558V12.3726V14.9295H199.59C200.616 14.9295 201.785 15.0753 202.188 15.2537C203.861 15.9947 204.488 18.3169 203.563 20.3491C202.754 22.1252 201.865 22.5137 198.607 22.5137H195.991V13.6593V4.80526L246.939 4.88223C295.721 4.95582 297.956 4.98138 299.478 5.48138C301.963 6.29766 303.773 7.285 305.26 8.63666C309.35 12.3543 310.541 19.6705 307.879 24.7297C306.433 27.4782 302.697 30.0521 298.689 31.0613C297.109 31.4591 282.819 31.5023 152.66 31.5023H8.38308V33.7512V36L153.714 35.9281L299.045 35.8562L301.068 35.1919C309.303 32.4877 313.459 27.4066 313.849 19.5643C314.285 10.806 309.169 3.79573 300.63 1.45335C299.297 1.08762 296.802 0.746618 294.13 0.564879C291.234 0.367972 241.691 0.225277 144.897 0.13511L0 0V2.56232ZM121.729 9.17008C118.223 9.93608 115.2 12.3574 114.028 15.3382C113.287 17.2233 113.54 20.6137 114.546 22.2817C115.571 23.9811 117.65 25.7827 119.625 26.6822C121.09 27.3496 121.606 27.4293 124.451 27.4293C127.466 27.4293 127.74 27.3799 129.56 26.5097C131.897 25.3915 134.151 23.1216 134.821 21.2095C135.349 19.7045 135.423 17.248 134.987 15.7211C134.255 13.1599 131.192 10.2987 128.283 9.4594C126.094 8.82767 123.767 8.72486 121.729 9.17008ZM220.902 9.05042C218.922 9.42907 216.478 10.6434 215.117 11.9243C210.31 16.45 211.679 23.5887 217.911 26.4959C222.701 28.7299 229.302 27.3704 232.149 23.5637C233.575 21.657 233.945 20.5893 233.971 18.2986C233.992 16.5374 233.865 15.9298 233.199 14.6074C231.749 11.7279 228.62 9.59845 224.991 9.02093C223.072 8.7156 222.637 8.71869 220.902 9.05042ZM50.0736 10.4484C46.751 12.0616 45.2715 14.4717 45.253 18.3003C45.2374 21.4966 45.8968 23.3193 47.7029 25.0743C49.7816 27.0945 50.7633 27.2889 58.8787 27.2889H65.6193V24.7609V22.2328H59.9731C54.0015 22.2328 53.0152 22.066 51.9184 20.8699C51.1483 20.03 50.97 17.7975 51.5811 16.6489C52.3919 15.1256 53.5456 14.6509 56.4412 14.6498C57.8325 14.6492 58.9706 14.7307 58.9706 14.8309C58.9706 15.0321 56.5181 19.4755 55.8541 20.4772L55.4353 21.1092H58.4653H61.4957L63.5449 18.0185C64.6723 16.3186 65.6155 14.77 65.641 14.5776C65.6667 14.3849 65.6725 13.1846 65.6534 11.9099L65.6193 9.59255H58.7278H51.836L50.0736 10.4484ZM71.301 9.99788C69.9224 10.481 68.9289 11.3636 68.1206 12.8228C67.5422 13.8669 67.4919 14.4178 67.4072 20.6177L67.3158 27.2889H70.5147H73.7133V21.9651C73.7133 14.9478 73.6797 15.0135 77.3267 14.8613L79.0611 14.7891V12.261V9.733L75.7368 9.67064C73.4826 9.6285 72.0546 9.73384 71.301 9.99788ZM80.9401 18.5812V27.5698H84.2644H87.5887V21.2497V14.9295H89.8938C92.154 14.9295 92.2075 14.9456 92.64 15.7582C92.9912 16.4183 93.0811 17.7053 93.0811 22.0783V27.5698H96.1886L99.2961 27.5701V21.1794V14.7891L101.537 14.7071C103.599 14.6315 103.836 14.6812 104.5 15.3262L105.222 16.0276V21.7988V27.5698H108.565H111.907L111.817 20.6177L111.726 13.6655L110.934 12.3557C110.498 11.6352 109.652 10.7504 109.055 10.3894C108.063 9.7903 107.583 9.72457 103.56 9.63749L99.1516 9.54227V10.9389V12.3355L98.0609 11.2757C97.4539 10.6858 96.4609 10.0785 95.8206 9.90575C95.1312 9.71979 91.9225 9.59508 87.8055 9.59423L80.9401 9.59255V18.5812ZM141.74 10.1805C139.905 10.8658 138.232 12.3987 137.307 14.2416C136.721 15.4099 136.608 16.0576 136.603 18.3003C136.598 20.6547 136.696 21.1772 137.434 22.7407C138.462 24.9193 140.282 26.5622 142.318 27.1499C143.303 27.4341 145.065 27.5698 147.768 27.5698H151.763V24.9249V22.2797L148.27 22.1862L144.776 22.0924L143.902 21.1412C143.083 20.2494 143.036 20.0758 143.148 18.3654C143.254 16.736 143.367 16.4545 144.195 15.7351C145.103 14.9472 145.197 14.9295 148.443 14.9295H151.763V12.261V9.59255L147.499 9.60715C143.962 9.61923 142.98 9.71698 141.74 10.1805ZM158.666 9.98046C153.876 11.6436 151.803 16.4166 153.522 21.8247C154.01 23.3586 154.418 24.0069 155.647 25.2019C157.572 27.0721 159.137 27.5698 163.089 27.5698H165.927V24.9311V22.2924L163.588 22.189C161.371 22.0912 161.205 22.0379 160.408 21.1719C159.675 20.3747 159.568 20.0387 159.568 18.5486C159.568 16.9795 159.648 16.7615 160.55 15.8846C161.532 14.9312 161.538 14.9295 164.308 14.9295H167.083V21.2497V27.5698H170.263H173.443V18.5812V9.59255L166.578 9.60491C161.725 9.61362 159.405 9.72373 158.666 9.98046ZM179.658 10.0102C179.022 10.231 178.087 10.8487 177.581 11.383C176.034 13.0138 175.756 14.5273 175.756 21.3008V27.2889H178.919H182.081L182.171 21.6997C182.28 14.8498 182.241 14.9295 185.495 14.9295H187.629L187.546 12.3313L187.463 9.733L184.139 9.67064C181.843 9.62766 180.457 9.73271 179.658 10.0102ZM236.172 18.5812V27.5698H239.496H242.82V21.2384V14.9068L245.198 14.9885C248.374 15.0975 248.303 14.9354 248.308 22.0221L248.313 27.5698H251.506H254.699L254.613 19.9651L254.528 12.3602L253.336 11.2804C252.68 10.6864 251.639 10.0645 251.023 9.89816C250.369 9.72148 247.047 9.59508 243.037 9.59423L236.172 9.59255V18.5812ZM127.169 14.8607C128.139 15.5509 128.925 17.0728 128.925 18.2621C128.926 19.5893 127.896 21.2176 126.612 21.9188C122.866 23.9645 118.536 20.041 120.471 16.354C121.708 13.9961 124.941 13.2754 127.169 14.8607ZM226.324 15.3495C227.181 16.1756 227.332 16.527 227.433 17.9348C227.531 19.2983 227.44 19.7202 226.875 20.5188C225.007 23.1564 221.345 23.1283 219.295 20.4609C218.094 18.898 218.813 15.7514 220.617 14.6706C222.412 13.5956 224.798 13.8793 226.324 15.3495ZM263.055 21.9519V26.7271H263.922H264.79V21.9519V17.1767H263.922H263.055V21.9519ZM266.813 21.9519V26.7271H267.68H268.548V23.7215C268.548 21.7013 268.643 20.8089 268.839 20.9991C268.999 21.155 269.885 22.4758 270.808 23.9345C272.393 26.4403 272.545 26.5914 273.552 26.6737L274.618 26.7611V21.9688V17.1767H273.76H272.903L272.821 20.3368L272.739 23.4968L270.743 20.3368C268.842 17.3273 268.7 17.1767 267.78 17.1767H266.813V21.9519ZM278.739 17.6388C276.608 18.6595 275.718 22.1154 276.982 24.4634C277.854 26.0841 278.873 26.7777 280.595 26.924C282.328 27.0715 283.747 26.3822 284.493 25.0308C285.063 23.9971 284.968 23.7651 283.868 23.5083C283.278 23.3707 283.057 23.4935 282.659 24.1808C281.651 25.9232 279.416 25.5297 278.718 23.4867C278.244 22.0997 278.506 20.1401 279.264 19.4036C280.115 18.5767 281.94 18.668 282.617 19.571C283.063 20.1657 283.3 20.2505 284.087 20.0977C284.603 19.9974 285.025 19.7899 285.025 19.6365C285.025 19.4831 284.52 18.8671 283.902 18.2671C282.875 17.2686 282.649 17.1773 281.229 17.1832C280.375 17.1865 279.255 17.3916 278.739 17.6388ZM286.759 25.8844C286.759 26.6336 286.855 26.7271 287.626 26.7271C288.397 26.7271 288.494 26.6336 288.494 25.8844C288.494 25.1353 288.397 25.0417 287.626 25.0417C286.855 25.0417 286.759 25.1353 286.759 25.8844Z" fill="white"/>
</svg>
