<svg width="22" height="16" viewBox="0 0 22 16" fill="none" xmlns="http://www.w3.org/2000/svg">
<rect width="22" height="16" rx="2" fill="white"/>
<mask id="mask0_186_7067" style="mask-type:alpha" maskUnits="userSpaceOnUse" x="0" y="0" width="22" height="16">
<rect width="22" height="16" rx="2" fill="white"/>
</mask>
<g mask="url(#mask0_186_7067)">
<rect width="22" height="16" fill="#F1361D"/>
<path fill-rule="evenodd" clip-rule="evenodd" d="M7.91431 2.48058L8.67523 2.61267L9.24592 3.14186L9.37565 2.36711L9.89539 1.78604L9.13447 1.65395L8.56378 1.12476L8.43405 1.89951L7.91431 2.48058ZM9.95247 5.1904L10.6119 4.7818L11.3835 4.79998L10.9822 4.12861L11.0001 3.34288L10.3407 3.75148L9.56901 3.73331L9.97032 4.40468L9.95247 5.1904ZM9.058 9.57667L8.41302 10.0085L8.40393 9.22257L7.97986 8.56587L8.7517 8.55661L9.39668 8.12483L9.40577 8.91071L9.82984 9.56741L9.058 9.57667ZM9.61812 7.54512L10.3853 7.45854L11.0772 7.80707L10.9921 7.02592L11.3344 6.32149L10.5672 6.40808L9.87539 6.05955L9.96043 6.8407L9.61812 7.54512Z" fill="#FFDC42"/>
<path fill-rule="evenodd" clip-rule="evenodd" d="M5.23807 6.5813L3.39075 7.92216L4.07235 5.71895L2.24904 4.34445L4.51762 4.32365L5.23807 2.1333L5.95853 4.32365L8.22711 4.34445L6.4038 5.71895L7.0854 7.92216L5.23807 6.5813Z" fill="#FFDC42"/>
</g>
</svg>
